%
M48
M72
T01C0.0240
T02C0.0320
T03C0.0394
T04C0.0400
T05C0.0492
T06C0.0590
T07C0.0630
T08C0.1400
%
T01
X3490Y28420
X5050Y29980
X5770Y28540
X6130Y27820
X6850Y28540
X6850Y29500
X9130Y23860
X8770Y22900
X6250Y19300
X14770Y22300
X17770Y24820
X18490Y28300
X18130Y30700
X16210Y30700
X15370Y32620
X14050Y31540
X12850Y34180
X9130Y35140
X19690Y37060
X20290Y37060
T02
X10880Y29850
X11880Y29850
X12880Y29850
X12880Y32850
X11880Y32850
X10880Y32850
T03
X2380Y19600
X3380Y19600
X4380Y19600
X5380Y19600
X7630Y20350
X8630Y20350
X9630Y20350
X10630Y20350
X11630Y20350
X12630Y20350
X13630Y20350
X14630Y20350
X15630Y20350
X16630Y20350
X17630Y20350
X18630Y20350
X19630Y20850
X19630Y21850
X19630Y22850
X19630Y23850
X19630Y24850
X19630Y25850
X18630Y26350
X17630Y26350
X16630Y26350
X15630Y26350
X15130Y25350
X14630Y26350
X14130Y25350
X13630Y26350
X12630Y26350
X11630Y26350
X10630Y26350
X9630Y26350
X8630Y26350
X7630Y26350
X7630Y25350
X7630Y24350
X7630Y23350
X9630Y35600
X10630Y35600
X11630Y35600
X12630Y35600
T04
X2380Y21600
X2380Y22600
X3380Y22600
X3380Y21600
X4380Y21600
X4380Y22600
X3960Y38830
X5740Y38830
X7960Y38830
X9740Y38830
X11960Y38830
X13740Y38830
X15960Y38830
X17740Y38830
T05
X1850Y30880
X1850Y34029
T06
X3470Y37850
X6230Y37850
X7470Y37850
X10230Y37850
X11470Y37850
X14230Y37850
X15470Y37850
X18230Y37850
T07
X6880Y1600
X6880Y3600
X8380Y3600
X8380Y1600
X9880Y1600
X9880Y3600
X11380Y3600
X11380Y1600
X12880Y1600
X12880Y3600
X14380Y3600
X14380Y1600
T08
X3154Y8862
X3147Y6484
X3380Y2600
X17880Y2600
X18313Y6502
X18334Y8920
M30
