G75*
%MOIN*%
%OFA0B0*%
%FSLAX25Y25*%
%IPPOS*%
%LPD*%
%AMOC8*
5,1,8,0,0,1.08239X$1,22.5*
%
%ADD10C,0.00000*%
%ADD11C,0.00800*%
%ADD12C,0.00400*%
%ADD13R,0.00056X0.03640*%
%ADD14R,0.00056X0.04368*%
%ADD15R,0.00056X0.04536*%
%ADD16R,0.00056X0.04648*%
%ADD17R,0.00056X0.04704*%
%ADD18R,0.00056X0.04760*%
%ADD19R,0.00056X0.04760*%
%ADD20R,0.00056X0.04816*%
%ADD21R,0.00056X0.04984*%
%ADD22R,0.00056X0.05096*%
%ADD23R,0.00056X0.05208*%
%ADD24R,0.00056X0.05208*%
%ADD25R,0.00056X0.05264*%
%ADD26R,0.00056X0.05376*%
%ADD27R,0.00056X0.05488*%
%ADD28R,0.00056X0.05544*%
%ADD29R,0.00056X0.05544*%
%ADD30R,0.00056X0.05432*%
%ADD31R,0.00056X0.01400*%
%ADD32R,0.00056X0.01288*%
%ADD33R,0.00056X0.01344*%
%ADD34R,0.00056X0.01288*%
%ADD35R,0.00056X0.01400*%
%ADD36R,0.00056X0.01456*%
%ADD37R,0.00056X0.01568*%
%ADD38R,0.00056X0.01624*%
%ADD39R,0.00056X0.01512*%
%ADD40R,0.00056X0.01344*%
%ADD41R,0.00056X0.01568*%
%ADD42R,0.00056X0.01624*%
%ADD43R,0.00056X0.01456*%
%ADD44R,0.00056X0.05376*%
%ADD45R,0.00056X0.05432*%
%ADD46R,0.00056X0.05152*%
%ADD47R,0.00056X0.04928*%
%ADD48R,0.00056X0.04872*%
%ADD49R,0.00056X0.04704*%
%ADD50R,0.00056X0.04648*%
%ADD51R,0.00056X0.04592*%
%ADD52R,0.00056X0.04536*%
%ADD53R,0.00056X0.04312*%
%ADD54R,0.00056X0.03808*%
%ADD55R,0.00056X0.05768*%
%ADD56R,0.00056X0.05992*%
%ADD57R,0.00056X0.06104*%
%ADD58R,0.00056X0.06104*%
%ADD59R,0.00056X0.06160*%
%ADD60R,0.00056X0.06160*%
%ADD61R,0.00056X0.06216*%
%ADD62R,0.00056X0.06216*%
%ADD63R,0.00056X0.05824*%
%ADD64R,0.00056X0.01848*%
%ADD65R,0.00056X0.02072*%
%ADD66R,0.00056X0.01680*%
%ADD67R,0.00056X0.02128*%
%ADD68R,0.00056X0.02240*%
%ADD69R,0.00056X0.01736*%
%ADD70R,0.00056X0.02240*%
%ADD71R,0.00056X0.01736*%
%ADD72R,0.00056X0.01792*%
%ADD73R,0.00056X0.02296*%
%ADD74R,0.00056X0.01848*%
%ADD75R,0.00056X0.02408*%
%ADD76R,0.00056X0.05040*%
%ADD77R,0.00056X0.05936*%
%ADD78R,0.00056X0.05992*%
%ADD79R,0.00056X0.06048*%
%ADD80R,0.00056X0.03584*%
%ADD81R,0.00056X0.03472*%
%ADD82R,0.00056X0.03360*%
%ADD83R,0.00056X0.03304*%
%ADD84R,0.00056X0.03248*%
%ADD85R,0.00056X0.03192*%
%ADD86R,0.00056X0.02296*%
%ADD87R,0.00056X0.03080*%
%ADD88R,0.00056X0.02856*%
%ADD89R,0.00056X0.02184*%
%ADD90R,0.00056X0.02520*%
%ADD91R,0.00056X0.02352*%
%ADD92R,0.00056X0.02184*%
%ADD93R,0.00056X0.02128*%
%ADD94R,0.00056X0.02016*%
%ADD95R,0.00056X0.01848*%
%ADD96R,0.00056X0.01008*%
%ADD97R,0.00056X0.03808*%
%ADD98R,0.00056X0.04424*%
%ADD99R,0.00056X0.04816*%
%ADD100R,0.00056X0.04872*%
%ADD101R,0.00056X0.05040*%
%ADD102R,0.00056X0.05152*%
%ADD103R,0.00056X0.05320*%
%ADD104R,0.00056X0.05488*%
%ADD105R,0.00056X0.05600*%
%ADD106R,0.00056X0.01512*%
%ADD107R,0.00056X0.01456*%
%ADD108R,0.00056X0.01512*%
%ADD109R,0.00056X0.05600*%
%ADD110R,0.00056X0.05656*%
%ADD111R,0.00056X0.05264*%
%ADD112R,0.00056X0.04928*%
%ADD113R,0.00056X0.04592*%
%ADD114R,0.00056X0.04480*%
%ADD115R,0.00056X0.04088*%
%ADD116R,0.00056X0.05936*%
%ADD117R,0.00056X0.06104*%
%ADD118R,0.00056X0.06272*%
%ADD119R,0.00056X0.06272*%
%ADD120R,0.00056X0.05768*%
%ADD121R,0.00056X0.02800*%
%ADD122R,0.00056X0.02688*%
%ADD123R,0.00056X0.03024*%
%ADD124R,0.00056X0.03024*%
%ADD125R,0.00056X0.03136*%
%ADD126R,0.00056X0.03136*%
%ADD127R,0.00056X0.02968*%
%ADD128R,0.00056X0.02576*%
%ADD129R,0.00056X0.02632*%
%ADD130R,0.00056X0.02912*%
%ADD131R,0.00056X0.02800*%
%ADD132R,0.00056X0.02464*%
%ADD133R,0.00056X0.02408*%
%ADD134R,0.00056X0.02464*%
%ADD135R,0.00056X0.03080*%
%ADD136R,0.00056X0.02856*%
%ADD137R,0.00056X0.06048*%
%ADD138R,0.00056X0.04032*%
%ADD139R,0.00056X0.05320*%
%ADD140R,0.00056X0.01512*%
%ADD141R,0.00056X0.04984*%
%ADD142R,0.00056X0.03920*%
%ADD143R,0.00056X0.05824*%
%ADD144R,0.00056X0.02744*%
%ADD145R,0.00056X0.02912*%
%ADD146R,0.00056X0.02688*%
%ADD147R,0.00056X0.02520*%
%ADD148R,0.00056X0.02520*%
%ADD149R,0.00056X0.02968*%
%ADD150R,0.00056X0.02632*%
%ADD151R,0.00056X0.02744*%
%ADD152R,0.00056X0.03864*%
%ADD153R,0.00056X0.05880*%
%ADD154R,0.00056X0.01232*%
%ADD155R,0.00056X0.01232*%
%ADD156R,0.00056X0.01176*%
%ADD157R,0.00056X0.01176*%
%ADD158R,0.00056X0.01120*%
%ADD159R,0.00056X0.00504*%
%ADD160R,0.00056X0.01176*%
%ADD161R,0.00056X0.01120*%
%ADD162R,0.00056X0.01064*%
%ADD163R,0.00056X0.01008*%
%ADD164R,0.00056X0.00840*%
%ADD165R,0.00056X0.00840*%
%ADD166R,0.00056X0.00560*%
%ADD167R,0.00056X0.00448*%
%ADD168R,0.00056X0.01176*%
%ADD169R,0.00056X0.00896*%
%ADD170R,0.00056X0.00728*%
%ADD171R,0.01200X0.00100*%
%ADD172R,0.01700X0.00100*%
%ADD173R,0.02000X0.00100*%
%ADD174R,0.02400X0.00100*%
%ADD175R,0.02700X0.00100*%
%ADD176R,0.02900X0.00100*%
%ADD177R,0.03100X0.00100*%
%ADD178R,0.03300X0.00100*%
%ADD179R,0.03400X0.00100*%
%ADD180R,0.03600X0.00100*%
%ADD181R,0.03700X0.00100*%
%ADD182R,0.03900X0.00100*%
%ADD183R,0.04000X0.00100*%
%ADD184R,0.04100X0.00100*%
%ADD185R,0.04200X0.00100*%
%ADD186R,0.04300X0.00100*%
%ADD187R,0.04500X0.00100*%
%ADD188R,0.04600X0.00100*%
%ADD189R,0.04700X0.00100*%
%ADD190R,0.04800X0.00100*%
%ADD191R,0.00600X0.00100*%
%ADD192R,0.01300X0.00100*%
%ADD193R,0.02500X0.00100*%
%ADD194R,0.03200X0.00100*%
%ADD195R,0.00100X0.00100*%
%ADD196R,0.00300X0.00100*%
%ADD197R,0.02300X0.00100*%
%ADD198R,0.00200X0.00100*%
%ADD199R,0.01500X0.00100*%
%ADD200R,0.00700X0.00100*%
%ADD201R,0.01100X0.00100*%
%ADD202R,0.00800X0.00100*%
%ADD203R,0.01400X0.00100*%
%ADD204R,0.01600X0.00100*%
%ADD205R,0.05300X0.00100*%
%ADD206R,0.05100X0.00100*%
%ADD207R,0.05700X0.00100*%
%ADD208R,0.05500X0.00100*%
%ADD209R,0.05900X0.00100*%
%ADD210R,0.05800X0.00100*%
%ADD211R,0.06100X0.00100*%
%ADD212R,0.06200X0.00100*%
%ADD213R,0.06300X0.00100*%
%ADD214R,0.06500X0.00100*%
%ADD215R,0.06700X0.00100*%
%ADD216R,0.07100X0.00100*%
%ADD217R,0.07300X0.00100*%
%ADD218R,0.07600X0.00100*%
%ADD219R,0.07800X0.00100*%
%ADD220R,0.07900X0.00100*%
%ADD221R,0.08200X0.00100*%
%ADD222R,0.08100X0.00100*%
%ADD223R,0.08300X0.00100*%
%ADD224R,0.08500X0.00100*%
%ADD225R,0.08700X0.00100*%
%ADD226R,0.08800X0.00100*%
%ADD227R,0.09000X0.00100*%
%ADD228R,0.09200X0.00100*%
%ADD229R,0.09400X0.00100*%
%ADD230R,0.09500X0.00100*%
%ADD231R,0.09700X0.00100*%
%ADD232R,0.09600X0.00100*%
%ADD233R,0.09900X0.00100*%
%ADD234R,0.10100X0.00100*%
%ADD235R,0.10200X0.00100*%
%ADD236R,0.10300X0.00100*%
%ADD237R,0.10400X0.00100*%
%ADD238R,0.10500X0.00100*%
%ADD239R,0.10700X0.00100*%
%ADD240R,0.10600X0.00100*%
%ADD241R,0.10800X0.00100*%
%ADD242R,0.11000X0.00100*%
%ADD243R,0.10900X0.00100*%
%ADD244R,0.11200X0.00100*%
%ADD245R,0.11100X0.00100*%
%ADD246R,0.11500X0.00100*%
%ADD247R,0.12000X0.00100*%
%ADD248R,0.12300X0.00100*%
%ADD249R,0.12400X0.00100*%
%ADD250R,0.12700X0.00100*%
%ADD251R,0.12800X0.00100*%
%ADD252R,0.12900X0.00100*%
%ADD253R,0.13300X0.00100*%
%ADD254R,0.13700X0.00100*%
%ADD255R,0.13800X0.00100*%
%ADD256R,0.14000X0.00100*%
%ADD257R,0.14100X0.00100*%
%ADD258R,0.14200X0.00100*%
%ADD259R,0.14400X0.00100*%
%ADD260R,0.14500X0.00100*%
%ADD261R,0.14600X0.00100*%
%ADD262R,0.14800X0.00100*%
%ADD263R,0.14900X0.00100*%
%ADD264R,0.15000X0.00100*%
%ADD265R,0.15100X0.00100*%
%ADD266R,0.15200X0.00100*%
%ADD267R,0.15300X0.00100*%
%ADD268R,0.15400X0.00100*%
%ADD269R,0.15500X0.00100*%
%ADD270R,0.15600X0.00100*%
%ADD271R,0.15700X0.00100*%
%ADD272R,0.15800X0.00100*%
%ADD273R,0.15900X0.00100*%
%ADD274R,0.16000X0.00100*%
%ADD275R,0.16100X0.00100*%
%ADD276R,0.16200X0.00100*%
%ADD277R,0.14700X0.00100*%
%ADD278R,0.14300X0.00100*%
%ADD279R,0.13900X0.00100*%
%ADD280R,0.00500X0.00100*%
%ADD281R,0.17300X0.00100*%
%ADD282R,0.17100X0.00100*%
%ADD283R,0.17000X0.00100*%
%ADD284R,0.16900X0.00100*%
%ADD285R,0.16800X0.00100*%
%ADD286R,0.16700X0.00100*%
%ADD287R,0.16600X0.00100*%
%ADD288R,0.00400X0.00100*%
%ADD289R,0.03500X0.00100*%
%ADD290R,0.01000X0.00100*%
%ADD291R,0.16500X0.00100*%
%ADD292R,0.03800X0.00100*%
%ADD293R,0.22500X0.00100*%
%ADD294R,0.22400X0.00100*%
%ADD295R,0.22300X0.00100*%
%ADD296R,0.22200X0.00100*%
%ADD297R,0.13000X0.00100*%
%ADD298R,0.08400X0.00100*%
%ADD299R,0.01800X0.00100*%
%ADD300R,0.02100X0.00100*%
%ADD301R,0.13100X0.00100*%
%ADD302R,0.07500X0.00100*%
%ADD303R,0.13200X0.00100*%
%ADD304R,0.01900X0.00100*%
%ADD305R,0.02800X0.00100*%
%ADD306R,0.13400X0.00100*%
%ADD307R,0.13500X0.00100*%
%ADD308R,0.02200X0.00100*%
%ADD309R,0.02600X0.00100*%
%ADD310R,0.19700X0.00100*%
%ADD311R,0.19600X0.00100*%
%ADD312R,0.19400X0.00100*%
%ADD313R,0.19300X0.00100*%
%ADD314R,0.19100X0.00100*%
%ADD315R,0.18900X0.00100*%
%ADD316R,0.18700X0.00100*%
%ADD317R,0.18400X0.00100*%
%ADD318R,0.18100X0.00100*%
%ADD319R,0.17800X0.00100*%
%ADD320R,0.17400X0.00100*%
%ADD321R,0.16400X0.00100*%
%ADD322R,0.17200X0.00100*%
%ADD323R,0.17500X0.00100*%
%ADD324R,0.18000X0.00100*%
%ADD325R,0.18300X0.00100*%
%ADD326R,0.18600X0.00100*%
%ADD327R,0.19900X0.00100*%
%ADD328R,0.20000X0.00100*%
%ADD329R,0.20200X0.00100*%
%ADD330R,0.20500X0.00100*%
%ADD331R,0.20700X0.00100*%
%ADD332R,0.11300X0.00100*%
%ADD333R,0.04400X0.00100*%
%ADD334R,0.07700X0.00100*%
%ADD335R,0.07000X0.00100*%
%ADD336R,0.05000X0.00100*%
%ADD337R,0.06900X0.00100*%
%ADD338R,0.06800X0.00100*%
%ADD339R,0.05600X0.00100*%
%ADD340R,0.00900X0.00100*%
%ADD341R,0.09100X0.00100*%
%ADD342R,0.09800X0.00100*%
%ADD343R,0.10000X0.00100*%
%ADD344R,0.07200X0.00100*%
%ADD345R,0.08600X0.00100*%
%ADD346R,0.18500X0.00100*%
%ADD347R,0.18800X0.00100*%
%ADD348R,0.06400X0.00100*%
%ADD349R,0.19200X0.00100*%
%ADD350R,0.06600X0.00100*%
%ADD351R,0.27400X0.00100*%
%ADD352R,0.08000X0.00100*%
%ADD353R,0.27600X0.00100*%
%ADD354R,0.27800X0.00100*%
%ADD355R,0.27900X0.00100*%
%ADD356R,0.28200X0.00100*%
%ADD357R,0.28300X0.00100*%
%ADD358R,0.28500X0.00100*%
%ADD359R,0.28600X0.00100*%
%ADD360R,0.28800X0.00100*%
%ADD361R,0.29100X0.00100*%
%ADD362R,0.20900X0.00100*%
%ADD363R,0.21000X0.00100*%
%ADD364R,0.17600X0.00100*%
%ADD365R,0.07400X0.00100*%
%ADD366R,0.23800X0.00100*%
%ADD367R,0.23700X0.00100*%
%ADD368R,0.23600X0.00100*%
%ADD369R,0.23500X0.00100*%
%ADD370R,0.04900X0.00100*%
%ADD371R,0.09300X0.00100*%
%ADD372R,0.12600X0.00100*%
%ADD373R,0.18200X0.00100*%
%ADD374R,0.42900X0.00100*%
%ADD375R,0.11800X0.00100*%
%ADD376R,0.30600X0.00100*%
%ADD377R,0.33400X0.00100*%
%ADD378R,0.24100X0.00100*%
%ADD379R,0.23900X0.00100*%
%ADD380R,0.24200X0.00100*%
%ADD381R,0.03000X0.00100*%
%ADD382R,0.25600X0.00100*%
%ADD383R,0.05400X0.00100*%
%ADD384R,0.25800X0.00100*%
%ADD385R,0.25900X0.00100*%
%ADD386R,0.25500X0.00100*%
%ADD387R,0.25700X0.00100*%
%ADD388R,0.25400X0.00100*%
%ADD389R,0.25300X0.00100*%
%ADD390R,0.24400X0.00100*%
%ADD391R,0.23400X0.00100*%
%ADD392R,0.23100X0.00100*%
%ADD393R,0.23000X0.00100*%
%ADD394R,0.22900X0.00100*%
%ADD395R,0.22700X0.00100*%
%ADD396R,0.21900X0.00100*%
%ADD397R,0.22000X0.00100*%
%ADD398R,0.05200X0.00100*%
%ADD399R,0.11400X0.00100*%
%ADD400R,0.06000X0.00100*%
%ADD401R,0.19000X0.00100*%
%ADD402R,0.19500X0.00100*%
%ADD403R,0.20300X0.00100*%
%ADD404R,0.26500X0.00100*%
%ADD405R,0.26400X0.00100*%
%ADD406R,0.26300X0.00100*%
%ADD407R,0.26200X0.00100*%
%ADD408R,0.26100X0.00100*%
%ADD409R,0.26000X0.00100*%
%ADD410R,0.25200X0.00100*%
%ADD411R,0.25000X0.00100*%
%ADD412R,0.24800X0.00100*%
%ADD413R,0.24700X0.00100*%
%ADD414R,0.24600X0.00100*%
%ADD415R,0.24500X0.00100*%
%ADD416R,0.24300X0.00100*%
%ADD417R,0.24000X0.00100*%
%ADD418R,0.23300X0.00100*%
%ADD419R,0.23200X0.00100*%
%ADD420R,0.13600X0.00100*%
%ADD421R,0.12200X0.00100*%
%ADD422R,0.08900X0.00100*%
%ADD423C,0.00787*%
%ADD424R,0.23130X0.01673*%
%ADD425R,0.07972X0.02756*%
%ADD426R,0.02756X0.02657*%
%ADD427C,0.00500*%
D10*
X0001297Y0010767D02*
X0001000Y0385429D01*
X0001003Y0385640D01*
X0001010Y0385850D01*
X0001023Y0386061D01*
X0001041Y0386271D01*
X0001064Y0386480D01*
X0001092Y0386689D01*
X0001124Y0386897D01*
X0001162Y0387104D01*
X0001205Y0387311D01*
X0001253Y0387516D01*
X0001306Y0387720D01*
X0001364Y0387922D01*
X0001427Y0388124D01*
X0001494Y0388323D01*
X0001567Y0388521D01*
X0001644Y0388717D01*
X0001726Y0388911D01*
X0001812Y0389104D01*
X0001903Y0389294D01*
X0001999Y0389481D01*
X0002099Y0389667D01*
X0002204Y0389850D01*
X0002313Y0390030D01*
X0002426Y0390208D01*
X0002544Y0390383D01*
X0002665Y0390554D01*
X0002791Y0390723D01*
X0002921Y0390889D01*
X0003055Y0391052D01*
X0003193Y0391211D01*
X0003335Y0391367D01*
X0003480Y0391520D01*
X0003629Y0391669D01*
X0003782Y0391814D01*
X0003938Y0391956D01*
X0004097Y0392094D01*
X0004260Y0392228D01*
X0004426Y0392358D01*
X0004595Y0392484D01*
X0004766Y0392605D01*
X0004941Y0392723D01*
X0005119Y0392836D01*
X0005299Y0392945D01*
X0005482Y0393050D01*
X0005668Y0393150D01*
X0005855Y0393246D01*
X0006045Y0393337D01*
X0006238Y0393423D01*
X0006432Y0393505D01*
X0006628Y0393582D01*
X0006826Y0393655D01*
X0007025Y0393722D01*
X0007227Y0393785D01*
X0007429Y0393843D01*
X0007633Y0393896D01*
X0007838Y0393944D01*
X0008045Y0393987D01*
X0008252Y0394025D01*
X0008460Y0394057D01*
X0008669Y0394085D01*
X0008878Y0394108D01*
X0009088Y0394126D01*
X0009299Y0394139D01*
X0009509Y0394146D01*
X0009720Y0394149D01*
X0009720Y0394148D02*
X0203035Y0394148D01*
X0203226Y0394146D01*
X0203416Y0394139D01*
X0203606Y0394127D01*
X0203796Y0394111D01*
X0203986Y0394091D01*
X0204174Y0394065D01*
X0204363Y0394035D01*
X0204550Y0394001D01*
X0204737Y0393962D01*
X0204922Y0393919D01*
X0205107Y0393871D01*
X0205290Y0393819D01*
X0205472Y0393762D01*
X0205652Y0393701D01*
X0205831Y0393636D01*
X0206009Y0393566D01*
X0206184Y0393492D01*
X0206358Y0393414D01*
X0206530Y0393331D01*
X0206700Y0393245D01*
X0206867Y0393154D01*
X0207033Y0393059D01*
X0207196Y0392961D01*
X0207357Y0392858D01*
X0207515Y0392752D01*
X0207670Y0392642D01*
X0207823Y0392528D01*
X0207973Y0392411D01*
X0208120Y0392289D01*
X0208264Y0392165D01*
X0208405Y0392037D01*
X0208543Y0391905D01*
X0208678Y0391770D01*
X0208810Y0391632D01*
X0208938Y0391491D01*
X0209062Y0391347D01*
X0209184Y0391200D01*
X0209301Y0391050D01*
X0209415Y0390897D01*
X0209525Y0390742D01*
X0209631Y0390584D01*
X0209734Y0390423D01*
X0209832Y0390260D01*
X0209927Y0390094D01*
X0210018Y0389927D01*
X0210104Y0389757D01*
X0210187Y0389585D01*
X0210265Y0389411D01*
X0210339Y0389236D01*
X0210409Y0389058D01*
X0210474Y0388879D01*
X0210535Y0388699D01*
X0210592Y0388517D01*
X0210644Y0388334D01*
X0210692Y0388149D01*
X0210735Y0387964D01*
X0210774Y0387777D01*
X0210808Y0387590D01*
X0210838Y0387401D01*
X0210864Y0387213D01*
X0210884Y0387023D01*
X0210900Y0386833D01*
X0210912Y0386643D01*
X0210919Y0386453D01*
X0210921Y0386262D01*
X0211218Y0009978D01*
X0211215Y0009761D01*
X0211208Y0009544D01*
X0211194Y0009328D01*
X0211176Y0009111D01*
X0211153Y0008896D01*
X0211124Y0008681D01*
X0211090Y0008466D01*
X0211051Y0008253D01*
X0211006Y0008041D01*
X0210957Y0007829D01*
X0210903Y0007619D01*
X0210843Y0007411D01*
X0210779Y0007204D01*
X0210709Y0006998D01*
X0210635Y0006794D01*
X0210555Y0006592D01*
X0210471Y0006393D01*
X0210382Y0006195D01*
X0210288Y0005999D01*
X0210190Y0005806D01*
X0210086Y0005615D01*
X0209979Y0005427D01*
X0209867Y0005241D01*
X0209750Y0005058D01*
X0209629Y0004878D01*
X0209503Y0004701D01*
X0209374Y0004527D01*
X0209240Y0004356D01*
X0209102Y0004189D01*
X0208960Y0004024D01*
X0208814Y0003864D01*
X0208665Y0003707D01*
X0208511Y0003553D01*
X0208354Y0003404D01*
X0208194Y0003258D01*
X0208029Y0003116D01*
X0207862Y0002978D01*
X0207691Y0002844D01*
X0207517Y0002715D01*
X0207340Y0002589D01*
X0207160Y0002468D01*
X0206977Y0002351D01*
X0206791Y0002239D01*
X0206603Y0002132D01*
X0206412Y0002028D01*
X0206219Y0001930D01*
X0206023Y0001836D01*
X0205825Y0001747D01*
X0205626Y0001663D01*
X0205424Y0001583D01*
X0205220Y0001509D01*
X0205014Y0001439D01*
X0204807Y0001375D01*
X0204599Y0001315D01*
X0204389Y0001261D01*
X0204177Y0001212D01*
X0203965Y0001167D01*
X0203752Y0001128D01*
X0203537Y0001094D01*
X0203322Y0001065D01*
X0203107Y0001042D01*
X0202890Y0001024D01*
X0202674Y0001010D01*
X0202457Y0001003D01*
X0202240Y0001000D01*
X0011063Y0001000D01*
X0010827Y0001003D01*
X0010591Y0001011D01*
X0010356Y0001026D01*
X0010120Y0001046D01*
X0009886Y0001071D01*
X0009652Y0001102D01*
X0009419Y0001139D01*
X0009186Y0001182D01*
X0008955Y0001230D01*
X0008726Y0001284D01*
X0008497Y0001343D01*
X0008270Y0001408D01*
X0008045Y0001478D01*
X0007821Y0001554D01*
X0007600Y0001635D01*
X0007380Y0001721D01*
X0007162Y0001813D01*
X0006947Y0001910D01*
X0006734Y0002012D01*
X0006524Y0002119D01*
X0006316Y0002231D01*
X0006112Y0002348D01*
X0005910Y0002470D01*
X0005711Y0002597D01*
X0005515Y0002729D01*
X0005322Y0002865D01*
X0005133Y0003006D01*
X0004947Y0003152D01*
X0004765Y0003302D01*
X0004586Y0003456D01*
X0004412Y0003615D01*
X0004241Y0003778D01*
X0004074Y0003945D01*
X0003911Y0004116D01*
X0003752Y0004290D01*
X0003598Y0004469D01*
X0003448Y0004651D01*
X0003302Y0004837D01*
X0003161Y0005026D01*
X0003025Y0005219D01*
X0002893Y0005415D01*
X0002766Y0005614D01*
X0002644Y0005816D01*
X0002527Y0006020D01*
X0002415Y0006228D01*
X0002308Y0006438D01*
X0002206Y0006651D01*
X0002109Y0006866D01*
X0002017Y0007084D01*
X0001931Y0007304D01*
X0001850Y0007525D01*
X0001774Y0007749D01*
X0001704Y0007974D01*
X0001639Y0008201D01*
X0001580Y0008430D01*
X0001526Y0008659D01*
X0001478Y0008890D01*
X0001435Y0009123D01*
X0001398Y0009356D01*
X0001367Y0009590D01*
X0001342Y0009824D01*
X0001322Y0010060D01*
X0001307Y0010295D01*
X0001299Y0010531D01*
X0001296Y0010767D01*
X0024468Y0064839D02*
X0024470Y0065011D01*
X0024476Y0065182D01*
X0024487Y0065354D01*
X0024502Y0065525D01*
X0024521Y0065696D01*
X0024544Y0065866D01*
X0024571Y0066036D01*
X0024603Y0066205D01*
X0024638Y0066373D01*
X0024678Y0066540D01*
X0024722Y0066706D01*
X0024769Y0066871D01*
X0024821Y0067035D01*
X0024877Y0067197D01*
X0024937Y0067358D01*
X0025001Y0067518D01*
X0025069Y0067676D01*
X0025140Y0067832D01*
X0025215Y0067986D01*
X0025295Y0068139D01*
X0025377Y0068289D01*
X0025464Y0068438D01*
X0025554Y0068584D01*
X0025648Y0068728D01*
X0025745Y0068870D01*
X0025846Y0069009D01*
X0025950Y0069146D01*
X0026057Y0069280D01*
X0026168Y0069411D01*
X0026281Y0069540D01*
X0026398Y0069666D01*
X0026518Y0069789D01*
X0026641Y0069909D01*
X0026767Y0070026D01*
X0026896Y0070139D01*
X0027027Y0070250D01*
X0027161Y0070357D01*
X0027298Y0070461D01*
X0027437Y0070562D01*
X0027579Y0070659D01*
X0027723Y0070753D01*
X0027869Y0070843D01*
X0028018Y0070930D01*
X0028168Y0071012D01*
X0028321Y0071092D01*
X0028475Y0071167D01*
X0028631Y0071238D01*
X0028789Y0071306D01*
X0028949Y0071370D01*
X0029110Y0071430D01*
X0029272Y0071486D01*
X0029436Y0071538D01*
X0029601Y0071585D01*
X0029767Y0071629D01*
X0029934Y0071669D01*
X0030102Y0071704D01*
X0030271Y0071736D01*
X0030441Y0071763D01*
X0030611Y0071786D01*
X0030782Y0071805D01*
X0030953Y0071820D01*
X0031125Y0071831D01*
X0031296Y0071837D01*
X0031468Y0071839D01*
X0031640Y0071837D01*
X0031811Y0071831D01*
X0031983Y0071820D01*
X0032154Y0071805D01*
X0032325Y0071786D01*
X0032495Y0071763D01*
X0032665Y0071736D01*
X0032834Y0071704D01*
X0033002Y0071669D01*
X0033169Y0071629D01*
X0033335Y0071585D01*
X0033500Y0071538D01*
X0033664Y0071486D01*
X0033826Y0071430D01*
X0033987Y0071370D01*
X0034147Y0071306D01*
X0034305Y0071238D01*
X0034461Y0071167D01*
X0034615Y0071092D01*
X0034768Y0071012D01*
X0034918Y0070930D01*
X0035067Y0070843D01*
X0035213Y0070753D01*
X0035357Y0070659D01*
X0035499Y0070562D01*
X0035638Y0070461D01*
X0035775Y0070357D01*
X0035909Y0070250D01*
X0036040Y0070139D01*
X0036169Y0070026D01*
X0036295Y0069909D01*
X0036418Y0069789D01*
X0036538Y0069666D01*
X0036655Y0069540D01*
X0036768Y0069411D01*
X0036879Y0069280D01*
X0036986Y0069146D01*
X0037090Y0069009D01*
X0037191Y0068870D01*
X0037288Y0068728D01*
X0037382Y0068584D01*
X0037472Y0068438D01*
X0037559Y0068289D01*
X0037641Y0068139D01*
X0037721Y0067986D01*
X0037796Y0067832D01*
X0037867Y0067676D01*
X0037935Y0067518D01*
X0037999Y0067358D01*
X0038059Y0067197D01*
X0038115Y0067035D01*
X0038167Y0066871D01*
X0038214Y0066706D01*
X0038258Y0066540D01*
X0038298Y0066373D01*
X0038333Y0066205D01*
X0038365Y0066036D01*
X0038392Y0065866D01*
X0038415Y0065696D01*
X0038434Y0065525D01*
X0038449Y0065354D01*
X0038460Y0065182D01*
X0038466Y0065011D01*
X0038468Y0064839D01*
X0038466Y0064667D01*
X0038460Y0064496D01*
X0038449Y0064324D01*
X0038434Y0064153D01*
X0038415Y0063982D01*
X0038392Y0063812D01*
X0038365Y0063642D01*
X0038333Y0063473D01*
X0038298Y0063305D01*
X0038258Y0063138D01*
X0038214Y0062972D01*
X0038167Y0062807D01*
X0038115Y0062643D01*
X0038059Y0062481D01*
X0037999Y0062320D01*
X0037935Y0062160D01*
X0037867Y0062002D01*
X0037796Y0061846D01*
X0037721Y0061692D01*
X0037641Y0061539D01*
X0037559Y0061389D01*
X0037472Y0061240D01*
X0037382Y0061094D01*
X0037288Y0060950D01*
X0037191Y0060808D01*
X0037090Y0060669D01*
X0036986Y0060532D01*
X0036879Y0060398D01*
X0036768Y0060267D01*
X0036655Y0060138D01*
X0036538Y0060012D01*
X0036418Y0059889D01*
X0036295Y0059769D01*
X0036169Y0059652D01*
X0036040Y0059539D01*
X0035909Y0059428D01*
X0035775Y0059321D01*
X0035638Y0059217D01*
X0035499Y0059116D01*
X0035357Y0059019D01*
X0035213Y0058925D01*
X0035067Y0058835D01*
X0034918Y0058748D01*
X0034768Y0058666D01*
X0034615Y0058586D01*
X0034461Y0058511D01*
X0034305Y0058440D01*
X0034147Y0058372D01*
X0033987Y0058308D01*
X0033826Y0058248D01*
X0033664Y0058192D01*
X0033500Y0058140D01*
X0033335Y0058093D01*
X0033169Y0058049D01*
X0033002Y0058009D01*
X0032834Y0057974D01*
X0032665Y0057942D01*
X0032495Y0057915D01*
X0032325Y0057892D01*
X0032154Y0057873D01*
X0031983Y0057858D01*
X0031811Y0057847D01*
X0031640Y0057841D01*
X0031468Y0057839D01*
X0031296Y0057841D01*
X0031125Y0057847D01*
X0030953Y0057858D01*
X0030782Y0057873D01*
X0030611Y0057892D01*
X0030441Y0057915D01*
X0030271Y0057942D01*
X0030102Y0057974D01*
X0029934Y0058009D01*
X0029767Y0058049D01*
X0029601Y0058093D01*
X0029436Y0058140D01*
X0029272Y0058192D01*
X0029110Y0058248D01*
X0028949Y0058308D01*
X0028789Y0058372D01*
X0028631Y0058440D01*
X0028475Y0058511D01*
X0028321Y0058586D01*
X0028168Y0058666D01*
X0028018Y0058748D01*
X0027869Y0058835D01*
X0027723Y0058925D01*
X0027579Y0059019D01*
X0027437Y0059116D01*
X0027298Y0059217D01*
X0027161Y0059321D01*
X0027027Y0059428D01*
X0026896Y0059539D01*
X0026767Y0059652D01*
X0026641Y0059769D01*
X0026518Y0059889D01*
X0026398Y0060012D01*
X0026281Y0060138D01*
X0026168Y0060267D01*
X0026057Y0060398D01*
X0025950Y0060532D01*
X0025846Y0060669D01*
X0025745Y0060808D01*
X0025648Y0060950D01*
X0025554Y0061094D01*
X0025464Y0061240D01*
X0025377Y0061389D01*
X0025295Y0061539D01*
X0025215Y0061692D01*
X0025140Y0061846D01*
X0025069Y0062002D01*
X0025001Y0062160D01*
X0024937Y0062320D01*
X0024877Y0062481D01*
X0024821Y0062643D01*
X0024769Y0062807D01*
X0024722Y0062972D01*
X0024678Y0063138D01*
X0024638Y0063305D01*
X0024603Y0063473D01*
X0024571Y0063642D01*
X0024544Y0063812D01*
X0024521Y0063982D01*
X0024502Y0064153D01*
X0024487Y0064324D01*
X0024476Y0064496D01*
X0024470Y0064667D01*
X0024468Y0064839D01*
X0024536Y0088621D02*
X0024538Y0088793D01*
X0024544Y0088964D01*
X0024555Y0089136D01*
X0024570Y0089307D01*
X0024589Y0089478D01*
X0024612Y0089648D01*
X0024639Y0089818D01*
X0024671Y0089987D01*
X0024706Y0090155D01*
X0024746Y0090322D01*
X0024790Y0090488D01*
X0024837Y0090653D01*
X0024889Y0090817D01*
X0024945Y0090979D01*
X0025005Y0091140D01*
X0025069Y0091300D01*
X0025137Y0091458D01*
X0025208Y0091614D01*
X0025283Y0091768D01*
X0025363Y0091921D01*
X0025445Y0092071D01*
X0025532Y0092220D01*
X0025622Y0092366D01*
X0025716Y0092510D01*
X0025813Y0092652D01*
X0025914Y0092791D01*
X0026018Y0092928D01*
X0026125Y0093062D01*
X0026236Y0093193D01*
X0026349Y0093322D01*
X0026466Y0093448D01*
X0026586Y0093571D01*
X0026709Y0093691D01*
X0026835Y0093808D01*
X0026964Y0093921D01*
X0027095Y0094032D01*
X0027229Y0094139D01*
X0027366Y0094243D01*
X0027505Y0094344D01*
X0027647Y0094441D01*
X0027791Y0094535D01*
X0027937Y0094625D01*
X0028086Y0094712D01*
X0028236Y0094794D01*
X0028389Y0094874D01*
X0028543Y0094949D01*
X0028699Y0095020D01*
X0028857Y0095088D01*
X0029017Y0095152D01*
X0029178Y0095212D01*
X0029340Y0095268D01*
X0029504Y0095320D01*
X0029669Y0095367D01*
X0029835Y0095411D01*
X0030002Y0095451D01*
X0030170Y0095486D01*
X0030339Y0095518D01*
X0030509Y0095545D01*
X0030679Y0095568D01*
X0030850Y0095587D01*
X0031021Y0095602D01*
X0031193Y0095613D01*
X0031364Y0095619D01*
X0031536Y0095621D01*
X0031708Y0095619D01*
X0031879Y0095613D01*
X0032051Y0095602D01*
X0032222Y0095587D01*
X0032393Y0095568D01*
X0032563Y0095545D01*
X0032733Y0095518D01*
X0032902Y0095486D01*
X0033070Y0095451D01*
X0033237Y0095411D01*
X0033403Y0095367D01*
X0033568Y0095320D01*
X0033732Y0095268D01*
X0033894Y0095212D01*
X0034055Y0095152D01*
X0034215Y0095088D01*
X0034373Y0095020D01*
X0034529Y0094949D01*
X0034683Y0094874D01*
X0034836Y0094794D01*
X0034986Y0094712D01*
X0035135Y0094625D01*
X0035281Y0094535D01*
X0035425Y0094441D01*
X0035567Y0094344D01*
X0035706Y0094243D01*
X0035843Y0094139D01*
X0035977Y0094032D01*
X0036108Y0093921D01*
X0036237Y0093808D01*
X0036363Y0093691D01*
X0036486Y0093571D01*
X0036606Y0093448D01*
X0036723Y0093322D01*
X0036836Y0093193D01*
X0036947Y0093062D01*
X0037054Y0092928D01*
X0037158Y0092791D01*
X0037259Y0092652D01*
X0037356Y0092510D01*
X0037450Y0092366D01*
X0037540Y0092220D01*
X0037627Y0092071D01*
X0037709Y0091921D01*
X0037789Y0091768D01*
X0037864Y0091614D01*
X0037935Y0091458D01*
X0038003Y0091300D01*
X0038067Y0091140D01*
X0038127Y0090979D01*
X0038183Y0090817D01*
X0038235Y0090653D01*
X0038282Y0090488D01*
X0038326Y0090322D01*
X0038366Y0090155D01*
X0038401Y0089987D01*
X0038433Y0089818D01*
X0038460Y0089648D01*
X0038483Y0089478D01*
X0038502Y0089307D01*
X0038517Y0089136D01*
X0038528Y0088964D01*
X0038534Y0088793D01*
X0038536Y0088621D01*
X0038534Y0088449D01*
X0038528Y0088278D01*
X0038517Y0088106D01*
X0038502Y0087935D01*
X0038483Y0087764D01*
X0038460Y0087594D01*
X0038433Y0087424D01*
X0038401Y0087255D01*
X0038366Y0087087D01*
X0038326Y0086920D01*
X0038282Y0086754D01*
X0038235Y0086589D01*
X0038183Y0086425D01*
X0038127Y0086263D01*
X0038067Y0086102D01*
X0038003Y0085942D01*
X0037935Y0085784D01*
X0037864Y0085628D01*
X0037789Y0085474D01*
X0037709Y0085321D01*
X0037627Y0085171D01*
X0037540Y0085022D01*
X0037450Y0084876D01*
X0037356Y0084732D01*
X0037259Y0084590D01*
X0037158Y0084451D01*
X0037054Y0084314D01*
X0036947Y0084180D01*
X0036836Y0084049D01*
X0036723Y0083920D01*
X0036606Y0083794D01*
X0036486Y0083671D01*
X0036363Y0083551D01*
X0036237Y0083434D01*
X0036108Y0083321D01*
X0035977Y0083210D01*
X0035843Y0083103D01*
X0035706Y0082999D01*
X0035567Y0082898D01*
X0035425Y0082801D01*
X0035281Y0082707D01*
X0035135Y0082617D01*
X0034986Y0082530D01*
X0034836Y0082448D01*
X0034683Y0082368D01*
X0034529Y0082293D01*
X0034373Y0082222D01*
X0034215Y0082154D01*
X0034055Y0082090D01*
X0033894Y0082030D01*
X0033732Y0081974D01*
X0033568Y0081922D01*
X0033403Y0081875D01*
X0033237Y0081831D01*
X0033070Y0081791D01*
X0032902Y0081756D01*
X0032733Y0081724D01*
X0032563Y0081697D01*
X0032393Y0081674D01*
X0032222Y0081655D01*
X0032051Y0081640D01*
X0031879Y0081629D01*
X0031708Y0081623D01*
X0031536Y0081621D01*
X0031364Y0081623D01*
X0031193Y0081629D01*
X0031021Y0081640D01*
X0030850Y0081655D01*
X0030679Y0081674D01*
X0030509Y0081697D01*
X0030339Y0081724D01*
X0030170Y0081756D01*
X0030002Y0081791D01*
X0029835Y0081831D01*
X0029669Y0081875D01*
X0029504Y0081922D01*
X0029340Y0081974D01*
X0029178Y0082030D01*
X0029017Y0082090D01*
X0028857Y0082154D01*
X0028699Y0082222D01*
X0028543Y0082293D01*
X0028389Y0082368D01*
X0028236Y0082448D01*
X0028086Y0082530D01*
X0027937Y0082617D01*
X0027791Y0082707D01*
X0027647Y0082801D01*
X0027505Y0082898D01*
X0027366Y0082999D01*
X0027229Y0083103D01*
X0027095Y0083210D01*
X0026964Y0083321D01*
X0026835Y0083434D01*
X0026709Y0083551D01*
X0026586Y0083671D01*
X0026466Y0083794D01*
X0026349Y0083920D01*
X0026236Y0084049D01*
X0026125Y0084180D01*
X0026018Y0084314D01*
X0025914Y0084451D01*
X0025813Y0084590D01*
X0025716Y0084732D01*
X0025622Y0084876D01*
X0025532Y0085022D01*
X0025445Y0085171D01*
X0025363Y0085321D01*
X0025283Y0085474D01*
X0025208Y0085628D01*
X0025137Y0085784D01*
X0025069Y0085942D01*
X0025005Y0086102D01*
X0024945Y0086263D01*
X0024889Y0086425D01*
X0024837Y0086589D01*
X0024790Y0086754D01*
X0024746Y0086920D01*
X0024706Y0087087D01*
X0024671Y0087255D01*
X0024639Y0087424D01*
X0024612Y0087594D01*
X0024589Y0087764D01*
X0024570Y0087935D01*
X0024555Y0088106D01*
X0024544Y0088278D01*
X0024538Y0088449D01*
X0024536Y0088621D01*
X0026797Y0026000D02*
X0026799Y0026172D01*
X0026805Y0026343D01*
X0026816Y0026515D01*
X0026831Y0026686D01*
X0026850Y0026857D01*
X0026873Y0027027D01*
X0026900Y0027197D01*
X0026932Y0027366D01*
X0026967Y0027534D01*
X0027007Y0027701D01*
X0027051Y0027867D01*
X0027098Y0028032D01*
X0027150Y0028196D01*
X0027206Y0028358D01*
X0027266Y0028519D01*
X0027330Y0028679D01*
X0027398Y0028837D01*
X0027469Y0028993D01*
X0027544Y0029147D01*
X0027624Y0029300D01*
X0027706Y0029450D01*
X0027793Y0029599D01*
X0027883Y0029745D01*
X0027977Y0029889D01*
X0028074Y0030031D01*
X0028175Y0030170D01*
X0028279Y0030307D01*
X0028386Y0030441D01*
X0028497Y0030572D01*
X0028610Y0030701D01*
X0028727Y0030827D01*
X0028847Y0030950D01*
X0028970Y0031070D01*
X0029096Y0031187D01*
X0029225Y0031300D01*
X0029356Y0031411D01*
X0029490Y0031518D01*
X0029627Y0031622D01*
X0029766Y0031723D01*
X0029908Y0031820D01*
X0030052Y0031914D01*
X0030198Y0032004D01*
X0030347Y0032091D01*
X0030497Y0032173D01*
X0030650Y0032253D01*
X0030804Y0032328D01*
X0030960Y0032399D01*
X0031118Y0032467D01*
X0031278Y0032531D01*
X0031439Y0032591D01*
X0031601Y0032647D01*
X0031765Y0032699D01*
X0031930Y0032746D01*
X0032096Y0032790D01*
X0032263Y0032830D01*
X0032431Y0032865D01*
X0032600Y0032897D01*
X0032770Y0032924D01*
X0032940Y0032947D01*
X0033111Y0032966D01*
X0033282Y0032981D01*
X0033454Y0032992D01*
X0033625Y0032998D01*
X0033797Y0033000D01*
X0033969Y0032998D01*
X0034140Y0032992D01*
X0034312Y0032981D01*
X0034483Y0032966D01*
X0034654Y0032947D01*
X0034824Y0032924D01*
X0034994Y0032897D01*
X0035163Y0032865D01*
X0035331Y0032830D01*
X0035498Y0032790D01*
X0035664Y0032746D01*
X0035829Y0032699D01*
X0035993Y0032647D01*
X0036155Y0032591D01*
X0036316Y0032531D01*
X0036476Y0032467D01*
X0036634Y0032399D01*
X0036790Y0032328D01*
X0036944Y0032253D01*
X0037097Y0032173D01*
X0037247Y0032091D01*
X0037396Y0032004D01*
X0037542Y0031914D01*
X0037686Y0031820D01*
X0037828Y0031723D01*
X0037967Y0031622D01*
X0038104Y0031518D01*
X0038238Y0031411D01*
X0038369Y0031300D01*
X0038498Y0031187D01*
X0038624Y0031070D01*
X0038747Y0030950D01*
X0038867Y0030827D01*
X0038984Y0030701D01*
X0039097Y0030572D01*
X0039208Y0030441D01*
X0039315Y0030307D01*
X0039419Y0030170D01*
X0039520Y0030031D01*
X0039617Y0029889D01*
X0039711Y0029745D01*
X0039801Y0029599D01*
X0039888Y0029450D01*
X0039970Y0029300D01*
X0040050Y0029147D01*
X0040125Y0028993D01*
X0040196Y0028837D01*
X0040264Y0028679D01*
X0040328Y0028519D01*
X0040388Y0028358D01*
X0040444Y0028196D01*
X0040496Y0028032D01*
X0040543Y0027867D01*
X0040587Y0027701D01*
X0040627Y0027534D01*
X0040662Y0027366D01*
X0040694Y0027197D01*
X0040721Y0027027D01*
X0040744Y0026857D01*
X0040763Y0026686D01*
X0040778Y0026515D01*
X0040789Y0026343D01*
X0040795Y0026172D01*
X0040797Y0026000D01*
X0040795Y0025828D01*
X0040789Y0025657D01*
X0040778Y0025485D01*
X0040763Y0025314D01*
X0040744Y0025143D01*
X0040721Y0024973D01*
X0040694Y0024803D01*
X0040662Y0024634D01*
X0040627Y0024466D01*
X0040587Y0024299D01*
X0040543Y0024133D01*
X0040496Y0023968D01*
X0040444Y0023804D01*
X0040388Y0023642D01*
X0040328Y0023481D01*
X0040264Y0023321D01*
X0040196Y0023163D01*
X0040125Y0023007D01*
X0040050Y0022853D01*
X0039970Y0022700D01*
X0039888Y0022550D01*
X0039801Y0022401D01*
X0039711Y0022255D01*
X0039617Y0022111D01*
X0039520Y0021969D01*
X0039419Y0021830D01*
X0039315Y0021693D01*
X0039208Y0021559D01*
X0039097Y0021428D01*
X0038984Y0021299D01*
X0038867Y0021173D01*
X0038747Y0021050D01*
X0038624Y0020930D01*
X0038498Y0020813D01*
X0038369Y0020700D01*
X0038238Y0020589D01*
X0038104Y0020482D01*
X0037967Y0020378D01*
X0037828Y0020277D01*
X0037686Y0020180D01*
X0037542Y0020086D01*
X0037396Y0019996D01*
X0037247Y0019909D01*
X0037097Y0019827D01*
X0036944Y0019747D01*
X0036790Y0019672D01*
X0036634Y0019601D01*
X0036476Y0019533D01*
X0036316Y0019469D01*
X0036155Y0019409D01*
X0035993Y0019353D01*
X0035829Y0019301D01*
X0035664Y0019254D01*
X0035498Y0019210D01*
X0035331Y0019170D01*
X0035163Y0019135D01*
X0034994Y0019103D01*
X0034824Y0019076D01*
X0034654Y0019053D01*
X0034483Y0019034D01*
X0034312Y0019019D01*
X0034140Y0019008D01*
X0033969Y0019002D01*
X0033797Y0019000D01*
X0033625Y0019002D01*
X0033454Y0019008D01*
X0033282Y0019019D01*
X0033111Y0019034D01*
X0032940Y0019053D01*
X0032770Y0019076D01*
X0032600Y0019103D01*
X0032431Y0019135D01*
X0032263Y0019170D01*
X0032096Y0019210D01*
X0031930Y0019254D01*
X0031765Y0019301D01*
X0031601Y0019353D01*
X0031439Y0019409D01*
X0031278Y0019469D01*
X0031118Y0019533D01*
X0030960Y0019601D01*
X0030804Y0019672D01*
X0030650Y0019747D01*
X0030497Y0019827D01*
X0030347Y0019909D01*
X0030198Y0019996D01*
X0030052Y0020086D01*
X0029908Y0020180D01*
X0029766Y0020277D01*
X0029627Y0020378D01*
X0029490Y0020482D01*
X0029356Y0020589D01*
X0029225Y0020700D01*
X0029096Y0020813D01*
X0028970Y0020930D01*
X0028847Y0021050D01*
X0028727Y0021173D01*
X0028610Y0021299D01*
X0028497Y0021428D01*
X0028386Y0021559D01*
X0028279Y0021693D01*
X0028175Y0021830D01*
X0028074Y0021969D01*
X0027977Y0022111D01*
X0027883Y0022255D01*
X0027793Y0022401D01*
X0027706Y0022550D01*
X0027624Y0022700D01*
X0027544Y0022853D01*
X0027469Y0023007D01*
X0027398Y0023163D01*
X0027330Y0023321D01*
X0027266Y0023481D01*
X0027206Y0023642D01*
X0027150Y0023804D01*
X0027098Y0023968D01*
X0027051Y0024133D01*
X0027007Y0024299D01*
X0026967Y0024466D01*
X0026932Y0024634D01*
X0026900Y0024803D01*
X0026873Y0024973D01*
X0026850Y0025143D01*
X0026831Y0025314D01*
X0026816Y0025485D01*
X0026805Y0025657D01*
X0026799Y0025828D01*
X0026797Y0026000D01*
X0016041Y0308795D02*
X0016043Y0308894D01*
X0016049Y0308993D01*
X0016059Y0309092D01*
X0016073Y0309190D01*
X0016091Y0309287D01*
X0016113Y0309384D01*
X0016138Y0309480D01*
X0016168Y0309574D01*
X0016201Y0309668D01*
X0016238Y0309760D01*
X0016279Y0309850D01*
X0016323Y0309939D01*
X0016371Y0310025D01*
X0016422Y0310110D01*
X0016477Y0310193D01*
X0016535Y0310273D01*
X0016596Y0310351D01*
X0016660Y0310427D01*
X0016727Y0310500D01*
X0016797Y0310570D01*
X0016870Y0310637D01*
X0016946Y0310701D01*
X0017024Y0310762D01*
X0017104Y0310820D01*
X0017187Y0310875D01*
X0017271Y0310926D01*
X0017358Y0310974D01*
X0017447Y0311018D01*
X0017537Y0311059D01*
X0017629Y0311096D01*
X0017723Y0311129D01*
X0017817Y0311159D01*
X0017913Y0311184D01*
X0018010Y0311206D01*
X0018107Y0311224D01*
X0018205Y0311238D01*
X0018304Y0311248D01*
X0018403Y0311254D01*
X0018502Y0311256D01*
X0018601Y0311254D01*
X0018700Y0311248D01*
X0018799Y0311238D01*
X0018897Y0311224D01*
X0018994Y0311206D01*
X0019091Y0311184D01*
X0019187Y0311159D01*
X0019281Y0311129D01*
X0019375Y0311096D01*
X0019467Y0311059D01*
X0019557Y0311018D01*
X0019646Y0310974D01*
X0019732Y0310926D01*
X0019817Y0310875D01*
X0019900Y0310820D01*
X0019980Y0310762D01*
X0020058Y0310701D01*
X0020134Y0310637D01*
X0020207Y0310570D01*
X0020277Y0310500D01*
X0020344Y0310427D01*
X0020408Y0310351D01*
X0020469Y0310273D01*
X0020527Y0310193D01*
X0020582Y0310110D01*
X0020633Y0310026D01*
X0020681Y0309939D01*
X0020725Y0309850D01*
X0020766Y0309760D01*
X0020803Y0309668D01*
X0020836Y0309574D01*
X0020866Y0309480D01*
X0020891Y0309384D01*
X0020913Y0309287D01*
X0020931Y0309190D01*
X0020945Y0309092D01*
X0020955Y0308993D01*
X0020961Y0308894D01*
X0020963Y0308795D01*
X0020961Y0308696D01*
X0020955Y0308597D01*
X0020945Y0308498D01*
X0020931Y0308400D01*
X0020913Y0308303D01*
X0020891Y0308206D01*
X0020866Y0308110D01*
X0020836Y0308016D01*
X0020803Y0307922D01*
X0020766Y0307830D01*
X0020725Y0307740D01*
X0020681Y0307651D01*
X0020633Y0307565D01*
X0020582Y0307480D01*
X0020527Y0307397D01*
X0020469Y0307317D01*
X0020408Y0307239D01*
X0020344Y0307163D01*
X0020277Y0307090D01*
X0020207Y0307020D01*
X0020134Y0306953D01*
X0020058Y0306889D01*
X0019980Y0306828D01*
X0019900Y0306770D01*
X0019817Y0306715D01*
X0019733Y0306664D01*
X0019646Y0306616D01*
X0019557Y0306572D01*
X0019467Y0306531D01*
X0019375Y0306494D01*
X0019281Y0306461D01*
X0019187Y0306431D01*
X0019091Y0306406D01*
X0018994Y0306384D01*
X0018897Y0306366D01*
X0018799Y0306352D01*
X0018700Y0306342D01*
X0018601Y0306336D01*
X0018502Y0306334D01*
X0018403Y0306336D01*
X0018304Y0306342D01*
X0018205Y0306352D01*
X0018107Y0306366D01*
X0018010Y0306384D01*
X0017913Y0306406D01*
X0017817Y0306431D01*
X0017723Y0306461D01*
X0017629Y0306494D01*
X0017537Y0306531D01*
X0017447Y0306572D01*
X0017358Y0306616D01*
X0017272Y0306664D01*
X0017187Y0306715D01*
X0017104Y0306770D01*
X0017024Y0306828D01*
X0016946Y0306889D01*
X0016870Y0306953D01*
X0016797Y0307020D01*
X0016727Y0307090D01*
X0016660Y0307163D01*
X0016596Y0307239D01*
X0016535Y0307317D01*
X0016477Y0307397D01*
X0016422Y0307480D01*
X0016371Y0307564D01*
X0016323Y0307651D01*
X0016279Y0307740D01*
X0016238Y0307830D01*
X0016201Y0307922D01*
X0016168Y0308016D01*
X0016138Y0308110D01*
X0016113Y0308206D01*
X0016091Y0308303D01*
X0016073Y0308400D01*
X0016059Y0308498D01*
X0016049Y0308597D01*
X0016043Y0308696D01*
X0016041Y0308795D01*
X0016041Y0340291D02*
X0016043Y0340390D01*
X0016049Y0340489D01*
X0016059Y0340588D01*
X0016073Y0340686D01*
X0016091Y0340783D01*
X0016113Y0340880D01*
X0016138Y0340976D01*
X0016168Y0341070D01*
X0016201Y0341164D01*
X0016238Y0341256D01*
X0016279Y0341346D01*
X0016323Y0341435D01*
X0016371Y0341521D01*
X0016422Y0341606D01*
X0016477Y0341689D01*
X0016535Y0341769D01*
X0016596Y0341847D01*
X0016660Y0341923D01*
X0016727Y0341996D01*
X0016797Y0342066D01*
X0016870Y0342133D01*
X0016946Y0342197D01*
X0017024Y0342258D01*
X0017104Y0342316D01*
X0017187Y0342371D01*
X0017271Y0342422D01*
X0017358Y0342470D01*
X0017447Y0342514D01*
X0017537Y0342555D01*
X0017629Y0342592D01*
X0017723Y0342625D01*
X0017817Y0342655D01*
X0017913Y0342680D01*
X0018010Y0342702D01*
X0018107Y0342720D01*
X0018205Y0342734D01*
X0018304Y0342744D01*
X0018403Y0342750D01*
X0018502Y0342752D01*
X0018601Y0342750D01*
X0018700Y0342744D01*
X0018799Y0342734D01*
X0018897Y0342720D01*
X0018994Y0342702D01*
X0019091Y0342680D01*
X0019187Y0342655D01*
X0019281Y0342625D01*
X0019375Y0342592D01*
X0019467Y0342555D01*
X0019557Y0342514D01*
X0019646Y0342470D01*
X0019732Y0342422D01*
X0019817Y0342371D01*
X0019900Y0342316D01*
X0019980Y0342258D01*
X0020058Y0342197D01*
X0020134Y0342133D01*
X0020207Y0342066D01*
X0020277Y0341996D01*
X0020344Y0341923D01*
X0020408Y0341847D01*
X0020469Y0341769D01*
X0020527Y0341689D01*
X0020582Y0341606D01*
X0020633Y0341522D01*
X0020681Y0341435D01*
X0020725Y0341346D01*
X0020766Y0341256D01*
X0020803Y0341164D01*
X0020836Y0341070D01*
X0020866Y0340976D01*
X0020891Y0340880D01*
X0020913Y0340783D01*
X0020931Y0340686D01*
X0020945Y0340588D01*
X0020955Y0340489D01*
X0020961Y0340390D01*
X0020963Y0340291D01*
X0020961Y0340192D01*
X0020955Y0340093D01*
X0020945Y0339994D01*
X0020931Y0339896D01*
X0020913Y0339799D01*
X0020891Y0339702D01*
X0020866Y0339606D01*
X0020836Y0339512D01*
X0020803Y0339418D01*
X0020766Y0339326D01*
X0020725Y0339236D01*
X0020681Y0339147D01*
X0020633Y0339061D01*
X0020582Y0338976D01*
X0020527Y0338893D01*
X0020469Y0338813D01*
X0020408Y0338735D01*
X0020344Y0338659D01*
X0020277Y0338586D01*
X0020207Y0338516D01*
X0020134Y0338449D01*
X0020058Y0338385D01*
X0019980Y0338324D01*
X0019900Y0338266D01*
X0019817Y0338211D01*
X0019733Y0338160D01*
X0019646Y0338112D01*
X0019557Y0338068D01*
X0019467Y0338027D01*
X0019375Y0337990D01*
X0019281Y0337957D01*
X0019187Y0337927D01*
X0019091Y0337902D01*
X0018994Y0337880D01*
X0018897Y0337862D01*
X0018799Y0337848D01*
X0018700Y0337838D01*
X0018601Y0337832D01*
X0018502Y0337830D01*
X0018403Y0337832D01*
X0018304Y0337838D01*
X0018205Y0337848D01*
X0018107Y0337862D01*
X0018010Y0337880D01*
X0017913Y0337902D01*
X0017817Y0337927D01*
X0017723Y0337957D01*
X0017629Y0337990D01*
X0017537Y0338027D01*
X0017447Y0338068D01*
X0017358Y0338112D01*
X0017272Y0338160D01*
X0017187Y0338211D01*
X0017104Y0338266D01*
X0017024Y0338324D01*
X0016946Y0338385D01*
X0016870Y0338449D01*
X0016797Y0338516D01*
X0016727Y0338586D01*
X0016660Y0338659D01*
X0016596Y0338735D01*
X0016535Y0338813D01*
X0016477Y0338893D01*
X0016422Y0338976D01*
X0016371Y0339060D01*
X0016323Y0339147D01*
X0016279Y0339236D01*
X0016238Y0339326D01*
X0016201Y0339418D01*
X0016168Y0339512D01*
X0016138Y0339606D01*
X0016113Y0339702D01*
X0016091Y0339799D01*
X0016073Y0339896D01*
X0016059Y0339994D01*
X0016049Y0340093D01*
X0016043Y0340192D01*
X0016041Y0340291D01*
X0171797Y0026000D02*
X0171799Y0026172D01*
X0171805Y0026343D01*
X0171816Y0026515D01*
X0171831Y0026686D01*
X0171850Y0026857D01*
X0171873Y0027027D01*
X0171900Y0027197D01*
X0171932Y0027366D01*
X0171967Y0027534D01*
X0172007Y0027701D01*
X0172051Y0027867D01*
X0172098Y0028032D01*
X0172150Y0028196D01*
X0172206Y0028358D01*
X0172266Y0028519D01*
X0172330Y0028679D01*
X0172398Y0028837D01*
X0172469Y0028993D01*
X0172544Y0029147D01*
X0172624Y0029300D01*
X0172706Y0029450D01*
X0172793Y0029599D01*
X0172883Y0029745D01*
X0172977Y0029889D01*
X0173074Y0030031D01*
X0173175Y0030170D01*
X0173279Y0030307D01*
X0173386Y0030441D01*
X0173497Y0030572D01*
X0173610Y0030701D01*
X0173727Y0030827D01*
X0173847Y0030950D01*
X0173970Y0031070D01*
X0174096Y0031187D01*
X0174225Y0031300D01*
X0174356Y0031411D01*
X0174490Y0031518D01*
X0174627Y0031622D01*
X0174766Y0031723D01*
X0174908Y0031820D01*
X0175052Y0031914D01*
X0175198Y0032004D01*
X0175347Y0032091D01*
X0175497Y0032173D01*
X0175650Y0032253D01*
X0175804Y0032328D01*
X0175960Y0032399D01*
X0176118Y0032467D01*
X0176278Y0032531D01*
X0176439Y0032591D01*
X0176601Y0032647D01*
X0176765Y0032699D01*
X0176930Y0032746D01*
X0177096Y0032790D01*
X0177263Y0032830D01*
X0177431Y0032865D01*
X0177600Y0032897D01*
X0177770Y0032924D01*
X0177940Y0032947D01*
X0178111Y0032966D01*
X0178282Y0032981D01*
X0178454Y0032992D01*
X0178625Y0032998D01*
X0178797Y0033000D01*
X0178969Y0032998D01*
X0179140Y0032992D01*
X0179312Y0032981D01*
X0179483Y0032966D01*
X0179654Y0032947D01*
X0179824Y0032924D01*
X0179994Y0032897D01*
X0180163Y0032865D01*
X0180331Y0032830D01*
X0180498Y0032790D01*
X0180664Y0032746D01*
X0180829Y0032699D01*
X0180993Y0032647D01*
X0181155Y0032591D01*
X0181316Y0032531D01*
X0181476Y0032467D01*
X0181634Y0032399D01*
X0181790Y0032328D01*
X0181944Y0032253D01*
X0182097Y0032173D01*
X0182247Y0032091D01*
X0182396Y0032004D01*
X0182542Y0031914D01*
X0182686Y0031820D01*
X0182828Y0031723D01*
X0182967Y0031622D01*
X0183104Y0031518D01*
X0183238Y0031411D01*
X0183369Y0031300D01*
X0183498Y0031187D01*
X0183624Y0031070D01*
X0183747Y0030950D01*
X0183867Y0030827D01*
X0183984Y0030701D01*
X0184097Y0030572D01*
X0184208Y0030441D01*
X0184315Y0030307D01*
X0184419Y0030170D01*
X0184520Y0030031D01*
X0184617Y0029889D01*
X0184711Y0029745D01*
X0184801Y0029599D01*
X0184888Y0029450D01*
X0184970Y0029300D01*
X0185050Y0029147D01*
X0185125Y0028993D01*
X0185196Y0028837D01*
X0185264Y0028679D01*
X0185328Y0028519D01*
X0185388Y0028358D01*
X0185444Y0028196D01*
X0185496Y0028032D01*
X0185543Y0027867D01*
X0185587Y0027701D01*
X0185627Y0027534D01*
X0185662Y0027366D01*
X0185694Y0027197D01*
X0185721Y0027027D01*
X0185744Y0026857D01*
X0185763Y0026686D01*
X0185778Y0026515D01*
X0185789Y0026343D01*
X0185795Y0026172D01*
X0185797Y0026000D01*
X0185795Y0025828D01*
X0185789Y0025657D01*
X0185778Y0025485D01*
X0185763Y0025314D01*
X0185744Y0025143D01*
X0185721Y0024973D01*
X0185694Y0024803D01*
X0185662Y0024634D01*
X0185627Y0024466D01*
X0185587Y0024299D01*
X0185543Y0024133D01*
X0185496Y0023968D01*
X0185444Y0023804D01*
X0185388Y0023642D01*
X0185328Y0023481D01*
X0185264Y0023321D01*
X0185196Y0023163D01*
X0185125Y0023007D01*
X0185050Y0022853D01*
X0184970Y0022700D01*
X0184888Y0022550D01*
X0184801Y0022401D01*
X0184711Y0022255D01*
X0184617Y0022111D01*
X0184520Y0021969D01*
X0184419Y0021830D01*
X0184315Y0021693D01*
X0184208Y0021559D01*
X0184097Y0021428D01*
X0183984Y0021299D01*
X0183867Y0021173D01*
X0183747Y0021050D01*
X0183624Y0020930D01*
X0183498Y0020813D01*
X0183369Y0020700D01*
X0183238Y0020589D01*
X0183104Y0020482D01*
X0182967Y0020378D01*
X0182828Y0020277D01*
X0182686Y0020180D01*
X0182542Y0020086D01*
X0182396Y0019996D01*
X0182247Y0019909D01*
X0182097Y0019827D01*
X0181944Y0019747D01*
X0181790Y0019672D01*
X0181634Y0019601D01*
X0181476Y0019533D01*
X0181316Y0019469D01*
X0181155Y0019409D01*
X0180993Y0019353D01*
X0180829Y0019301D01*
X0180664Y0019254D01*
X0180498Y0019210D01*
X0180331Y0019170D01*
X0180163Y0019135D01*
X0179994Y0019103D01*
X0179824Y0019076D01*
X0179654Y0019053D01*
X0179483Y0019034D01*
X0179312Y0019019D01*
X0179140Y0019008D01*
X0178969Y0019002D01*
X0178797Y0019000D01*
X0178625Y0019002D01*
X0178454Y0019008D01*
X0178282Y0019019D01*
X0178111Y0019034D01*
X0177940Y0019053D01*
X0177770Y0019076D01*
X0177600Y0019103D01*
X0177431Y0019135D01*
X0177263Y0019170D01*
X0177096Y0019210D01*
X0176930Y0019254D01*
X0176765Y0019301D01*
X0176601Y0019353D01*
X0176439Y0019409D01*
X0176278Y0019469D01*
X0176118Y0019533D01*
X0175960Y0019601D01*
X0175804Y0019672D01*
X0175650Y0019747D01*
X0175497Y0019827D01*
X0175347Y0019909D01*
X0175198Y0019996D01*
X0175052Y0020086D01*
X0174908Y0020180D01*
X0174766Y0020277D01*
X0174627Y0020378D01*
X0174490Y0020482D01*
X0174356Y0020589D01*
X0174225Y0020700D01*
X0174096Y0020813D01*
X0173970Y0020930D01*
X0173847Y0021050D01*
X0173727Y0021173D01*
X0173610Y0021299D01*
X0173497Y0021428D01*
X0173386Y0021559D01*
X0173279Y0021693D01*
X0173175Y0021830D01*
X0173074Y0021969D01*
X0172977Y0022111D01*
X0172883Y0022255D01*
X0172793Y0022401D01*
X0172706Y0022550D01*
X0172624Y0022700D01*
X0172544Y0022853D01*
X0172469Y0023007D01*
X0172398Y0023163D01*
X0172330Y0023321D01*
X0172266Y0023481D01*
X0172206Y0023642D01*
X0172150Y0023804D01*
X0172098Y0023968D01*
X0172051Y0024133D01*
X0172007Y0024299D01*
X0171967Y0024466D01*
X0171932Y0024634D01*
X0171900Y0024803D01*
X0171873Y0024973D01*
X0171850Y0025143D01*
X0171831Y0025314D01*
X0171816Y0025485D01*
X0171805Y0025657D01*
X0171799Y0025828D01*
X0171797Y0026000D01*
X0176134Y0065023D02*
X0176136Y0065195D01*
X0176142Y0065366D01*
X0176153Y0065538D01*
X0176168Y0065709D01*
X0176187Y0065880D01*
X0176210Y0066050D01*
X0176237Y0066220D01*
X0176269Y0066389D01*
X0176304Y0066557D01*
X0176344Y0066724D01*
X0176388Y0066890D01*
X0176435Y0067055D01*
X0176487Y0067219D01*
X0176543Y0067381D01*
X0176603Y0067542D01*
X0176667Y0067702D01*
X0176735Y0067860D01*
X0176806Y0068016D01*
X0176881Y0068170D01*
X0176961Y0068323D01*
X0177043Y0068473D01*
X0177130Y0068622D01*
X0177220Y0068768D01*
X0177314Y0068912D01*
X0177411Y0069054D01*
X0177512Y0069193D01*
X0177616Y0069330D01*
X0177723Y0069464D01*
X0177834Y0069595D01*
X0177947Y0069724D01*
X0178064Y0069850D01*
X0178184Y0069973D01*
X0178307Y0070093D01*
X0178433Y0070210D01*
X0178562Y0070323D01*
X0178693Y0070434D01*
X0178827Y0070541D01*
X0178964Y0070645D01*
X0179103Y0070746D01*
X0179245Y0070843D01*
X0179389Y0070937D01*
X0179535Y0071027D01*
X0179684Y0071114D01*
X0179834Y0071196D01*
X0179987Y0071276D01*
X0180141Y0071351D01*
X0180297Y0071422D01*
X0180455Y0071490D01*
X0180615Y0071554D01*
X0180776Y0071614D01*
X0180938Y0071670D01*
X0181102Y0071722D01*
X0181267Y0071769D01*
X0181433Y0071813D01*
X0181600Y0071853D01*
X0181768Y0071888D01*
X0181937Y0071920D01*
X0182107Y0071947D01*
X0182277Y0071970D01*
X0182448Y0071989D01*
X0182619Y0072004D01*
X0182791Y0072015D01*
X0182962Y0072021D01*
X0183134Y0072023D01*
X0183306Y0072021D01*
X0183477Y0072015D01*
X0183649Y0072004D01*
X0183820Y0071989D01*
X0183991Y0071970D01*
X0184161Y0071947D01*
X0184331Y0071920D01*
X0184500Y0071888D01*
X0184668Y0071853D01*
X0184835Y0071813D01*
X0185001Y0071769D01*
X0185166Y0071722D01*
X0185330Y0071670D01*
X0185492Y0071614D01*
X0185653Y0071554D01*
X0185813Y0071490D01*
X0185971Y0071422D01*
X0186127Y0071351D01*
X0186281Y0071276D01*
X0186434Y0071196D01*
X0186584Y0071114D01*
X0186733Y0071027D01*
X0186879Y0070937D01*
X0187023Y0070843D01*
X0187165Y0070746D01*
X0187304Y0070645D01*
X0187441Y0070541D01*
X0187575Y0070434D01*
X0187706Y0070323D01*
X0187835Y0070210D01*
X0187961Y0070093D01*
X0188084Y0069973D01*
X0188204Y0069850D01*
X0188321Y0069724D01*
X0188434Y0069595D01*
X0188545Y0069464D01*
X0188652Y0069330D01*
X0188756Y0069193D01*
X0188857Y0069054D01*
X0188954Y0068912D01*
X0189048Y0068768D01*
X0189138Y0068622D01*
X0189225Y0068473D01*
X0189307Y0068323D01*
X0189387Y0068170D01*
X0189462Y0068016D01*
X0189533Y0067860D01*
X0189601Y0067702D01*
X0189665Y0067542D01*
X0189725Y0067381D01*
X0189781Y0067219D01*
X0189833Y0067055D01*
X0189880Y0066890D01*
X0189924Y0066724D01*
X0189964Y0066557D01*
X0189999Y0066389D01*
X0190031Y0066220D01*
X0190058Y0066050D01*
X0190081Y0065880D01*
X0190100Y0065709D01*
X0190115Y0065538D01*
X0190126Y0065366D01*
X0190132Y0065195D01*
X0190134Y0065023D01*
X0190132Y0064851D01*
X0190126Y0064680D01*
X0190115Y0064508D01*
X0190100Y0064337D01*
X0190081Y0064166D01*
X0190058Y0063996D01*
X0190031Y0063826D01*
X0189999Y0063657D01*
X0189964Y0063489D01*
X0189924Y0063322D01*
X0189880Y0063156D01*
X0189833Y0062991D01*
X0189781Y0062827D01*
X0189725Y0062665D01*
X0189665Y0062504D01*
X0189601Y0062344D01*
X0189533Y0062186D01*
X0189462Y0062030D01*
X0189387Y0061876D01*
X0189307Y0061723D01*
X0189225Y0061573D01*
X0189138Y0061424D01*
X0189048Y0061278D01*
X0188954Y0061134D01*
X0188857Y0060992D01*
X0188756Y0060853D01*
X0188652Y0060716D01*
X0188545Y0060582D01*
X0188434Y0060451D01*
X0188321Y0060322D01*
X0188204Y0060196D01*
X0188084Y0060073D01*
X0187961Y0059953D01*
X0187835Y0059836D01*
X0187706Y0059723D01*
X0187575Y0059612D01*
X0187441Y0059505D01*
X0187304Y0059401D01*
X0187165Y0059300D01*
X0187023Y0059203D01*
X0186879Y0059109D01*
X0186733Y0059019D01*
X0186584Y0058932D01*
X0186434Y0058850D01*
X0186281Y0058770D01*
X0186127Y0058695D01*
X0185971Y0058624D01*
X0185813Y0058556D01*
X0185653Y0058492D01*
X0185492Y0058432D01*
X0185330Y0058376D01*
X0185166Y0058324D01*
X0185001Y0058277D01*
X0184835Y0058233D01*
X0184668Y0058193D01*
X0184500Y0058158D01*
X0184331Y0058126D01*
X0184161Y0058099D01*
X0183991Y0058076D01*
X0183820Y0058057D01*
X0183649Y0058042D01*
X0183477Y0058031D01*
X0183306Y0058025D01*
X0183134Y0058023D01*
X0182962Y0058025D01*
X0182791Y0058031D01*
X0182619Y0058042D01*
X0182448Y0058057D01*
X0182277Y0058076D01*
X0182107Y0058099D01*
X0181937Y0058126D01*
X0181768Y0058158D01*
X0181600Y0058193D01*
X0181433Y0058233D01*
X0181267Y0058277D01*
X0181102Y0058324D01*
X0180938Y0058376D01*
X0180776Y0058432D01*
X0180615Y0058492D01*
X0180455Y0058556D01*
X0180297Y0058624D01*
X0180141Y0058695D01*
X0179987Y0058770D01*
X0179834Y0058850D01*
X0179684Y0058932D01*
X0179535Y0059019D01*
X0179389Y0059109D01*
X0179245Y0059203D01*
X0179103Y0059300D01*
X0178964Y0059401D01*
X0178827Y0059505D01*
X0178693Y0059612D01*
X0178562Y0059723D01*
X0178433Y0059836D01*
X0178307Y0059953D01*
X0178184Y0060073D01*
X0178064Y0060196D01*
X0177947Y0060322D01*
X0177834Y0060451D01*
X0177723Y0060582D01*
X0177616Y0060716D01*
X0177512Y0060853D01*
X0177411Y0060992D01*
X0177314Y0061134D01*
X0177220Y0061278D01*
X0177130Y0061424D01*
X0177043Y0061573D01*
X0176961Y0061723D01*
X0176881Y0061876D01*
X0176806Y0062030D01*
X0176735Y0062186D01*
X0176667Y0062344D01*
X0176603Y0062504D01*
X0176543Y0062665D01*
X0176487Y0062827D01*
X0176435Y0062991D01*
X0176388Y0063156D01*
X0176344Y0063322D01*
X0176304Y0063489D01*
X0176269Y0063657D01*
X0176237Y0063826D01*
X0176210Y0063996D01*
X0176187Y0064166D01*
X0176168Y0064337D01*
X0176153Y0064508D01*
X0176142Y0064680D01*
X0176136Y0064851D01*
X0176134Y0065023D01*
X0176344Y0089198D02*
X0176346Y0089370D01*
X0176352Y0089541D01*
X0176363Y0089713D01*
X0176378Y0089884D01*
X0176397Y0090055D01*
X0176420Y0090225D01*
X0176447Y0090395D01*
X0176479Y0090564D01*
X0176514Y0090732D01*
X0176554Y0090899D01*
X0176598Y0091065D01*
X0176645Y0091230D01*
X0176697Y0091394D01*
X0176753Y0091556D01*
X0176813Y0091717D01*
X0176877Y0091877D01*
X0176945Y0092035D01*
X0177016Y0092191D01*
X0177091Y0092345D01*
X0177171Y0092498D01*
X0177253Y0092648D01*
X0177340Y0092797D01*
X0177430Y0092943D01*
X0177524Y0093087D01*
X0177621Y0093229D01*
X0177722Y0093368D01*
X0177826Y0093505D01*
X0177933Y0093639D01*
X0178044Y0093770D01*
X0178157Y0093899D01*
X0178274Y0094025D01*
X0178394Y0094148D01*
X0178517Y0094268D01*
X0178643Y0094385D01*
X0178772Y0094498D01*
X0178903Y0094609D01*
X0179037Y0094716D01*
X0179174Y0094820D01*
X0179313Y0094921D01*
X0179455Y0095018D01*
X0179599Y0095112D01*
X0179745Y0095202D01*
X0179894Y0095289D01*
X0180044Y0095371D01*
X0180197Y0095451D01*
X0180351Y0095526D01*
X0180507Y0095597D01*
X0180665Y0095665D01*
X0180825Y0095729D01*
X0180986Y0095789D01*
X0181148Y0095845D01*
X0181312Y0095897D01*
X0181477Y0095944D01*
X0181643Y0095988D01*
X0181810Y0096028D01*
X0181978Y0096063D01*
X0182147Y0096095D01*
X0182317Y0096122D01*
X0182487Y0096145D01*
X0182658Y0096164D01*
X0182829Y0096179D01*
X0183001Y0096190D01*
X0183172Y0096196D01*
X0183344Y0096198D01*
X0183516Y0096196D01*
X0183687Y0096190D01*
X0183859Y0096179D01*
X0184030Y0096164D01*
X0184201Y0096145D01*
X0184371Y0096122D01*
X0184541Y0096095D01*
X0184710Y0096063D01*
X0184878Y0096028D01*
X0185045Y0095988D01*
X0185211Y0095944D01*
X0185376Y0095897D01*
X0185540Y0095845D01*
X0185702Y0095789D01*
X0185863Y0095729D01*
X0186023Y0095665D01*
X0186181Y0095597D01*
X0186337Y0095526D01*
X0186491Y0095451D01*
X0186644Y0095371D01*
X0186794Y0095289D01*
X0186943Y0095202D01*
X0187089Y0095112D01*
X0187233Y0095018D01*
X0187375Y0094921D01*
X0187514Y0094820D01*
X0187651Y0094716D01*
X0187785Y0094609D01*
X0187916Y0094498D01*
X0188045Y0094385D01*
X0188171Y0094268D01*
X0188294Y0094148D01*
X0188414Y0094025D01*
X0188531Y0093899D01*
X0188644Y0093770D01*
X0188755Y0093639D01*
X0188862Y0093505D01*
X0188966Y0093368D01*
X0189067Y0093229D01*
X0189164Y0093087D01*
X0189258Y0092943D01*
X0189348Y0092797D01*
X0189435Y0092648D01*
X0189517Y0092498D01*
X0189597Y0092345D01*
X0189672Y0092191D01*
X0189743Y0092035D01*
X0189811Y0091877D01*
X0189875Y0091717D01*
X0189935Y0091556D01*
X0189991Y0091394D01*
X0190043Y0091230D01*
X0190090Y0091065D01*
X0190134Y0090899D01*
X0190174Y0090732D01*
X0190209Y0090564D01*
X0190241Y0090395D01*
X0190268Y0090225D01*
X0190291Y0090055D01*
X0190310Y0089884D01*
X0190325Y0089713D01*
X0190336Y0089541D01*
X0190342Y0089370D01*
X0190344Y0089198D01*
X0190342Y0089026D01*
X0190336Y0088855D01*
X0190325Y0088683D01*
X0190310Y0088512D01*
X0190291Y0088341D01*
X0190268Y0088171D01*
X0190241Y0088001D01*
X0190209Y0087832D01*
X0190174Y0087664D01*
X0190134Y0087497D01*
X0190090Y0087331D01*
X0190043Y0087166D01*
X0189991Y0087002D01*
X0189935Y0086840D01*
X0189875Y0086679D01*
X0189811Y0086519D01*
X0189743Y0086361D01*
X0189672Y0086205D01*
X0189597Y0086051D01*
X0189517Y0085898D01*
X0189435Y0085748D01*
X0189348Y0085599D01*
X0189258Y0085453D01*
X0189164Y0085309D01*
X0189067Y0085167D01*
X0188966Y0085028D01*
X0188862Y0084891D01*
X0188755Y0084757D01*
X0188644Y0084626D01*
X0188531Y0084497D01*
X0188414Y0084371D01*
X0188294Y0084248D01*
X0188171Y0084128D01*
X0188045Y0084011D01*
X0187916Y0083898D01*
X0187785Y0083787D01*
X0187651Y0083680D01*
X0187514Y0083576D01*
X0187375Y0083475D01*
X0187233Y0083378D01*
X0187089Y0083284D01*
X0186943Y0083194D01*
X0186794Y0083107D01*
X0186644Y0083025D01*
X0186491Y0082945D01*
X0186337Y0082870D01*
X0186181Y0082799D01*
X0186023Y0082731D01*
X0185863Y0082667D01*
X0185702Y0082607D01*
X0185540Y0082551D01*
X0185376Y0082499D01*
X0185211Y0082452D01*
X0185045Y0082408D01*
X0184878Y0082368D01*
X0184710Y0082333D01*
X0184541Y0082301D01*
X0184371Y0082274D01*
X0184201Y0082251D01*
X0184030Y0082232D01*
X0183859Y0082217D01*
X0183687Y0082206D01*
X0183516Y0082200D01*
X0183344Y0082198D01*
X0183172Y0082200D01*
X0183001Y0082206D01*
X0182829Y0082217D01*
X0182658Y0082232D01*
X0182487Y0082251D01*
X0182317Y0082274D01*
X0182147Y0082301D01*
X0181978Y0082333D01*
X0181810Y0082368D01*
X0181643Y0082408D01*
X0181477Y0082452D01*
X0181312Y0082499D01*
X0181148Y0082551D01*
X0180986Y0082607D01*
X0180825Y0082667D01*
X0180665Y0082731D01*
X0180507Y0082799D01*
X0180351Y0082870D01*
X0180197Y0082945D01*
X0180044Y0083025D01*
X0179894Y0083107D01*
X0179745Y0083194D01*
X0179599Y0083284D01*
X0179455Y0083378D01*
X0179313Y0083475D01*
X0179174Y0083576D01*
X0179037Y0083680D01*
X0178903Y0083787D01*
X0178772Y0083898D01*
X0178643Y0084011D01*
X0178517Y0084128D01*
X0178394Y0084248D01*
X0178274Y0084371D01*
X0178157Y0084497D01*
X0178044Y0084626D01*
X0177933Y0084757D01*
X0177826Y0084891D01*
X0177722Y0085028D01*
X0177621Y0085167D01*
X0177524Y0085309D01*
X0177430Y0085453D01*
X0177340Y0085599D01*
X0177253Y0085748D01*
X0177171Y0085898D01*
X0177091Y0086051D01*
X0177016Y0086205D01*
X0176945Y0086361D01*
X0176877Y0086519D01*
X0176813Y0086679D01*
X0176753Y0086840D01*
X0176697Y0087002D01*
X0176645Y0087166D01*
X0176598Y0087331D01*
X0176554Y0087497D01*
X0176514Y0087664D01*
X0176479Y0087832D01*
X0176447Y0088001D01*
X0176420Y0088171D01*
X0176397Y0088341D01*
X0176378Y0088512D01*
X0176363Y0088683D01*
X0176352Y0088855D01*
X0176346Y0089026D01*
X0176344Y0089198D01*
D11*
X0179134Y0334936D02*
X0179134Y0344144D01*
X0174531Y0344144D01*
X0172996Y0342609D01*
X0172996Y0339540D01*
X0174531Y0338005D01*
X0179134Y0338005D01*
X0182204Y0339540D02*
X0188342Y0339540D01*
X0188342Y0341075D02*
X0185273Y0344144D01*
X0182204Y0341075D01*
X0182204Y0334936D01*
X0188342Y0334936D02*
X0188342Y0341075D01*
X0191412Y0344144D02*
X0197550Y0344144D01*
X0194481Y0344144D02*
X0194481Y0334936D01*
X0169927Y0336471D02*
X0168392Y0334936D01*
X0165323Y0334936D01*
X0163788Y0336471D01*
X0163788Y0344144D01*
X0160719Y0344144D02*
X0157649Y0344144D01*
X0159184Y0344144D02*
X0159184Y0334936D01*
X0160719Y0334936D02*
X0157649Y0334936D01*
X0154580Y0334936D02*
X0154580Y0344144D01*
X0148442Y0334936D01*
X0148442Y0344144D01*
X0145372Y0342609D02*
X0145372Y0336471D01*
X0143838Y0334936D01*
X0140768Y0334936D01*
X0139234Y0336471D01*
X0139234Y0342609D01*
X0140768Y0344144D01*
X0143838Y0344144D01*
X0145372Y0342609D01*
X0126957Y0344144D02*
X0126957Y0334936D01*
X0126957Y0338005D02*
X0122353Y0338005D01*
X0120818Y0339540D01*
X0120818Y0342609D01*
X0122353Y0344144D01*
X0126957Y0344144D01*
X0123887Y0338005D02*
X0120818Y0334936D01*
X0117749Y0334936D02*
X0111610Y0334936D01*
X0108541Y0334936D02*
X0102402Y0334936D01*
X0099333Y0336471D02*
X0099333Y0342609D01*
X0097798Y0344144D01*
X0094729Y0344144D01*
X0093194Y0342609D01*
X0093194Y0336471D01*
X0094729Y0334936D01*
X0097798Y0334936D01*
X0099333Y0336471D01*
X0090125Y0334936D02*
X0090125Y0341075D01*
X0087056Y0344144D01*
X0083987Y0341075D01*
X0083987Y0334936D01*
X0080917Y0334936D02*
X0076313Y0334936D01*
X0074779Y0336471D01*
X0074779Y0342609D01*
X0076313Y0344144D01*
X0080917Y0344144D01*
X0080917Y0334936D01*
X0083987Y0339540D02*
X0090125Y0339540D01*
X0071709Y0339540D02*
X0068640Y0339540D01*
X0065571Y0344144D02*
X0071709Y0344144D01*
X0071709Y0334936D01*
X0065571Y0334936D01*
X0062502Y0334936D02*
X0057898Y0334936D01*
X0056363Y0336471D01*
X0056363Y0342609D01*
X0057898Y0344144D01*
X0062502Y0344144D01*
X0062502Y0334936D01*
X0044086Y0341075D02*
X0041017Y0334936D01*
X0037947Y0341075D01*
X0034878Y0342609D02*
X0033343Y0344144D01*
X0030274Y0344144D01*
X0028739Y0342609D01*
X0034878Y0336471D01*
X0033343Y0334936D01*
X0030274Y0334936D01*
X0028739Y0336471D01*
X0028739Y0342609D01*
X0025670Y0336471D02*
X0024136Y0336471D01*
X0024136Y0334936D01*
X0025670Y0334936D01*
X0025670Y0336471D01*
X0021066Y0336471D02*
X0019532Y0334936D01*
X0016462Y0334936D01*
X0014928Y0336471D01*
X0014928Y0338005D01*
X0016462Y0339540D01*
X0017997Y0339540D01*
X0016462Y0339540D02*
X0014928Y0341075D01*
X0014928Y0342609D01*
X0016462Y0344144D01*
X0019532Y0344144D01*
X0021066Y0342609D01*
X0034878Y0342609D02*
X0034878Y0336471D01*
X0108541Y0334936D02*
X0108541Y0344144D01*
X0111610Y0344144D02*
X0117749Y0344144D01*
X0117749Y0334936D01*
X0117749Y0339540D02*
X0114679Y0339540D01*
X0169927Y0336471D02*
X0169927Y0344144D01*
D12*
X0140701Y0278304D02*
X0139166Y0276769D01*
X0137631Y0278304D01*
X0137631Y0273700D01*
X0136097Y0273700D02*
X0133028Y0276769D01*
X0133028Y0277537D01*
X0133795Y0278304D01*
X0135330Y0278304D01*
X0136097Y0277537D01*
X0136097Y0273700D02*
X0133028Y0273700D01*
X0140701Y0273700D02*
X0140701Y0278304D01*
X0162145Y0156479D02*
X0162145Y0152642D01*
X0162913Y0151875D01*
X0163680Y0151875D01*
X0164447Y0151281D02*
X0164447Y0150513D01*
X0164447Y0148979D02*
X0164447Y0145909D01*
X0163680Y0145909D02*
X0165215Y0145909D01*
X0165215Y0148979D02*
X0164447Y0148979D01*
X0166749Y0148979D02*
X0167516Y0148979D01*
X0169051Y0147444D01*
X0169051Y0145909D02*
X0169051Y0148979D01*
X0170586Y0149746D02*
X0170586Y0146677D01*
X0171353Y0145909D01*
X0173655Y0145909D01*
X0173655Y0150513D01*
X0171353Y0150513D01*
X0170586Y0149746D01*
X0169818Y0153409D02*
X0167516Y0153409D01*
X0166749Y0154177D01*
X0166749Y0155711D01*
X0167516Y0156479D01*
X0169818Y0156479D01*
X0169818Y0158013D02*
X0169818Y0153409D01*
X0175957Y0153409D02*
X0178259Y0154944D01*
X0175957Y0156479D01*
X0178259Y0158013D02*
X0178259Y0153409D01*
X0179794Y0156479D02*
X0180561Y0156479D01*
X0182096Y0154944D01*
X0182096Y0153409D02*
X0182096Y0156479D01*
X0183630Y0155711D02*
X0184398Y0156479D01*
X0185932Y0156479D01*
X0186699Y0155711D01*
X0186699Y0154177D01*
X0185932Y0153409D01*
X0184398Y0153409D01*
X0183630Y0154177D01*
X0183630Y0155711D01*
X0182863Y0148979D02*
X0181328Y0145909D01*
X0179794Y0148979D01*
X0178259Y0148979D02*
X0178259Y0146677D01*
X0177492Y0145909D01*
X0175190Y0145909D01*
X0175190Y0145142D02*
X0175957Y0144375D01*
X0176724Y0144375D01*
X0175190Y0145142D02*
X0175190Y0148979D01*
X0171353Y0143013D02*
X0169818Y0141479D01*
X0169818Y0138409D01*
X0168284Y0138409D02*
X0168284Y0141479D01*
X0168284Y0139944D02*
X0166749Y0141479D01*
X0165982Y0141479D01*
X0163680Y0141479D02*
X0162145Y0141479D01*
X0161378Y0140711D01*
X0161378Y0138409D01*
X0163680Y0138409D01*
X0164447Y0139177D01*
X0163680Y0139944D01*
X0161378Y0139944D01*
X0159843Y0138409D02*
X0159843Y0141479D01*
X0157541Y0141479D01*
X0156774Y0140711D01*
X0156774Y0138409D01*
X0155239Y0139177D02*
X0154472Y0139944D01*
X0152170Y0139944D01*
X0152170Y0140711D02*
X0152170Y0138409D01*
X0154472Y0138409D01*
X0155239Y0139177D01*
X0154472Y0141479D02*
X0152937Y0141479D01*
X0152170Y0140711D01*
X0151403Y0145909D02*
X0151403Y0148979D01*
X0151403Y0147444D02*
X0149868Y0148979D01*
X0149101Y0148979D01*
X0146799Y0146677D02*
X0146799Y0145909D01*
X0146032Y0145909D01*
X0146032Y0146677D01*
X0146799Y0146677D01*
X0146032Y0145909D02*
X0147566Y0144375D01*
X0152937Y0147444D02*
X0156007Y0147444D01*
X0156007Y0146677D02*
X0156007Y0148211D01*
X0155239Y0148979D01*
X0153705Y0148979D01*
X0152937Y0148211D01*
X0152937Y0147444D01*
X0153705Y0145909D02*
X0155239Y0145909D01*
X0156007Y0146677D01*
X0157541Y0145909D02*
X0158309Y0146677D01*
X0158309Y0149746D01*
X0159076Y0148979D02*
X0157541Y0148979D01*
X0160611Y0148211D02*
X0162145Y0148211D01*
X0161378Y0149746D02*
X0161378Y0145909D01*
X0161378Y0149746D02*
X0160611Y0150513D01*
X0162145Y0153409D02*
X0164447Y0153409D01*
X0165215Y0154177D01*
X0165215Y0156479D01*
X0171353Y0143013D02*
X0172888Y0141479D01*
X0172888Y0138409D01*
X0172888Y0140711D02*
X0169818Y0140711D01*
X0179026Y0141479D02*
X0179026Y0138409D01*
X0181328Y0138409D01*
X0182096Y0139177D01*
X0182096Y0141479D01*
X0183630Y0141479D02*
X0185932Y0141479D01*
X0186699Y0140711D01*
X0186699Y0139177D01*
X0185932Y0138409D01*
X0183630Y0138409D01*
X0183630Y0143013D01*
X0185165Y0145909D02*
X0184398Y0146677D01*
X0184398Y0148211D01*
X0185165Y0148979D01*
X0186699Y0148979D01*
X0187467Y0148211D01*
X0187467Y0146677D01*
X0186699Y0145909D01*
X0185165Y0145909D01*
X0188234Y0143013D02*
X0191303Y0143013D01*
X0191303Y0138409D01*
X0188234Y0138409D01*
X0189769Y0140711D02*
X0191303Y0140711D01*
X0191303Y0145909D02*
X0189769Y0145909D01*
X0189001Y0146677D01*
X0189001Y0148211D01*
X0189769Y0148979D01*
X0191303Y0148979D01*
X0192071Y0148211D01*
X0192071Y0146677D01*
X0191303Y0145909D01*
X0193605Y0148979D02*
X0194373Y0148979D01*
X0195907Y0147444D01*
X0195907Y0145909D02*
X0195907Y0148979D01*
X0197442Y0149746D02*
X0198209Y0150513D01*
X0199744Y0150513D01*
X0200511Y0149746D01*
X0200511Y0146677D01*
X0199744Y0145909D01*
X0198209Y0145909D01*
X0197442Y0146677D01*
X0197442Y0148211D01*
X0198977Y0148211D01*
X0199744Y0143013D02*
X0198977Y0142246D01*
X0198977Y0141479D01*
X0200511Y0139944D01*
X0200511Y0139177D01*
X0199744Y0138409D01*
X0198977Y0138409D01*
X0197442Y0139944D01*
X0197442Y0138409D02*
X0200511Y0141479D01*
X0200511Y0142246D01*
X0199744Y0143013D01*
X0200511Y0153409D02*
X0200511Y0158013D01*
X0198209Y0158013D01*
X0197442Y0157246D01*
X0197442Y0155711D01*
X0198209Y0154944D01*
X0200511Y0154944D01*
X0198977Y0154944D02*
X0197442Y0153409D01*
X0195907Y0154177D02*
X0195907Y0155711D01*
X0195140Y0156479D01*
X0193605Y0156479D01*
X0192838Y0155711D01*
X0192838Y0154944D01*
X0195907Y0154944D01*
X0195907Y0154177D02*
X0195140Y0153409D01*
X0193605Y0153409D01*
X0191303Y0154177D02*
X0191303Y0156479D01*
X0191303Y0154177D02*
X0190536Y0153409D01*
X0189769Y0154177D01*
X0189001Y0153409D01*
X0188234Y0154177D01*
X0188234Y0156479D01*
X0179026Y0128013D02*
X0179026Y0123409D01*
X0181328Y0123409D01*
X0182096Y0124177D01*
X0182096Y0125711D01*
X0181328Y0126479D01*
X0179026Y0126479D01*
X0183630Y0125711D02*
X0183630Y0124944D01*
X0186699Y0124944D01*
X0186699Y0124177D02*
X0186699Y0125711D01*
X0185932Y0126479D01*
X0184398Y0126479D01*
X0183630Y0125711D01*
X0184398Y0123409D02*
X0185932Y0123409D01*
X0186699Y0124177D01*
X0188234Y0124177D02*
X0189001Y0124944D01*
X0190536Y0124944D01*
X0191303Y0125711D01*
X0190536Y0126479D01*
X0188234Y0126479D01*
X0188234Y0124177D02*
X0189001Y0123409D01*
X0191303Y0123409D01*
X0192838Y0123409D02*
X0195140Y0123409D01*
X0195907Y0124177D01*
X0195140Y0124944D01*
X0192838Y0124944D01*
X0192838Y0125711D02*
X0192838Y0123409D01*
X0192838Y0125711D02*
X0193605Y0126479D01*
X0195140Y0126479D01*
X0197442Y0126479D02*
X0198209Y0125711D01*
X0200511Y0125711D01*
X0200511Y0123409D02*
X0200511Y0128013D01*
X0198209Y0128013D01*
X0197442Y0127246D01*
X0197442Y0126479D01*
X0198209Y0125711D02*
X0197442Y0124944D01*
X0197442Y0124177D01*
X0198209Y0123409D01*
X0200511Y0123409D01*
X0200511Y0120513D02*
X0198209Y0120513D01*
X0197442Y0119746D01*
X0197442Y0118211D01*
X0198209Y0117444D01*
X0200511Y0117444D01*
X0200511Y0115909D02*
X0200511Y0120513D01*
X0195907Y0118211D02*
X0195140Y0118979D01*
X0193605Y0118979D01*
X0192838Y0118211D01*
X0192838Y0117444D01*
X0195907Y0117444D01*
X0195907Y0116677D02*
X0195907Y0118211D01*
X0195907Y0116677D02*
X0195140Y0115909D01*
X0193605Y0115909D01*
X0193605Y0113013D02*
X0193605Y0108409D01*
X0195140Y0108409D02*
X0195907Y0108409D01*
X0195907Y0109177D01*
X0195140Y0109177D01*
X0195140Y0108409D01*
X0193605Y0109944D02*
X0190536Y0113013D01*
X0189769Y0115909D02*
X0190536Y0116677D01*
X0190536Y0119746D01*
X0191303Y0118979D02*
X0189769Y0118979D01*
X0188234Y0118211D02*
X0187467Y0118979D01*
X0185932Y0118979D01*
X0185165Y0118211D01*
X0185165Y0117444D01*
X0188234Y0117444D01*
X0188234Y0116677D02*
X0188234Y0118211D01*
X0188234Y0116677D02*
X0187467Y0115909D01*
X0185932Y0115909D01*
X0183630Y0115909D02*
X0183630Y0118979D01*
X0182096Y0118979D02*
X0183630Y0117444D01*
X0182096Y0118979D02*
X0181328Y0118979D01*
X0185165Y0113013D02*
X0183630Y0111479D01*
X0183630Y0108409D01*
X0182096Y0108409D02*
X0181328Y0108409D01*
X0181328Y0109177D01*
X0182096Y0109177D01*
X0182096Y0108409D01*
X0183630Y0110711D02*
X0186699Y0110711D01*
X0186699Y0111479D02*
X0185165Y0113013D01*
X0186699Y0111479D02*
X0186699Y0108409D01*
X0188234Y0108409D02*
X0189001Y0108409D01*
X0189001Y0109177D01*
X0188234Y0109177D01*
X0188234Y0108409D01*
X0190536Y0108409D02*
X0192838Y0110711D01*
X0197442Y0110711D02*
X0200511Y0110711D01*
X0200511Y0111479D02*
X0198977Y0113013D01*
X0197442Y0111479D01*
X0197442Y0108409D01*
X0200511Y0108409D02*
X0200511Y0111479D01*
X0175190Y0110711D02*
X0174422Y0111479D01*
X0172120Y0111479D01*
X0170586Y0111479D02*
X0170586Y0109177D01*
X0169818Y0108409D01*
X0169051Y0109177D01*
X0168284Y0108409D01*
X0167516Y0109177D01*
X0167516Y0111479D01*
X0165982Y0110711D02*
X0165215Y0111479D01*
X0163680Y0111479D01*
X0162913Y0110711D01*
X0162913Y0109944D01*
X0165982Y0109944D01*
X0165982Y0109177D02*
X0165982Y0110711D01*
X0165982Y0109177D02*
X0165215Y0108409D01*
X0163680Y0108409D01*
X0161378Y0109177D02*
X0161378Y0110711D01*
X0160611Y0111479D01*
X0159076Y0111479D01*
X0158309Y0110711D01*
X0158309Y0109944D01*
X0161378Y0109944D01*
X0161378Y0109177D02*
X0160611Y0108409D01*
X0159076Y0108409D01*
X0156007Y0109177D02*
X0155239Y0108409D01*
X0156007Y0109177D02*
X0156007Y0112246D01*
X0156774Y0111479D02*
X0155239Y0111479D01*
X0153705Y0113013D02*
X0152937Y0113013D01*
X0152937Y0108409D01*
X0152170Y0108409D02*
X0153705Y0108409D01*
X0152170Y0115909D02*
X0152937Y0116677D01*
X0152937Y0118211D01*
X0152170Y0118979D01*
X0149868Y0118979D01*
X0149868Y0120513D02*
X0149868Y0115909D01*
X0152170Y0115909D01*
X0149868Y0113781D02*
X0149868Y0113013D01*
X0149868Y0111479D02*
X0149868Y0108409D01*
X0150635Y0108409D02*
X0149101Y0108409D01*
X0147566Y0108409D02*
X0146032Y0108409D01*
X0146799Y0108409D02*
X0146799Y0113013D01*
X0147566Y0113013D01*
X0149868Y0111479D02*
X0150635Y0111479D01*
X0148333Y0115909D02*
X0146031Y0115909D01*
X0145264Y0116677D01*
X0146031Y0117444D01*
X0147566Y0117444D01*
X0148333Y0118211D01*
X0147566Y0118979D01*
X0145264Y0118979D01*
X0141428Y0123409D02*
X0142195Y0124177D01*
X0142195Y0126479D01*
X0140660Y0124177D02*
X0139893Y0123409D01*
X0139126Y0124177D01*
X0139126Y0126479D01*
X0137591Y0125711D02*
X0137591Y0124177D01*
X0136824Y0123409D01*
X0135289Y0123409D01*
X0134522Y0124177D01*
X0134522Y0125711D01*
X0135289Y0126479D01*
X0136824Y0126479D01*
X0137591Y0125711D01*
X0140660Y0124177D02*
X0141428Y0123409D01*
X0148333Y0124944D02*
X0151403Y0124944D01*
X0151403Y0124177D02*
X0151403Y0125711D01*
X0150635Y0126479D01*
X0149101Y0126479D01*
X0148333Y0125711D01*
X0148333Y0124944D01*
X0149101Y0123409D02*
X0150635Y0123409D01*
X0151403Y0124177D01*
X0152937Y0123409D02*
X0152937Y0125711D01*
X0153705Y0126479D01*
X0155239Y0126479D01*
X0156007Y0125711D01*
X0157541Y0126479D02*
X0159076Y0126479D01*
X0158309Y0127246D02*
X0158309Y0124177D01*
X0157541Y0123409D01*
X0156007Y0123409D02*
X0156007Y0128013D01*
X0156774Y0118979D02*
X0156774Y0115909D01*
X0158309Y0115909D02*
X0158309Y0118211D01*
X0159076Y0118979D01*
X0160611Y0118979D01*
X0160611Y0117444D02*
X0158309Y0117444D01*
X0158309Y0115909D02*
X0160611Y0115909D01*
X0161378Y0116677D01*
X0160611Y0117444D01*
X0162913Y0116677D02*
X0162913Y0118979D01*
X0162913Y0116677D02*
X0163680Y0115909D01*
X0164447Y0116677D01*
X0165215Y0115909D01*
X0165982Y0116677D01*
X0165982Y0118979D01*
X0167516Y0118979D02*
X0169818Y0118979D01*
X0170586Y0118211D01*
X0170586Y0116677D01*
X0169818Y0115909D01*
X0167516Y0115909D01*
X0167516Y0120513D01*
X0168284Y0123409D02*
X0168284Y0126479D01*
X0165982Y0126479D01*
X0165215Y0125711D01*
X0165215Y0123409D01*
X0169818Y0124177D02*
X0169818Y0125711D01*
X0170586Y0126479D01*
X0172120Y0126479D01*
X0172888Y0125711D01*
X0172888Y0124177D01*
X0172120Y0123409D01*
X0170586Y0123409D01*
X0169818Y0124177D01*
X0172120Y0120513D02*
X0175190Y0120513D01*
X0175190Y0115909D01*
X0172120Y0115909D01*
X0173655Y0118211D02*
X0175190Y0118211D01*
X0175190Y0110711D02*
X0174422Y0109944D01*
X0172888Y0109944D01*
X0172120Y0109177D01*
X0172888Y0108409D01*
X0175190Y0108409D01*
X0156774Y0117444D02*
X0155239Y0118979D01*
X0154472Y0118979D01*
X0144497Y0111479D02*
X0143730Y0111479D01*
X0142962Y0110711D01*
X0142195Y0111479D01*
X0141428Y0110711D01*
X0141428Y0108409D01*
X0142962Y0108409D02*
X0142962Y0110711D01*
X0144497Y0111479D02*
X0144497Y0108409D01*
X0139893Y0108409D02*
X0139893Y0111479D01*
X0138358Y0111479D02*
X0137591Y0111479D01*
X0138358Y0111479D02*
X0139893Y0109944D01*
X0136056Y0109944D02*
X0132987Y0109944D01*
X0132987Y0110711D01*
X0133754Y0111479D01*
X0135289Y0111479D01*
X0136056Y0110711D01*
X0136056Y0109177D01*
X0135289Y0108409D01*
X0133754Y0108409D01*
X0132987Y0123409D02*
X0132987Y0126479D01*
X0132987Y0124944D02*
X0131452Y0126479D01*
X0130685Y0126479D01*
X0129150Y0128013D02*
X0129150Y0123409D01*
X0129150Y0124944D02*
X0126848Y0126479D01*
X0129150Y0124944D02*
X0126848Y0123409D01*
X0120710Y0124177D02*
X0119943Y0123409D01*
X0118408Y0123409D01*
X0117641Y0124177D01*
X0117641Y0125711D01*
X0118408Y0126479D01*
X0119943Y0126479D01*
X0120710Y0125711D01*
X0120710Y0124177D01*
X0116106Y0125711D02*
X0114571Y0125711D01*
X0115339Y0127246D02*
X0114571Y0128013D01*
X0115339Y0127246D02*
X0115339Y0123409D01*
X0115339Y0145909D02*
X0113037Y0145909D01*
X0112269Y0146677D01*
X0113037Y0147444D01*
X0114571Y0147444D01*
X0115339Y0148211D01*
X0114571Y0148979D01*
X0112269Y0148979D01*
X0116873Y0148211D02*
X0116873Y0145909D01*
X0119175Y0145909D01*
X0119943Y0146677D01*
X0119175Y0147444D01*
X0116873Y0147444D01*
X0116873Y0148211D02*
X0117641Y0148979D01*
X0119175Y0148979D01*
X0121477Y0148979D02*
X0123779Y0148979D01*
X0124547Y0148211D01*
X0124547Y0146677D01*
X0123779Y0145909D01*
X0121477Y0145909D01*
X0126081Y0145909D02*
X0127616Y0145909D01*
X0126848Y0145909D02*
X0126848Y0150513D01*
X0127616Y0150513D01*
X0129918Y0150513D02*
X0129918Y0151281D01*
X0129918Y0148979D02*
X0129918Y0145909D01*
X0130685Y0145909D02*
X0129150Y0145909D01*
X0129918Y0148979D02*
X0130685Y0148979D01*
X0132220Y0148979D02*
X0132220Y0145142D01*
X0132987Y0144375D01*
X0133754Y0144375D01*
X0134522Y0145909D02*
X0132220Y0145909D01*
X0134522Y0145909D02*
X0135289Y0146677D01*
X0135289Y0148211D01*
X0134522Y0148979D01*
X0132220Y0148979D01*
X0136824Y0150513D02*
X0138358Y0150513D01*
X0137591Y0150513D02*
X0137591Y0146677D01*
X0138358Y0145909D01*
X0139126Y0145909D01*
X0139893Y0146677D01*
D13*
X0050570Y0102816D03*
D14*
X0050514Y0102788D03*
X0026882Y0102676D03*
D15*
X0050458Y0102760D03*
D16*
X0050402Y0102760D03*
X0040602Y0102760D03*
D17*
X0036850Y0102732D03*
X0027050Y0102732D03*
X0050346Y0102732D03*
D18*
X0050290Y0102760D03*
X0046762Y0102760D03*
X0040546Y0102760D03*
X0040490Y0102760D03*
X0030746Y0102760D03*
X0030690Y0102760D03*
X0027162Y0102760D03*
X0024754Y0103880D03*
D19*
X0036906Y0102760D03*
X0050234Y0102760D03*
D20*
X0050178Y0102788D03*
X0046818Y0102788D03*
X0037018Y0102788D03*
X0036962Y0102788D03*
X0031698Y0103628D03*
X0027218Y0102788D03*
X0021786Y0103572D03*
D21*
X0050122Y0102872D03*
D22*
X0050066Y0102928D03*
X0049394Y0103544D03*
X0046986Y0102872D03*
X0037130Y0102872D03*
X0030522Y0102872D03*
X0027386Y0102872D03*
D23*
X0030410Y0102928D03*
X0037242Y0102928D03*
X0040042Y0102984D03*
X0040210Y0102928D03*
X0047210Y0102984D03*
X0049842Y0102984D03*
X0050010Y0102928D03*
D24*
X0049954Y0102928D03*
X0049898Y0102984D03*
X0047154Y0102984D03*
X0047098Y0102928D03*
X0040098Y0102984D03*
X0027498Y0102928D03*
D25*
X0027554Y0102956D03*
X0027666Y0103012D03*
X0027722Y0103012D03*
X0030130Y0103012D03*
X0030298Y0102956D03*
X0030354Y0102956D03*
X0037298Y0102956D03*
X0037354Y0102956D03*
X0037466Y0103012D03*
X0039986Y0103012D03*
X0040154Y0102956D03*
X0047266Y0103012D03*
X0047322Y0103012D03*
X0049730Y0103012D03*
X0049786Y0103012D03*
D26*
X0049674Y0103068D03*
X0030074Y0103068D03*
D27*
X0029850Y0103292D03*
X0039650Y0103348D03*
X0049618Y0103180D03*
D28*
X0049562Y0103208D03*
X0047546Y0103264D03*
X0047490Y0103208D03*
X0039818Y0103208D03*
X0030018Y0103152D03*
X0029962Y0103208D03*
X0013498Y0103768D03*
D29*
X0037634Y0103152D03*
X0039706Y0103264D03*
X0047602Y0103320D03*
X0049506Y0103264D03*
D30*
X0049450Y0103320D03*
X0037858Y0103376D03*
X0028058Y0103376D03*
D31*
X0028170Y0105448D03*
X0043402Y0105896D03*
X0043402Y0102984D03*
X0047770Y0105448D03*
X0049338Y0105392D03*
D32*
X0048610Y0105896D03*
X0048442Y0105896D03*
X0048274Y0105896D03*
X0048274Y0102536D03*
X0048442Y0102536D03*
X0048610Y0102536D03*
X0048834Y0102536D03*
X0049002Y0102536D03*
X0049170Y0102536D03*
X0049338Y0102536D03*
X0048106Y0102536D03*
X0047938Y0102536D03*
X0047770Y0102536D03*
X0044410Y0102984D03*
X0044242Y0102984D03*
X0044074Y0102984D03*
X0043906Y0102984D03*
X0043738Y0102984D03*
X0043570Y0102984D03*
X0043906Y0105896D03*
X0044074Y0105896D03*
X0044242Y0105896D03*
X0044410Y0105896D03*
X0029010Y0105896D03*
X0028842Y0105896D03*
X0028674Y0105896D03*
X0019770Y0105896D03*
X0019602Y0105896D03*
X0019434Y0105896D03*
X0019210Y0105896D03*
X0019042Y0105896D03*
X0018874Y0105896D03*
X0018706Y0105896D03*
X0018538Y0105896D03*
X0018370Y0105896D03*
X0018202Y0105896D03*
X0018034Y0105896D03*
X0017810Y0105896D03*
X0017642Y0105896D03*
X0017474Y0105896D03*
X0015738Y0105896D03*
X0015570Y0105896D03*
X0015402Y0105896D03*
X0015234Y0105896D03*
X0015010Y0105896D03*
X0014842Y0105896D03*
X0013442Y0105896D03*
X0013274Y0105896D03*
X0013106Y0105896D03*
X0012938Y0105896D03*
X0012770Y0105896D03*
X0012602Y0105896D03*
X0012434Y0105896D03*
X0018706Y0103432D03*
X0018874Y0103432D03*
X0019042Y0103432D03*
X0019210Y0103432D03*
X0018538Y0101024D03*
X0018370Y0101024D03*
X0018202Y0101024D03*
X0018034Y0101024D03*
X0017810Y0101024D03*
X0017642Y0101024D03*
X0017474Y0101024D03*
D33*
X0018594Y0100996D03*
X0018650Y0100996D03*
X0018762Y0100996D03*
X0018818Y0100996D03*
X0018930Y0100996D03*
X0018986Y0100996D03*
X0019098Y0100996D03*
X0019154Y0100996D03*
X0019266Y0100996D03*
X0019322Y0100996D03*
X0019378Y0100996D03*
X0019490Y0100996D03*
X0019546Y0100996D03*
X0019658Y0100996D03*
X0019714Y0100996D03*
X0019826Y0100996D03*
X0019826Y0103460D03*
X0019714Y0103460D03*
X0019658Y0103460D03*
X0019546Y0103460D03*
X0019490Y0103460D03*
X0019378Y0103460D03*
X0019322Y0103460D03*
X0019266Y0103460D03*
X0028114Y0102508D03*
X0028226Y0102508D03*
X0028282Y0102508D03*
X0028394Y0102508D03*
X0028450Y0102508D03*
X0028562Y0102508D03*
X0028618Y0102508D03*
X0028730Y0102508D03*
X0028786Y0102508D03*
X0028898Y0102508D03*
X0028954Y0102508D03*
X0029066Y0102508D03*
X0029122Y0102508D03*
X0029178Y0102508D03*
X0029290Y0102508D03*
X0029346Y0102508D03*
X0029458Y0102508D03*
X0029514Y0102508D03*
X0029626Y0102508D03*
X0029682Y0102508D03*
X0028226Y0105476D03*
X0028618Y0105868D03*
X0037914Y0102508D03*
X0038026Y0102508D03*
X0038082Y0102508D03*
X0038194Y0102508D03*
X0038250Y0102508D03*
X0038362Y0102508D03*
X0038418Y0102508D03*
X0038530Y0102508D03*
X0038586Y0102508D03*
X0038698Y0102508D03*
X0038754Y0102508D03*
X0038866Y0102508D03*
X0038922Y0102508D03*
X0038978Y0102508D03*
X0039090Y0102508D03*
X0039146Y0102508D03*
X0039258Y0102508D03*
X0039314Y0102508D03*
X0039426Y0102508D03*
X0039482Y0102508D03*
X0041554Y0101276D03*
X0043458Y0103012D03*
X0043514Y0103012D03*
X0043346Y0105868D03*
X0043458Y0105924D03*
X0043514Y0105924D03*
X0043626Y0105924D03*
X0043682Y0105924D03*
X0047826Y0105476D03*
X0048218Y0105868D03*
X0048890Y0105868D03*
X0049282Y0105476D03*
X0038978Y0105868D03*
X0038922Y0105924D03*
X0038866Y0105924D03*
X0038754Y0105924D03*
X0038698Y0105924D03*
X0038586Y0105924D03*
X0038418Y0105868D03*
D34*
X0043794Y0105896D03*
X0043850Y0105896D03*
X0043962Y0105896D03*
X0044018Y0105896D03*
X0044130Y0105896D03*
X0044186Y0105896D03*
X0044298Y0105896D03*
X0044354Y0105896D03*
X0044466Y0105896D03*
X0044466Y0102984D03*
X0044354Y0102984D03*
X0044298Y0102984D03*
X0044186Y0102984D03*
X0044130Y0102984D03*
X0044018Y0102984D03*
X0043962Y0102984D03*
X0043850Y0102984D03*
X0043794Y0102984D03*
X0043682Y0102984D03*
X0043626Y0102984D03*
X0047714Y0102536D03*
X0047826Y0102536D03*
X0047882Y0102536D03*
X0047994Y0102536D03*
X0048050Y0102536D03*
X0048162Y0102536D03*
X0048218Y0102536D03*
X0048330Y0102536D03*
X0048386Y0102536D03*
X0048498Y0102536D03*
X0048554Y0102536D03*
X0048666Y0102536D03*
X0048722Y0102536D03*
X0048778Y0102536D03*
X0048890Y0102536D03*
X0048946Y0102536D03*
X0049058Y0102536D03*
X0049114Y0102536D03*
X0049226Y0102536D03*
X0049282Y0102536D03*
X0048778Y0105896D03*
X0048722Y0105896D03*
X0048666Y0105896D03*
X0048554Y0105896D03*
X0048498Y0105896D03*
X0048386Y0105896D03*
X0048330Y0105896D03*
X0029178Y0105896D03*
X0029122Y0105896D03*
X0029066Y0105896D03*
X0028954Y0105896D03*
X0028898Y0105896D03*
X0028786Y0105896D03*
X0028730Y0105896D03*
X0019826Y0105896D03*
X0019714Y0105896D03*
X0019658Y0105896D03*
X0019546Y0105896D03*
X0019490Y0105896D03*
X0019378Y0105896D03*
X0019322Y0105896D03*
X0019266Y0105896D03*
X0019154Y0105896D03*
X0019098Y0105896D03*
X0018986Y0105896D03*
X0018930Y0105896D03*
X0018818Y0105896D03*
X0018762Y0105896D03*
X0018650Y0105896D03*
X0018594Y0105896D03*
X0018482Y0105896D03*
X0018426Y0105896D03*
X0018314Y0105896D03*
X0018258Y0105896D03*
X0018146Y0105896D03*
X0018090Y0105896D03*
X0017978Y0105896D03*
X0017922Y0105896D03*
X0017866Y0105896D03*
X0017754Y0105896D03*
X0017698Y0105896D03*
X0017586Y0105896D03*
X0017530Y0105896D03*
X0015682Y0105896D03*
X0015626Y0105896D03*
X0015514Y0105896D03*
X0015458Y0105896D03*
X0015346Y0105896D03*
X0015290Y0105896D03*
X0015178Y0105896D03*
X0015122Y0105896D03*
X0015066Y0105896D03*
X0014954Y0105896D03*
X0014898Y0105896D03*
X0014786Y0105896D03*
X0013386Y0105896D03*
X0013330Y0105896D03*
X0013218Y0105896D03*
X0013162Y0105896D03*
X0013050Y0105896D03*
X0012994Y0105896D03*
X0012882Y0105896D03*
X0012826Y0105896D03*
X0012714Y0105896D03*
X0012658Y0105896D03*
X0012546Y0105896D03*
X0012490Y0105896D03*
X0018594Y0103432D03*
X0018650Y0103432D03*
X0018762Y0103432D03*
X0018818Y0103432D03*
X0018930Y0103432D03*
X0018986Y0103432D03*
X0019098Y0103432D03*
X0019154Y0103432D03*
X0018482Y0101024D03*
X0018426Y0101024D03*
X0018314Y0101024D03*
X0018258Y0101024D03*
X0018146Y0101024D03*
X0018090Y0101024D03*
X0017978Y0101024D03*
X0017922Y0101024D03*
X0017866Y0101024D03*
X0017754Y0101024D03*
X0017698Y0101024D03*
X0017586Y0101024D03*
X0017530Y0101024D03*
D35*
X0028562Y0105840D03*
X0029290Y0105840D03*
X0029626Y0105504D03*
X0029682Y0105448D03*
X0038026Y0105504D03*
X0038530Y0105896D03*
X0039090Y0105840D03*
X0041498Y0104384D03*
X0043290Y0105840D03*
X0043346Y0102984D03*
X0047882Y0105560D03*
X0048162Y0105840D03*
X0049226Y0105504D03*
D36*
X0049170Y0105588D03*
X0037970Y0105420D03*
X0036570Y0102116D03*
X0029738Y0105364D03*
X0026770Y0102116D03*
D37*
X0028114Y0105308D03*
X0028450Y0105700D03*
X0029346Y0105756D03*
X0029514Y0105644D03*
X0039146Y0105756D03*
X0048050Y0105700D03*
X0049058Y0105700D03*
X0049114Y0105644D03*
D38*
X0049002Y0105728D03*
X0039202Y0105728D03*
X0038306Y0105728D03*
X0038138Y0105616D03*
X0029402Y0105728D03*
D39*
X0043290Y0102984D03*
X0048946Y0105784D03*
D40*
X0048834Y0105868D03*
X0043738Y0105924D03*
X0043570Y0105924D03*
X0039034Y0105868D03*
X0038810Y0105924D03*
X0038642Y0105924D03*
X0038474Y0105868D03*
X0038474Y0102508D03*
X0038642Y0102508D03*
X0038810Y0102508D03*
X0039034Y0102508D03*
X0039202Y0102508D03*
X0039370Y0102508D03*
X0039538Y0102508D03*
X0038306Y0102508D03*
X0038138Y0102508D03*
X0037970Y0102508D03*
X0029738Y0102508D03*
X0029570Y0102508D03*
X0029402Y0102508D03*
X0029234Y0102508D03*
X0029010Y0102508D03*
X0028842Y0102508D03*
X0028674Y0102508D03*
X0028506Y0102508D03*
X0028338Y0102508D03*
X0028170Y0102508D03*
X0029234Y0105868D03*
X0019770Y0103460D03*
X0019602Y0103460D03*
X0019434Y0103460D03*
X0019434Y0100996D03*
X0019602Y0100996D03*
X0019770Y0100996D03*
X0019210Y0100996D03*
X0019042Y0100996D03*
X0018874Y0100996D03*
X0018706Y0100996D03*
D41*
X0028338Y0105644D03*
X0028506Y0105756D03*
X0039370Y0105588D03*
X0041610Y0101276D03*
X0043234Y0105756D03*
X0047938Y0105644D03*
X0048106Y0105756D03*
D42*
X0047994Y0105672D03*
X0043178Y0105728D03*
X0039314Y0105672D03*
X0038194Y0105672D03*
X0037914Y0105336D03*
X0029458Y0105672D03*
X0028394Y0105672D03*
D43*
X0038362Y0105812D03*
X0039482Y0105476D03*
X0047714Y0105364D03*
D44*
X0047658Y0103404D03*
X0047378Y0103068D03*
X0037578Y0103068D03*
X0027778Y0103068D03*
D45*
X0027834Y0103096D03*
X0047434Y0103096D03*
D46*
X0047042Y0102900D03*
X0027442Y0102900D03*
D47*
X0035898Y0104132D03*
X0046930Y0102844D03*
D48*
X0046874Y0102816D03*
D49*
X0046706Y0102732D03*
X0030802Y0102732D03*
X0027106Y0102732D03*
D50*
X0030858Y0102760D03*
X0034666Y0103992D03*
X0036794Y0102760D03*
X0046650Y0102760D03*
D51*
X0046594Y0102732D03*
X0040658Y0102788D03*
X0026994Y0102732D03*
D52*
X0046538Y0102760D03*
D53*
X0046482Y0102704D03*
D54*
X0046426Y0102620D03*
D55*
X0045642Y0103656D03*
D56*
X0045586Y0103544D03*
X0044578Y0103544D03*
X0042562Y0103432D03*
X0024866Y0103488D03*
D57*
X0024922Y0103488D03*
X0025818Y0103488D03*
X0020890Y0103488D03*
X0014562Y0103488D03*
X0013722Y0103488D03*
X0013666Y0103488D03*
X0032818Y0103488D03*
X0044690Y0103488D03*
X0045530Y0103488D03*
D58*
X0045474Y0103488D03*
X0044634Y0103488D03*
X0034834Y0103488D03*
X0022906Y0103488D03*
X0014506Y0103488D03*
D59*
X0014450Y0103460D03*
X0014394Y0103460D03*
X0014282Y0103460D03*
X0014226Y0103460D03*
X0014058Y0103460D03*
X0013946Y0103460D03*
X0013890Y0103460D03*
X0013778Y0103460D03*
X0020218Y0103460D03*
X0020330Y0103460D03*
X0020386Y0103460D03*
X0020498Y0103460D03*
X0020554Y0103460D03*
X0020666Y0103460D03*
X0020722Y0103460D03*
X0020778Y0103460D03*
X0022066Y0103460D03*
X0022122Y0103460D03*
X0022178Y0103460D03*
X0022682Y0103460D03*
X0022794Y0103460D03*
X0022850Y0103460D03*
X0024978Y0103460D03*
X0025090Y0103460D03*
X0025146Y0103460D03*
X0025594Y0103460D03*
X0025650Y0103460D03*
X0025762Y0103460D03*
X0031922Y0103460D03*
X0031978Y0103460D03*
X0032090Y0103460D03*
X0032146Y0103460D03*
X0032594Y0103460D03*
X0032650Y0103460D03*
X0032762Y0103460D03*
X0034890Y0103460D03*
X0034946Y0103460D03*
X0035058Y0103460D03*
X0035730Y0103516D03*
X0044746Y0103460D03*
X0044858Y0103460D03*
X0044914Y0103460D03*
X0045026Y0103460D03*
X0045194Y0103460D03*
X0045250Y0103460D03*
X0045362Y0103460D03*
X0045418Y0103460D03*
D60*
X0045306Y0103460D03*
X0044970Y0103460D03*
X0044802Y0103460D03*
X0035002Y0103460D03*
X0032706Y0103460D03*
X0032034Y0103460D03*
X0025706Y0103460D03*
X0025034Y0103460D03*
X0022738Y0103460D03*
X0022234Y0103460D03*
X0022010Y0103460D03*
X0020834Y0103460D03*
X0020610Y0103460D03*
X0020442Y0103460D03*
X0020274Y0103460D03*
X0014338Y0103460D03*
X0014170Y0103460D03*
X0014002Y0103460D03*
X0013834Y0103460D03*
D61*
X0019938Y0103432D03*
X0020106Y0103432D03*
X0022402Y0103432D03*
X0022570Y0103432D03*
X0025202Y0103432D03*
X0025370Y0103432D03*
X0025538Y0103432D03*
X0032202Y0103432D03*
X0032370Y0103432D03*
X0032538Y0103432D03*
X0035506Y0103488D03*
X0035674Y0103488D03*
X0045138Y0103432D03*
D62*
X0045082Y0103432D03*
X0035618Y0103488D03*
X0035562Y0103488D03*
X0032482Y0103432D03*
X0032426Y0103432D03*
X0032314Y0103432D03*
X0032258Y0103432D03*
X0025482Y0103432D03*
X0025426Y0103432D03*
X0025314Y0103432D03*
X0025258Y0103432D03*
X0022626Y0103432D03*
X0022514Y0103432D03*
X0022458Y0103432D03*
X0022346Y0103432D03*
X0022290Y0103432D03*
X0020162Y0103432D03*
X0020050Y0103432D03*
X0019994Y0103432D03*
X0019882Y0103432D03*
X0014114Y0103432D03*
D63*
X0025930Y0103628D03*
X0031754Y0103460D03*
X0044522Y0103628D03*
D64*
X0043234Y0103096D03*
X0042002Y0101304D03*
D65*
X0043178Y0103040D03*
D66*
X0041722Y0101276D03*
X0041666Y0101276D03*
X0043066Y0105700D03*
X0043122Y0105700D03*
X0039258Y0105700D03*
X0038250Y0105700D03*
D67*
X0043122Y0103012D03*
X0025986Y0103124D03*
D68*
X0041778Y0104468D03*
X0042954Y0103012D03*
X0043066Y0103012D03*
X0042450Y0101500D03*
X0042394Y0101500D03*
X0042282Y0101500D03*
X0042226Y0101500D03*
X0042114Y0101444D03*
D69*
X0041834Y0101248D03*
X0043010Y0105672D03*
D70*
X0043010Y0103012D03*
X0042506Y0101500D03*
X0042338Y0101500D03*
D71*
X0041890Y0101248D03*
X0041778Y0101248D03*
X0042954Y0105672D03*
D72*
X0042898Y0105644D03*
X0041946Y0101276D03*
D73*
X0042898Y0102984D03*
X0041890Y0104496D03*
D74*
X0042842Y0105616D03*
D75*
X0042842Y0102984D03*
X0023634Y0102984D03*
D76*
X0042786Y0104020D03*
D77*
X0042730Y0103572D03*
X0013554Y0103572D03*
D78*
X0014674Y0103544D03*
X0042674Y0103488D03*
D79*
X0042618Y0103460D03*
X0034778Y0103516D03*
X0032930Y0103516D03*
X0031866Y0103460D03*
X0022962Y0103460D03*
X0021954Y0103460D03*
X0021898Y0103460D03*
X0020946Y0103516D03*
X0014618Y0103516D03*
D80*
X0042506Y0104468D03*
D81*
X0042450Y0104468D03*
D82*
X0042394Y0104468D03*
D83*
X0042338Y0104440D03*
D84*
X0042282Y0104468D03*
X0042226Y0104468D03*
D85*
X0042170Y0104496D03*
D86*
X0041834Y0104496D03*
X0042170Y0101472D03*
D87*
X0042114Y0104496D03*
X0033882Y0103544D03*
X0033826Y0103488D03*
X0033266Y0102480D03*
X0024418Y0104440D03*
X0023354Y0102480D03*
D88*
X0023130Y0102256D03*
X0024082Y0103712D03*
X0034498Y0104664D03*
X0042058Y0104496D03*
D89*
X0042058Y0101416D03*
D90*
X0042002Y0104552D03*
D91*
X0041946Y0104524D03*
D92*
X0041722Y0104496D03*
D93*
X0041666Y0104468D03*
D94*
X0041610Y0104468D03*
D95*
X0041554Y0104440D03*
D96*
X0041498Y0101276D03*
X0017026Y0105924D03*
X0012098Y0105924D03*
D97*
X0040770Y0102900D03*
D98*
X0040714Y0102816D03*
X0032986Y0102816D03*
D99*
X0030634Y0102788D03*
X0040434Y0102788D03*
D100*
X0040378Y0102816D03*
X0030578Y0102816D03*
D101*
X0040322Y0102900D03*
D102*
X0040266Y0102956D03*
X0037186Y0102900D03*
X0030466Y0102900D03*
D103*
X0029794Y0103432D03*
X0037522Y0103040D03*
X0039594Y0103432D03*
X0039930Y0103040D03*
D104*
X0039874Y0103124D03*
D105*
X0039762Y0103236D03*
X0037690Y0103236D03*
X0027946Y0103236D03*
X0027890Y0103180D03*
D106*
X0039538Y0105392D03*
D107*
X0039426Y0105532D03*
X0028282Y0105532D03*
D108*
X0038082Y0105560D03*
D109*
X0037802Y0103292D03*
X0029906Y0103236D03*
X0028002Y0103292D03*
D110*
X0023018Y0103320D03*
X0014730Y0103712D03*
X0037746Y0103264D03*
D111*
X0037410Y0102956D03*
X0030242Y0102956D03*
X0027610Y0102956D03*
D112*
X0027274Y0102788D03*
X0037074Y0102788D03*
D113*
X0036738Y0102732D03*
X0026938Y0102732D03*
D114*
X0030914Y0102788D03*
X0036682Y0102732D03*
D115*
X0036626Y0102648D03*
D116*
X0035842Y0103628D03*
X0021002Y0103572D03*
D117*
X0035786Y0103544D03*
D118*
X0035450Y0103460D03*
X0035394Y0103460D03*
X0035282Y0103460D03*
X0035226Y0103460D03*
X0035114Y0103460D03*
D119*
X0035170Y0103460D03*
X0035338Y0103460D03*
D120*
X0034722Y0103600D03*
D121*
X0034610Y0104804D03*
D122*
X0034554Y0104804D03*
X0034050Y0103852D03*
X0033098Y0102228D03*
X0023186Y0102228D03*
D123*
X0023970Y0103572D03*
X0024474Y0104524D03*
X0033042Y0102340D03*
X0033210Y0102452D03*
X0033770Y0103460D03*
X0033938Y0103628D03*
X0034442Y0104580D03*
D124*
X0034386Y0104524D03*
X0033714Y0103404D03*
X0024362Y0104412D03*
X0023914Y0103516D03*
X0023858Y0103460D03*
X0023522Y0102564D03*
D125*
X0023466Y0102508D03*
X0033322Y0102508D03*
X0033378Y0102508D03*
X0034330Y0104468D03*
D126*
X0034274Y0104412D03*
D127*
X0034218Y0104272D03*
X0024026Y0103600D03*
X0023298Y0102424D03*
D128*
X0034162Y0104020D03*
D129*
X0034106Y0103936D03*
X0024642Y0104776D03*
X0024138Y0103824D03*
D130*
X0033994Y0103684D03*
D131*
X0033658Y0103292D03*
X0024586Y0104692D03*
D132*
X0033602Y0103068D03*
D133*
X0033546Y0102984D03*
X0023690Y0103040D03*
D134*
X0023578Y0102900D03*
X0033490Y0102900D03*
D135*
X0033434Y0102592D03*
X0023410Y0102480D03*
D136*
X0033154Y0102368D03*
D137*
X0032874Y0103460D03*
X0031810Y0103460D03*
X0025874Y0103516D03*
X0013610Y0103516D03*
D138*
X0030970Y0102788D03*
D139*
X0030186Y0102984D03*
X0021058Y0103880D03*
D140*
X0029570Y0105560D03*
D141*
X0027330Y0102816D03*
D142*
X0026826Y0102564D03*
D143*
X0024810Y0103572D03*
D144*
X0024698Y0104776D03*
D145*
X0024530Y0104580D03*
D146*
X0024306Y0104188D03*
D147*
X0024250Y0103992D03*
D148*
X0024194Y0103936D03*
D149*
X0023802Y0103376D03*
D150*
X0023746Y0103208D03*
D151*
X0023242Y0102312D03*
D152*
X0023074Y0102592D03*
D153*
X0021842Y0103488D03*
D154*
X0018538Y0103460D03*
X0018370Y0103460D03*
X0018202Y0103460D03*
X0017306Y0105924D03*
X0015906Y0105924D03*
D155*
X0015962Y0105924D03*
X0015850Y0105924D03*
X0015794Y0105924D03*
X0017250Y0105924D03*
X0017362Y0105924D03*
X0017418Y0105924D03*
X0018146Y0103460D03*
X0018258Y0103460D03*
X0018314Y0103460D03*
X0018426Y0103460D03*
X0018482Y0103460D03*
X0017418Y0101052D03*
X0017362Y0101052D03*
X0012378Y0105924D03*
D156*
X0016018Y0105952D03*
X0018090Y0103488D03*
X0017250Y0101024D03*
X0017194Y0101024D03*
X0017082Y0101024D03*
D157*
X0017138Y0101024D03*
X0017306Y0101024D03*
X0018034Y0103488D03*
D158*
X0017978Y0103516D03*
X0017082Y0105924D03*
X0012154Y0105924D03*
D159*
X0017922Y0103376D03*
D160*
X0017194Y0105896D03*
X0012322Y0105896D03*
X0012266Y0105896D03*
D161*
X0016074Y0105980D03*
X0017138Y0105924D03*
D162*
X0016130Y0106008D03*
X0017026Y0101024D03*
D163*
X0016970Y0100996D03*
X0016970Y0105924D03*
D164*
X0016914Y0105952D03*
D165*
X0016914Y0101024D03*
D166*
X0016858Y0105924D03*
D167*
X0016858Y0101052D03*
D168*
X0012210Y0105896D03*
D169*
X0012042Y0105924D03*
D170*
X0011986Y0105952D03*
D171*
X0028086Y0110026D03*
X0028286Y0139526D03*
X0028286Y0139626D03*
X0026586Y0152926D03*
X0026786Y0153026D03*
X0026986Y0153126D03*
X0027186Y0153226D03*
X0024686Y0152826D03*
X0024486Y0153526D03*
X0021686Y0153926D03*
X0017086Y0152926D03*
X0010186Y0149626D03*
X0010486Y0148226D03*
X0052486Y0134826D03*
X0052586Y0134726D03*
X0052686Y0134626D03*
X0052786Y0134526D03*
X0052886Y0134426D03*
D172*
X0056136Y0134126D03*
X0056236Y0134226D03*
X0056336Y0134326D03*
X0056436Y0134526D03*
X0039436Y0131226D03*
X0027936Y0110126D03*
X0023636Y0113526D03*
X0019836Y0151826D03*
X0024536Y0153826D03*
X0028936Y0153926D03*
X0007736Y0149726D03*
D173*
X0007886Y0149626D03*
X0010786Y0151826D03*
X0010686Y0152026D03*
X0011386Y0151226D03*
X0019586Y0133526D03*
X0019186Y0132926D03*
X0022686Y0133226D03*
X0023986Y0143526D03*
X0024786Y0149026D03*
X0024886Y0152226D03*
X0024586Y0154026D03*
X0027986Y0154826D03*
X0027886Y0110226D03*
X0055886Y0133926D03*
X0056786Y0135226D03*
X0056786Y0135326D03*
X0056086Y0138226D03*
X0055886Y0138426D03*
D174*
X0055786Y0138826D03*
X0055386Y0139226D03*
X0056886Y0136626D03*
X0056986Y0136426D03*
X0049686Y0138126D03*
X0030386Y0112626D03*
X0030286Y0112526D03*
X0027886Y0110326D03*
X0019986Y0133826D03*
X0024386Y0139626D03*
X0021886Y0144726D03*
X0024686Y0148926D03*
X0013286Y0149526D03*
X0012886Y0150226D03*
X0012786Y0150326D03*
X0012686Y0150426D03*
X0009286Y0146726D03*
X0008286Y0150426D03*
D175*
X0016336Y0149226D03*
X0016436Y0149426D03*
X0016436Y0149526D03*
X0016536Y0149626D03*
X0022636Y0154926D03*
X0025336Y0152626D03*
X0025436Y0152726D03*
X0025036Y0148526D03*
X0026536Y0159826D03*
X0050836Y0150026D03*
X0050936Y0149826D03*
X0050936Y0149726D03*
X0054336Y0132926D03*
X0027836Y0110426D03*
D176*
X0027736Y0110526D03*
X0009036Y0146426D03*
X0016736Y0149826D03*
X0028736Y0153626D03*
X0050936Y0149526D03*
X0055336Y0139426D03*
X0054436Y0133026D03*
D177*
X0054436Y0133126D03*
X0049736Y0138326D03*
X0027736Y0110626D03*
X0026436Y0113326D03*
X0024836Y0154326D03*
D178*
X0024536Y0143626D03*
X0023636Y0142526D03*
X0016936Y0150026D03*
X0015436Y0149026D03*
X0026636Y0112526D03*
X0026736Y0112226D03*
X0027736Y0110726D03*
X0054436Y0133226D03*
D179*
X0049786Y0138426D03*
X0050786Y0149426D03*
X0034086Y0151026D03*
X0026586Y0159726D03*
X0024886Y0154426D03*
X0024786Y0148426D03*
X0020586Y0134126D03*
X0015386Y0148926D03*
X0009686Y0148526D03*
X0027686Y0110826D03*
D180*
X0027686Y0110926D03*
X0038386Y0131626D03*
X0028686Y0153426D03*
X0022786Y0133026D03*
X0054486Y0133326D03*
D181*
X0054536Y0133426D03*
X0049836Y0138526D03*
X0046636Y0146526D03*
X0038336Y0131726D03*
X0034236Y0151226D03*
X0025036Y0139726D03*
X0017136Y0150126D03*
X0017136Y0150226D03*
X0015236Y0148726D03*
X0014936Y0148626D03*
X0027636Y0111026D03*
D182*
X0027636Y0111126D03*
X0025036Y0139926D03*
X0024536Y0148326D03*
X0017236Y0150326D03*
X0009536Y0148626D03*
X0026636Y0159626D03*
X0034336Y0151426D03*
X0046536Y0146426D03*
X0050536Y0149326D03*
X0049836Y0138626D03*
X0054536Y0133526D03*
D183*
X0054586Y0133626D03*
X0027586Y0111226D03*
X0014786Y0148526D03*
X0018486Y0150926D03*
X0018486Y0151026D03*
D184*
X0018436Y0151126D03*
X0018436Y0151226D03*
X0018436Y0151326D03*
X0018236Y0150526D03*
X0027636Y0111326D03*
X0049936Y0138726D03*
X0054636Y0133726D03*
X0041236Y0161326D03*
D185*
X0050386Y0149226D03*
X0046386Y0146326D03*
X0027586Y0111426D03*
X0014686Y0148426D03*
X0009486Y0148726D03*
D186*
X0009436Y0148826D03*
X0009036Y0149426D03*
X0014636Y0148326D03*
X0017436Y0150426D03*
X0018436Y0151426D03*
X0019336Y0146226D03*
X0022736Y0132926D03*
X0027536Y0111626D03*
X0027536Y0111526D03*
X0034336Y0151526D03*
X0054636Y0133826D03*
D187*
X0034536Y0151726D03*
X0034436Y0151626D03*
X0026636Y0159526D03*
X0014536Y0148226D03*
X0014436Y0148126D03*
X0009436Y0148926D03*
X0027536Y0111826D03*
X0027536Y0111726D03*
D188*
X0027486Y0111926D03*
X0023386Y0147926D03*
X0014386Y0148026D03*
X0050286Y0149126D03*
D189*
X0050036Y0138926D03*
X0027536Y0112026D03*
X0024136Y0143926D03*
X0014236Y0147926D03*
X0014136Y0147826D03*
D190*
X0014086Y0147726D03*
X0009486Y0149026D03*
X0025886Y0144926D03*
X0033186Y0150826D03*
X0034686Y0151826D03*
X0034686Y0151926D03*
X0041186Y0161226D03*
X0050086Y0139026D03*
X0026686Y0159426D03*
X0027586Y0112126D03*
D191*
X0023486Y0112926D03*
X0030986Y0112226D03*
X0026786Y0138526D03*
X0026686Y0138626D03*
X0026586Y0139026D03*
X0026586Y0139126D03*
X0024986Y0139026D03*
X0024986Y0138926D03*
X0024986Y0138826D03*
X0023686Y0139226D03*
X0023686Y0139326D03*
X0024686Y0142926D03*
X0024586Y0143426D03*
X0026086Y0143026D03*
X0027486Y0143726D03*
X0027486Y0143826D03*
X0022186Y0143326D03*
X0022086Y0143526D03*
X0022086Y0143626D03*
X0023286Y0150326D03*
X0022886Y0151526D03*
X0022986Y0151726D03*
X0022986Y0151826D03*
X0023086Y0151926D03*
X0025286Y0151626D03*
X0026286Y0151526D03*
X0026286Y0151426D03*
X0026286Y0151326D03*
X0026286Y0151226D03*
X0026286Y0150126D03*
X0026286Y0150026D03*
X0026286Y0149926D03*
X0026286Y0149826D03*
X0028886Y0153126D03*
X0025486Y0154926D03*
X0011486Y0153126D03*
X0007186Y0150226D03*
X0007186Y0150126D03*
X0007186Y0150026D03*
X0010486Y0148026D03*
X0010486Y0147926D03*
X0010486Y0147826D03*
D192*
X0008336Y0145226D03*
X0010736Y0153326D03*
X0017136Y0152826D03*
X0017136Y0152726D03*
X0021736Y0154026D03*
X0022836Y0155626D03*
X0022936Y0151026D03*
X0022836Y0150926D03*
X0022736Y0150526D03*
X0026336Y0152826D03*
X0027336Y0153326D03*
X0025636Y0155026D03*
X0028236Y0139726D03*
X0035336Y0131826D03*
X0029436Y0112226D03*
X0052936Y0134326D03*
X0053036Y0134226D03*
X0054236Y0132526D03*
D193*
X0054336Y0132826D03*
X0057036Y0136226D03*
X0055736Y0138926D03*
X0055636Y0139026D03*
X0051936Y0145726D03*
X0051936Y0145826D03*
X0051936Y0145926D03*
X0051936Y0146026D03*
X0051936Y0146126D03*
X0030236Y0112426D03*
X0030136Y0112326D03*
X0024936Y0148726D03*
X0025236Y0152526D03*
X0022636Y0155026D03*
X0028836Y0153726D03*
X0012636Y0150526D03*
D194*
X0016886Y0149926D03*
X0022786Y0154626D03*
X0028686Y0153526D03*
X0041286Y0161426D03*
X0038686Y0131326D03*
X0026386Y0113526D03*
X0026386Y0113426D03*
X0026486Y0113226D03*
X0026486Y0113126D03*
X0026486Y0113026D03*
X0026486Y0112926D03*
X0026586Y0112826D03*
X0026586Y0112726D03*
X0026586Y0112626D03*
X0026686Y0112426D03*
X0026686Y0112326D03*
D195*
X0029936Y0113126D03*
X0023336Y0112526D03*
X0023036Y0112726D03*
X0023036Y0112926D03*
X0022836Y0113026D03*
X0022636Y0113526D03*
X0022136Y0114126D03*
X0022236Y0114226D03*
X0022036Y0114226D03*
X0022036Y0114026D03*
X0021636Y0114426D03*
X0021636Y0114626D03*
X0021336Y0114926D03*
X0021136Y0115126D03*
X0021036Y0115226D03*
X0020936Y0115326D03*
X0020936Y0115426D03*
X0021336Y0115226D03*
X0020536Y0115926D03*
X0020336Y0116026D03*
X0019936Y0116426D03*
X0019236Y0117426D03*
X0018836Y0117826D03*
X0018836Y0118026D03*
X0018036Y0118926D03*
X0018036Y0119126D03*
X0017836Y0119226D03*
X0017836Y0119326D03*
X0017436Y0119626D03*
X0017336Y0120026D03*
X0017136Y0120326D03*
X0017036Y0120426D03*
X0017036Y0120526D03*
X0016736Y0120526D03*
X0016536Y0120926D03*
X0016536Y0121126D03*
X0016436Y0121526D03*
X0016236Y0121526D03*
X0016236Y0121426D03*
X0016236Y0121626D03*
X0016036Y0121526D03*
X0015936Y0121826D03*
X0015836Y0122126D03*
X0015636Y0122426D03*
X0018836Y0147326D03*
X0018736Y0153526D03*
X0018636Y0153626D03*
X0018536Y0153726D03*
X0017736Y0154526D03*
X0017636Y0154626D03*
X0016936Y0153626D03*
X0016936Y0153526D03*
X0015736Y0154126D03*
X0015536Y0153626D03*
X0015436Y0153226D03*
X0016036Y0154726D03*
X0012936Y0151826D03*
X0012836Y0151926D03*
X0012436Y0152426D03*
X0012336Y0152526D03*
X0012236Y0152626D03*
X0012136Y0152726D03*
X0010536Y0153526D03*
X0023336Y0152426D03*
X0023736Y0151626D03*
X0023636Y0151426D03*
X0023636Y0151326D03*
X0024136Y0151026D03*
X0024136Y0150926D03*
X0024236Y0151226D03*
X0024236Y0151326D03*
X0024236Y0151426D03*
X0023636Y0150126D03*
X0023836Y0150026D03*
X0025436Y0150426D03*
X0025436Y0150526D03*
X0025536Y0149726D03*
X0025536Y0149626D03*
X0025536Y0149526D03*
X0025536Y0149426D03*
X0029436Y0152226D03*
X0029436Y0152326D03*
X0029536Y0152126D03*
X0029636Y0151926D03*
X0029736Y0151826D03*
X0029736Y0151726D03*
X0029936Y0151426D03*
X0029936Y0151326D03*
X0030036Y0151126D03*
X0030036Y0151026D03*
X0030136Y0150826D03*
X0031136Y0151226D03*
X0031136Y0151326D03*
X0031136Y0151426D03*
X0030936Y0151726D03*
X0030936Y0151826D03*
X0030636Y0152826D03*
X0030636Y0152926D03*
X0031536Y0152926D03*
X0029236Y0152526D03*
X0029036Y0152826D03*
X0040136Y0131026D03*
X0052836Y0148126D03*
X0055836Y0141326D03*
X0056236Y0140926D03*
X0056136Y0140726D03*
X0056136Y0140526D03*
X0056336Y0140426D03*
X0056336Y0140226D03*
X0056536Y0140126D03*
X0056636Y0139826D03*
X0056436Y0139826D03*
X0056836Y0139326D03*
X0057236Y0138726D03*
X0057136Y0138626D03*
X0057136Y0138526D03*
X0057036Y0138426D03*
X0057236Y0138226D03*
X0057636Y0137926D03*
X0057536Y0137826D03*
X0057536Y0137726D03*
X0057536Y0137626D03*
X0057936Y0137226D03*
X0058136Y0136126D03*
D196*
X0035636Y0131226D03*
X0032936Y0129926D03*
X0031436Y0112826D03*
X0023336Y0112626D03*
X0021936Y0114526D03*
X0017536Y0119926D03*
X0010336Y0147126D03*
X0010336Y0147226D03*
X0010336Y0147326D03*
X0010436Y0147426D03*
X0010436Y0147526D03*
X0013236Y0151226D03*
X0013136Y0151326D03*
X0013136Y0151426D03*
X0013036Y0151526D03*
X0015236Y0151526D03*
X0015236Y0151626D03*
X0015336Y0150926D03*
X0015336Y0150826D03*
X0015336Y0150726D03*
X0015636Y0153826D03*
X0015936Y0154426D03*
X0015936Y0154526D03*
X0016336Y0155126D03*
X0016536Y0155426D03*
X0018936Y0153226D03*
X0019136Y0152926D03*
X0019236Y0152726D03*
X0023236Y0152326D03*
X0025436Y0151026D03*
X0025436Y0150926D03*
X0026336Y0149626D03*
X0029136Y0152726D03*
X0028936Y0152926D03*
X0030336Y0153326D03*
X0030436Y0153126D03*
X0029936Y0151626D03*
X0030936Y0151526D03*
X0031036Y0151126D03*
X0031936Y0151026D03*
D197*
X0025136Y0152426D03*
X0024636Y0154126D03*
X0022636Y0155126D03*
X0022136Y0144526D03*
X0013236Y0149626D03*
X0013236Y0149726D03*
X0013136Y0149826D03*
X0013036Y0150026D03*
X0012936Y0150126D03*
X0008536Y0145626D03*
X0030436Y0112726D03*
X0056936Y0135826D03*
X0056836Y0136526D03*
X0056836Y0136726D03*
X0056836Y0136826D03*
X0056736Y0136926D03*
X0056636Y0137326D03*
X0056336Y0137926D03*
X0056236Y0138126D03*
X0056136Y0138326D03*
D198*
X0058086Y0136326D03*
X0035686Y0131126D03*
X0031386Y0112926D03*
X0023386Y0112726D03*
X0022686Y0113726D03*
X0021886Y0114426D03*
X0020386Y0116126D03*
X0020286Y0116226D03*
X0019986Y0116526D03*
X0018886Y0117926D03*
X0015786Y0122226D03*
X0025586Y0149226D03*
X0025586Y0149326D03*
X0025486Y0149826D03*
X0025486Y0149926D03*
X0025486Y0150026D03*
X0025486Y0150126D03*
X0025486Y0150226D03*
X0025486Y0150326D03*
X0025386Y0150626D03*
X0025386Y0150726D03*
X0025386Y0150826D03*
X0026286Y0151826D03*
X0023886Y0151826D03*
X0023786Y0151726D03*
X0023586Y0151226D03*
X0023586Y0151126D03*
X0023286Y0150826D03*
X0023486Y0150226D03*
X0019186Y0152826D03*
X0019086Y0153026D03*
X0018986Y0153126D03*
X0018886Y0153326D03*
X0018786Y0153426D03*
X0018486Y0153826D03*
X0018386Y0153926D03*
X0018286Y0154026D03*
X0018186Y0154126D03*
X0018086Y0154226D03*
X0017986Y0154326D03*
X0017886Y0154426D03*
X0017486Y0154726D03*
X0017386Y0154826D03*
X0017286Y0154926D03*
X0016986Y0155126D03*
X0015986Y0154626D03*
X0015786Y0154326D03*
X0015786Y0154226D03*
X0015686Y0154026D03*
X0015686Y0153926D03*
X0015486Y0153526D03*
X0015486Y0153426D03*
X0015486Y0153326D03*
X0015386Y0153126D03*
X0015386Y0153026D03*
X0015386Y0152926D03*
X0015386Y0152826D03*
X0015386Y0152726D03*
X0015286Y0152626D03*
X0015286Y0152526D03*
X0015286Y0152426D03*
X0015286Y0152326D03*
X0015286Y0152226D03*
X0015286Y0152126D03*
X0015286Y0152026D03*
X0015286Y0151926D03*
X0015286Y0151826D03*
X0015286Y0151726D03*
X0015286Y0151426D03*
X0015286Y0151326D03*
X0015286Y0151226D03*
X0015286Y0151126D03*
X0015286Y0151026D03*
X0012986Y0151626D03*
X0012986Y0151726D03*
X0012786Y0152026D03*
X0012686Y0152126D03*
X0012586Y0152226D03*
X0012486Y0152326D03*
X0011986Y0152826D03*
X0011886Y0152926D03*
X0016986Y0153426D03*
X0029186Y0152626D03*
X0029386Y0152426D03*
X0029886Y0151526D03*
X0029986Y0151226D03*
X0030086Y0150926D03*
X0030886Y0151626D03*
X0030486Y0153026D03*
X0030386Y0153226D03*
D199*
X0028136Y0154926D03*
X0024536Y0153726D03*
X0022736Y0155526D03*
X0021836Y0154226D03*
X0017136Y0152626D03*
X0010436Y0152426D03*
X0007636Y0149826D03*
X0010436Y0148326D03*
X0023536Y0113326D03*
X0030136Y0112826D03*
X0033236Y0130226D03*
X0028236Y0139926D03*
X0045136Y0142826D03*
X0053136Y0134126D03*
D200*
X0054236Y0132426D03*
X0035536Y0131526D03*
X0033036Y0130026D03*
X0026536Y0139226D03*
X0026536Y0139326D03*
X0024936Y0139126D03*
X0024636Y0142826D03*
X0026136Y0142926D03*
X0027536Y0143526D03*
X0027536Y0143626D03*
X0022236Y0143226D03*
X0022236Y0143126D03*
X0026236Y0150226D03*
X0025236Y0151726D03*
X0022936Y0151626D03*
X0022836Y0151426D03*
X0022836Y0151326D03*
X0024236Y0155626D03*
X0028136Y0155026D03*
X0017036Y0153326D03*
X0016636Y0155226D03*
X0010136Y0146926D03*
X0007236Y0149926D03*
X0007236Y0150326D03*
X0023336Y0112826D03*
X0030036Y0113026D03*
D201*
X0030036Y0112926D03*
X0023436Y0113126D03*
X0033136Y0130126D03*
X0027536Y0143026D03*
X0027536Y0143126D03*
X0024536Y0153426D03*
X0026336Y0154526D03*
X0021636Y0153826D03*
X0021536Y0153726D03*
X0021236Y0153426D03*
X0017136Y0153026D03*
X0012536Y0149426D03*
X0052336Y0134926D03*
D202*
X0039886Y0131126D03*
X0035486Y0131626D03*
X0031586Y0130026D03*
X0026486Y0139426D03*
X0026486Y0139526D03*
X0024986Y0139326D03*
X0024986Y0139226D03*
X0023686Y0139426D03*
X0023686Y0139526D03*
X0024686Y0142726D03*
X0022286Y0143026D03*
X0027486Y0143426D03*
X0026286Y0150326D03*
X0026286Y0150426D03*
X0026286Y0150526D03*
X0026286Y0150626D03*
X0026286Y0150726D03*
X0026286Y0150826D03*
X0026286Y0150926D03*
X0026286Y0151026D03*
X0026286Y0151126D03*
X0025186Y0151826D03*
X0022786Y0151226D03*
X0022786Y0151126D03*
X0026886Y0155326D03*
X0016986Y0153226D03*
X0014286Y0149326D03*
X0014286Y0149226D03*
X0012286Y0149326D03*
X0009886Y0149926D03*
X0009786Y0150026D03*
X0009586Y0150126D03*
X0008186Y0145126D03*
X0023486Y0113026D03*
D203*
X0023486Y0113226D03*
X0028186Y0139826D03*
X0024986Y0149126D03*
X0024486Y0153626D03*
X0021786Y0154126D03*
X0029086Y0153326D03*
X0010286Y0149526D03*
X0008186Y0150726D03*
D204*
X0010486Y0152326D03*
X0010786Y0153226D03*
X0008386Y0145326D03*
X0017186Y0152426D03*
X0017186Y0152526D03*
X0021886Y0154326D03*
X0022686Y0155426D03*
X0042886Y0146426D03*
X0042886Y0146326D03*
X0049586Y0137926D03*
X0053186Y0134026D03*
X0053286Y0133926D03*
X0023586Y0113426D03*
D205*
X0025336Y0113626D03*
X0013536Y0146626D03*
X0013536Y0146726D03*
X0013636Y0146826D03*
X0026736Y0159326D03*
X0032736Y0150626D03*
X0050036Y0148926D03*
X0050236Y0139226D03*
D206*
X0024236Y0144026D03*
X0019036Y0150826D03*
X0013636Y0147026D03*
X0013636Y0146926D03*
X0009536Y0149126D03*
X0025436Y0113726D03*
D207*
X0025136Y0113826D03*
X0025136Y0113926D03*
X0025036Y0114026D03*
X0025036Y0114526D03*
X0026736Y0159226D03*
D208*
X0013536Y0146426D03*
X0025136Y0114226D03*
X0025136Y0114126D03*
X0049736Y0142326D03*
X0049936Y0148826D03*
D209*
X0049436Y0142826D03*
X0050136Y0141926D03*
X0041136Y0161026D03*
X0024936Y0114326D03*
D210*
X0024986Y0114426D03*
X0050486Y0139426D03*
X0049986Y0142026D03*
X0049486Y0142726D03*
D211*
X0026836Y0159126D03*
X0023836Y0147826D03*
X0024636Y0144126D03*
X0024736Y0114926D03*
X0024836Y0114626D03*
D212*
X0024686Y0114726D03*
X0024586Y0115226D03*
X0018286Y0140226D03*
X0018186Y0140326D03*
X0018086Y0140426D03*
X0050386Y0141826D03*
D213*
X0024536Y0144226D03*
X0018436Y0140026D03*
X0018336Y0140126D03*
X0018036Y0140526D03*
X0017936Y0140626D03*
X0024536Y0115126D03*
X0024636Y0115026D03*
X0024636Y0114826D03*
D214*
X0024436Y0115326D03*
X0017836Y0140826D03*
X0050636Y0141726D03*
D215*
X0034936Y0152226D03*
X0027036Y0159026D03*
X0023636Y0147626D03*
X0017836Y0141026D03*
X0024436Y0115426D03*
D216*
X0024436Y0115526D03*
X0021736Y0132826D03*
X0025436Y0140026D03*
X0024336Y0144626D03*
X0019036Y0139726D03*
X0017836Y0141226D03*
D217*
X0019036Y0139926D03*
X0019036Y0139826D03*
X0024536Y0115626D03*
X0040936Y0160726D03*
D218*
X0020086Y0138726D03*
X0020186Y0138626D03*
X0020286Y0138526D03*
X0017386Y0142526D03*
X0017286Y0142626D03*
X0016686Y0143926D03*
X0016686Y0144026D03*
X0016686Y0144126D03*
X0024486Y0115726D03*
D219*
X0024586Y0115826D03*
X0019986Y0138926D03*
X0017486Y0142426D03*
X0045986Y0145926D03*
X0047086Y0152226D03*
X0049186Y0147426D03*
X0049186Y0147326D03*
X0049186Y0147226D03*
X0051386Y0141526D03*
D220*
X0051636Y0141226D03*
X0049236Y0147026D03*
X0049236Y0147126D03*
X0047136Y0152026D03*
X0047136Y0152126D03*
X0046036Y0145826D03*
X0035936Y0152426D03*
X0021936Y0132626D03*
X0020536Y0138426D03*
X0024636Y0115926D03*
D221*
X0024586Y0116026D03*
X0049086Y0146626D03*
X0051786Y0141126D03*
X0051786Y0140726D03*
D222*
X0051736Y0141026D03*
X0051636Y0141326D03*
X0049136Y0146726D03*
X0049136Y0146826D03*
X0047136Y0151926D03*
X0046936Y0152326D03*
X0040836Y0160526D03*
X0022036Y0132526D03*
X0024636Y0116126D03*
X0012336Y0146026D03*
X0012436Y0146326D03*
D223*
X0012236Y0145926D03*
X0024636Y0116226D03*
X0048236Y0142926D03*
X0051836Y0140926D03*
X0051836Y0140826D03*
D224*
X0051936Y0140626D03*
X0048136Y0143026D03*
X0024536Y0116326D03*
X0020936Y0138326D03*
D225*
X0022136Y0132326D03*
X0016036Y0144426D03*
X0024536Y0116526D03*
X0024536Y0116426D03*
X0051936Y0139826D03*
X0051936Y0140026D03*
X0051936Y0140326D03*
D226*
X0051986Y0140126D03*
X0051986Y0139926D03*
X0024486Y0116726D03*
X0024486Y0116626D03*
D227*
X0024386Y0116826D03*
X0015886Y0144526D03*
X0052086Y0139726D03*
D228*
X0046286Y0152426D03*
X0024286Y0116926D03*
X0015786Y0144626D03*
D229*
X0024086Y0117426D03*
X0024186Y0117226D03*
X0024186Y0117126D03*
X0024186Y0117026D03*
D230*
X0024136Y0117326D03*
D231*
X0023936Y0117526D03*
X0023936Y0117626D03*
X0023936Y0117726D03*
D232*
X0023886Y0117826D03*
X0023886Y0117926D03*
X0023786Y0118026D03*
X0040586Y0160126D03*
D233*
X0034336Y0139726D03*
X0034236Y0139626D03*
X0034136Y0139526D03*
X0023636Y0118426D03*
X0023636Y0118226D03*
X0023636Y0118126D03*
D234*
X0023536Y0118326D03*
X0023436Y0118726D03*
X0034736Y0140126D03*
D235*
X0023386Y0118826D03*
X0023386Y0118526D03*
D236*
X0023336Y0118626D03*
X0023336Y0118926D03*
X0023336Y0119126D03*
X0033036Y0138726D03*
X0040436Y0159926D03*
D237*
X0033086Y0138826D03*
X0032886Y0138626D03*
X0023286Y0119026D03*
D238*
X0023236Y0119226D03*
X0023236Y0119326D03*
X0032636Y0138526D03*
D239*
X0033236Y0139026D03*
X0022936Y0120026D03*
X0023136Y0119426D03*
X0040336Y0159826D03*
D240*
X0033186Y0138926D03*
X0023086Y0119926D03*
X0023086Y0119526D03*
D241*
X0022986Y0119626D03*
X0022786Y0120326D03*
X0033286Y0139126D03*
D242*
X0033286Y0139226D03*
X0022386Y0120926D03*
X0022686Y0120426D03*
X0022886Y0119726D03*
X0040286Y0159726D03*
D243*
X0022236Y0121126D03*
X0022636Y0120526D03*
X0022836Y0120226D03*
X0022836Y0120126D03*
X0022936Y0119826D03*
X0015736Y0145426D03*
D244*
X0021986Y0121426D03*
X0021986Y0121226D03*
X0022386Y0120826D03*
X0022486Y0120626D03*
X0032086Y0138326D03*
X0033386Y0139426D03*
D245*
X0033336Y0139326D03*
X0022136Y0121526D03*
X0022036Y0121326D03*
X0022236Y0121026D03*
X0022436Y0120726D03*
D246*
X0022136Y0121626D03*
D247*
X0022186Y0121726D03*
D248*
X0022236Y0121826D03*
X0045236Y0151626D03*
D249*
X0022286Y0121926D03*
D250*
X0022336Y0122026D03*
D251*
X0022386Y0122126D03*
X0044986Y0151526D03*
D252*
X0022436Y0122226D03*
D253*
X0022336Y0122326D03*
X0022536Y0122426D03*
X0032836Y0133226D03*
X0032736Y0133326D03*
X0032636Y0133426D03*
D254*
X0022436Y0122526D03*
D255*
X0022486Y0122626D03*
X0023686Y0130026D03*
X0032186Y0133726D03*
D256*
X0031986Y0133826D03*
X0023586Y0129726D03*
X0022486Y0122726D03*
D257*
X0022536Y0122826D03*
X0044536Y0151126D03*
D258*
X0023586Y0129626D03*
X0022586Y0122926D03*
D259*
X0022586Y0123026D03*
X0023586Y0129426D03*
D260*
X0023536Y0129326D03*
X0022636Y0123226D03*
X0022636Y0123126D03*
X0044436Y0151026D03*
D261*
X0031486Y0134026D03*
X0022686Y0123326D03*
D262*
X0022686Y0123426D03*
X0023486Y0129126D03*
D263*
X0023436Y0129026D03*
X0026836Y0135826D03*
X0026436Y0136026D03*
X0026436Y0136126D03*
X0022736Y0123626D03*
X0022736Y0123526D03*
D264*
X0022786Y0123726D03*
X0023486Y0128926D03*
X0026486Y0135926D03*
X0026386Y0136226D03*
X0035986Y0143026D03*
X0044286Y0150826D03*
D265*
X0024436Y0130226D03*
X0023436Y0128826D03*
X0023436Y0128726D03*
X0022836Y0123826D03*
D266*
X0022886Y0123926D03*
X0024386Y0130126D03*
X0027086Y0135726D03*
D267*
X0023436Y0128626D03*
X0023436Y0128526D03*
X0022836Y0124026D03*
X0031036Y0134126D03*
X0044236Y0150726D03*
D268*
X0044186Y0150626D03*
X0026286Y0136326D03*
X0023386Y0128426D03*
X0023386Y0128326D03*
X0022886Y0124226D03*
X0022886Y0124126D03*
D269*
X0022936Y0124326D03*
X0022936Y0124426D03*
X0023336Y0128226D03*
D270*
X0023386Y0128126D03*
X0023386Y0128026D03*
X0023286Y0127926D03*
X0023286Y0127826D03*
X0023186Y0127626D03*
X0023186Y0127526D03*
X0023186Y0127426D03*
X0022986Y0124626D03*
X0022986Y0124526D03*
X0027286Y0135626D03*
D271*
X0026436Y0136426D03*
X0023236Y0127726D03*
X0023036Y0124826D03*
X0023036Y0124726D03*
X0044136Y0150526D03*
D272*
X0023186Y0127326D03*
X0023086Y0125126D03*
X0023086Y0125026D03*
X0023086Y0124926D03*
D273*
X0023136Y0125226D03*
X0023136Y0125326D03*
X0023136Y0125426D03*
X0023136Y0126226D03*
X0023136Y0126326D03*
X0023236Y0127226D03*
X0044036Y0150426D03*
D274*
X0023286Y0127126D03*
X0023186Y0126626D03*
X0023186Y0126526D03*
X0023186Y0126426D03*
X0023086Y0126126D03*
X0023086Y0126026D03*
X0023086Y0125926D03*
X0023086Y0125826D03*
X0023086Y0125726D03*
X0023086Y0125626D03*
X0023086Y0125526D03*
D275*
X0023236Y0126726D03*
X0023336Y0127026D03*
X0026536Y0136526D03*
X0044036Y0150326D03*
D276*
X0027586Y0135526D03*
X0023286Y0126926D03*
X0023286Y0126826D03*
D277*
X0023536Y0129226D03*
X0039136Y0159026D03*
X0044336Y0150926D03*
D278*
X0031736Y0133926D03*
X0023536Y0129526D03*
D279*
X0023636Y0129826D03*
X0023636Y0129926D03*
X0044636Y0151226D03*
D280*
X0045136Y0142726D03*
X0052236Y0135126D03*
X0035536Y0131426D03*
X0031736Y0129926D03*
X0026636Y0138726D03*
X0026636Y0138826D03*
X0026636Y0138926D03*
X0025036Y0138726D03*
X0025036Y0138626D03*
X0023636Y0139026D03*
X0023636Y0139126D03*
X0023336Y0142926D03*
X0023336Y0143026D03*
X0022136Y0143426D03*
X0024636Y0143326D03*
X0024636Y0143226D03*
X0024636Y0143126D03*
X0024636Y0143026D03*
X0026036Y0143126D03*
X0026036Y0143226D03*
X0027436Y0143926D03*
X0027436Y0144026D03*
X0025336Y0151426D03*
X0025336Y0151526D03*
X0023136Y0152026D03*
X0024736Y0155326D03*
X0024936Y0155226D03*
X0024536Y0155426D03*
X0024336Y0155526D03*
X0019336Y0152426D03*
X0016536Y0155326D03*
X0015536Y0150526D03*
X0010436Y0147726D03*
X0010236Y0147026D03*
X0007536Y0145926D03*
X0009936Y0152526D03*
X0009936Y0152626D03*
X0009936Y0152726D03*
X0009936Y0152826D03*
X0010036Y0153026D03*
D281*
X0019536Y0144826D03*
X0025536Y0130426D03*
X0025536Y0130326D03*
X0038836Y0149626D03*
D282*
X0038736Y0149526D03*
X0028036Y0135326D03*
X0025536Y0130626D03*
X0025536Y0130526D03*
D283*
X0025486Y0130726D03*
X0038686Y0149426D03*
D284*
X0025536Y0130926D03*
X0025536Y0130826D03*
D285*
X0025586Y0131026D03*
X0026586Y0136726D03*
X0038586Y0149326D03*
D286*
X0038536Y0149226D03*
X0025836Y0131826D03*
X0025536Y0131126D03*
D287*
X0025586Y0131226D03*
X0025586Y0131326D03*
X0025586Y0131426D03*
X0025686Y0131526D03*
X0025686Y0131626D03*
X0027786Y0135426D03*
X0035086Y0142926D03*
X0038386Y0148826D03*
X0038386Y0148926D03*
X0038386Y0149026D03*
X0038486Y0149126D03*
D288*
X0030986Y0151026D03*
X0028886Y0153026D03*
X0026286Y0151726D03*
X0026286Y0151626D03*
X0025386Y0151326D03*
X0025386Y0151226D03*
X0025386Y0151126D03*
X0026286Y0149726D03*
X0023186Y0152126D03*
X0023186Y0152226D03*
X0019286Y0152526D03*
X0019286Y0152626D03*
X0017086Y0155026D03*
X0016286Y0155026D03*
X0016286Y0154926D03*
X0016186Y0154826D03*
X0015686Y0153726D03*
X0015486Y0150626D03*
X0013286Y0151026D03*
X0013286Y0151126D03*
X0011686Y0153026D03*
X0010686Y0152526D03*
X0009986Y0152926D03*
X0010486Y0147626D03*
X0007686Y0146326D03*
X0007586Y0146226D03*
X0007586Y0146126D03*
X0007586Y0146026D03*
X0017486Y0146426D03*
X0017486Y0146526D03*
X0017486Y0146626D03*
X0023286Y0143426D03*
X0023286Y0143326D03*
X0023286Y0143226D03*
X0023286Y0143126D03*
X0024986Y0138526D03*
X0024986Y0138426D03*
X0025986Y0143326D03*
X0025986Y0143426D03*
X0025986Y0143526D03*
X0035586Y0131326D03*
D289*
X0038436Y0131526D03*
X0038536Y0131426D03*
X0034136Y0151126D03*
X0022836Y0154526D03*
X0015636Y0149126D03*
X0015336Y0148826D03*
D290*
X0020486Y0152426D03*
X0020586Y0152526D03*
X0020686Y0152626D03*
X0020686Y0152726D03*
X0020786Y0152826D03*
X0020886Y0152926D03*
X0020986Y0153126D03*
X0021086Y0153226D03*
X0021186Y0153326D03*
X0021386Y0153526D03*
X0021486Y0153626D03*
X0024486Y0153326D03*
X0028986Y0154026D03*
X0026286Y0147926D03*
X0024686Y0142626D03*
X0024986Y0139526D03*
X0026386Y0139626D03*
X0022586Y0133326D03*
X0010686Y0153426D03*
X0010386Y0153126D03*
X0010086Y0149726D03*
X0035386Y0131726D03*
X0049586Y0137826D03*
X0052286Y0135026D03*
D291*
X0025736Y0131726D03*
D292*
X0024986Y0139826D03*
X0034286Y0151326D03*
X0038186Y0131826D03*
D293*
X0028836Y0131926D03*
D294*
X0028886Y0132026D03*
D295*
X0028836Y0132126D03*
D296*
X0028886Y0132226D03*
D297*
X0033286Y0132626D03*
X0033386Y0132526D03*
X0033386Y0132426D03*
X0033386Y0132326D03*
D298*
X0022086Y0132426D03*
X0016186Y0144326D03*
X0045986Y0145726D03*
X0051786Y0140526D03*
D299*
X0056586Y0134826D03*
X0056586Y0134726D03*
X0056486Y0134626D03*
X0056386Y0134426D03*
X0055986Y0134026D03*
X0054286Y0132626D03*
X0026486Y0159926D03*
X0021986Y0154426D03*
X0019986Y0152226D03*
X0019886Y0152026D03*
X0019886Y0151926D03*
X0019786Y0151726D03*
X0019786Y0151626D03*
X0017186Y0152226D03*
X0017186Y0152326D03*
X0022786Y0142826D03*
X0024786Y0152126D03*
X0019386Y0133326D03*
X0019286Y0133226D03*
X0019286Y0133126D03*
X0009586Y0146826D03*
X0008186Y0150626D03*
X0010586Y0152226D03*
D300*
X0010936Y0151726D03*
X0011136Y0151426D03*
X0011236Y0151326D03*
X0011536Y0151126D03*
X0011636Y0151026D03*
X0008536Y0145526D03*
X0008236Y0150526D03*
X0017336Y0151826D03*
X0017336Y0151926D03*
X0022636Y0155226D03*
X0025036Y0152326D03*
X0028836Y0153826D03*
X0019736Y0133626D03*
X0049636Y0138026D03*
X0054336Y0132726D03*
X0056836Y0135426D03*
X0056836Y0135526D03*
X0056836Y0136126D03*
X0056836Y0136326D03*
X0056636Y0137026D03*
X0056636Y0137126D03*
X0056536Y0137426D03*
X0056336Y0137726D03*
X0056336Y0137826D03*
X0055936Y0138526D03*
D301*
X0039736Y0159226D03*
X0033136Y0132826D03*
X0033236Y0132726D03*
D302*
X0021836Y0132726D03*
X0017236Y0142726D03*
X0017236Y0142826D03*
X0017136Y0142926D03*
X0017036Y0143126D03*
X0016936Y0143326D03*
X0016836Y0143526D03*
X0016836Y0143626D03*
X0016736Y0143726D03*
X0016736Y0143826D03*
X0045836Y0146026D03*
D303*
X0044886Y0151426D03*
X0032886Y0133126D03*
X0032986Y0133026D03*
X0033086Y0132926D03*
D304*
X0024736Y0151926D03*
X0024736Y0152026D03*
X0024536Y0153926D03*
X0025736Y0155126D03*
X0022636Y0155326D03*
X0020036Y0152326D03*
X0019936Y0152126D03*
X0017236Y0152126D03*
X0017236Y0152026D03*
X0022836Y0142726D03*
X0022936Y0142626D03*
X0019536Y0133426D03*
X0019236Y0133026D03*
X0010736Y0151926D03*
X0010636Y0152126D03*
X0008436Y0145426D03*
X0056336Y0137626D03*
X0056736Y0135126D03*
X0056736Y0135026D03*
X0056636Y0134926D03*
D305*
X0049686Y0138226D03*
X0051786Y0146426D03*
X0050986Y0149626D03*
X0024786Y0154226D03*
X0023586Y0155726D03*
X0022686Y0154826D03*
X0016586Y0149726D03*
X0016386Y0149326D03*
X0012286Y0150826D03*
X0012186Y0150926D03*
X0009086Y0146526D03*
X0020286Y0134026D03*
X0022686Y0133126D03*
D306*
X0032486Y0133526D03*
D307*
X0032336Y0133626D03*
X0044736Y0151326D03*
D308*
X0041286Y0161526D03*
X0055786Y0138726D03*
X0055886Y0138626D03*
X0056286Y0138026D03*
X0056486Y0137526D03*
X0056686Y0137226D03*
X0056886Y0136026D03*
X0056886Y0135926D03*
X0056886Y0135726D03*
X0056886Y0135626D03*
X0019886Y0133726D03*
X0013086Y0149926D03*
X0011086Y0151526D03*
X0010986Y0151626D03*
X0010186Y0148426D03*
X0007986Y0149526D03*
X0017286Y0151626D03*
X0017286Y0151726D03*
D309*
X0012486Y0150626D03*
X0012386Y0150726D03*
X0009186Y0146626D03*
X0020186Y0133926D03*
X0024986Y0148626D03*
X0024786Y0148826D03*
X0050886Y0149926D03*
X0051786Y0146326D03*
X0051886Y0146226D03*
X0055386Y0139326D03*
X0055586Y0139126D03*
D310*
X0039136Y0155526D03*
X0031636Y0141226D03*
X0028736Y0134226D03*
D311*
X0028686Y0134326D03*
X0026986Y0137726D03*
X0031586Y0141126D03*
X0031386Y0146226D03*
D312*
X0031486Y0141026D03*
X0026986Y0137626D03*
X0028586Y0134426D03*
D313*
X0028536Y0134526D03*
X0039636Y0155126D03*
X0039436Y0155326D03*
D314*
X0040936Y0153126D03*
X0041036Y0153026D03*
X0031436Y0140826D03*
X0026936Y0137526D03*
X0028536Y0134626D03*
D315*
X0028436Y0134726D03*
X0026936Y0137426D03*
X0031336Y0140726D03*
X0040036Y0154826D03*
X0039936Y0154926D03*
X0039836Y0155026D03*
X0041436Y0152526D03*
D316*
X0041336Y0152726D03*
X0041236Y0152926D03*
X0040936Y0153426D03*
X0040936Y0153526D03*
X0040836Y0153626D03*
X0040736Y0153826D03*
X0040636Y0153926D03*
X0040636Y0154026D03*
X0040236Y0154626D03*
X0040136Y0154726D03*
X0028436Y0134826D03*
D317*
X0028386Y0134926D03*
X0019586Y0145326D03*
D318*
X0028336Y0135026D03*
X0030936Y0140226D03*
D319*
X0028286Y0135126D03*
X0026786Y0137026D03*
X0019586Y0145026D03*
X0039086Y0149926D03*
D320*
X0028186Y0135226D03*
D321*
X0026586Y0136626D03*
X0036686Y0147426D03*
D322*
X0026686Y0136826D03*
D323*
X0026736Y0136926D03*
X0034336Y0142526D03*
X0034436Y0142626D03*
X0038936Y0149726D03*
D324*
X0026786Y0137126D03*
X0019586Y0145126D03*
D325*
X0026836Y0137226D03*
X0031036Y0140326D03*
D326*
X0031186Y0140526D03*
X0026886Y0137326D03*
X0040786Y0153726D03*
X0040586Y0154126D03*
X0040486Y0154326D03*
X0040386Y0154426D03*
D327*
X0038936Y0155626D03*
X0027036Y0137826D03*
D328*
X0027086Y0137926D03*
D329*
X0027086Y0138026D03*
D330*
X0027136Y0138126D03*
D331*
X0027136Y0138226D03*
D332*
X0032136Y0138426D03*
D333*
X0025586Y0144526D03*
X0023986Y0143826D03*
X0023986Y0143726D03*
X0024386Y0148226D03*
X0018386Y0151526D03*
X0009186Y0149326D03*
X0049986Y0138826D03*
D334*
X0040936Y0160626D03*
X0025136Y0145426D03*
X0020036Y0138826D03*
D335*
X0019486Y0139026D03*
X0019086Y0139526D03*
X0019086Y0139626D03*
X0023486Y0147526D03*
D336*
X0024186Y0148126D03*
X0013886Y0147426D03*
X0013786Y0147226D03*
X0013686Y0147126D03*
X0050186Y0139126D03*
D337*
X0041036Y0160826D03*
X0035136Y0152326D03*
X0019936Y0150726D03*
X0019936Y0150626D03*
X0017836Y0141126D03*
X0019136Y0139426D03*
X0019236Y0139326D03*
X0019336Y0139126D03*
D338*
X0019286Y0139226D03*
X0045486Y0146226D03*
D339*
X0049586Y0142626D03*
X0049586Y0142526D03*
X0049686Y0142426D03*
X0049786Y0142226D03*
X0049886Y0142126D03*
X0050386Y0139326D03*
X0023986Y0148026D03*
D340*
X0023136Y0150426D03*
X0022636Y0150826D03*
X0020936Y0153026D03*
X0017036Y0153126D03*
X0014136Y0149426D03*
X0010536Y0148126D03*
X0010036Y0149826D03*
X0009436Y0150226D03*
X0009236Y0150326D03*
X0008136Y0150826D03*
X0022336Y0142926D03*
X0025036Y0139426D03*
X0027536Y0143226D03*
X0027536Y0143326D03*
X0028936Y0153226D03*
X0027136Y0154726D03*
X0026736Y0154626D03*
X0026536Y0155226D03*
X0024536Y0153226D03*
X0024536Y0153126D03*
X0024536Y0153026D03*
X0024536Y0152926D03*
D341*
X0052136Y0139626D03*
X0052136Y0139526D03*
D342*
X0034586Y0139926D03*
X0034486Y0139826D03*
D343*
X0034686Y0140026D03*
X0040486Y0160026D03*
D344*
X0045686Y0146126D03*
X0050986Y0141626D03*
X0025486Y0140126D03*
D345*
X0040786Y0160426D03*
X0051886Y0140426D03*
X0051886Y0140226D03*
D346*
X0040536Y0154226D03*
X0040336Y0154526D03*
X0039436Y0150026D03*
X0031136Y0140426D03*
D347*
X0031286Y0140626D03*
X0041386Y0152626D03*
X0041286Y0152826D03*
X0040986Y0153326D03*
D348*
X0041086Y0160926D03*
X0023686Y0147726D03*
X0024486Y0144326D03*
X0017886Y0140726D03*
D349*
X0031486Y0140926D03*
X0039586Y0155226D03*
D350*
X0024386Y0144426D03*
X0017886Y0140926D03*
D351*
X0027986Y0141326D03*
D352*
X0017686Y0142326D03*
X0016386Y0144226D03*
X0012386Y0146126D03*
X0012386Y0146226D03*
X0049186Y0146926D03*
X0051586Y0141426D03*
D353*
X0027986Y0141426D03*
D354*
X0027986Y0141526D03*
D355*
X0028036Y0141626D03*
D356*
X0028086Y0141726D03*
D357*
X0028136Y0141826D03*
D358*
X0028136Y0141926D03*
D359*
X0028186Y0142026D03*
D360*
X0028186Y0142126D03*
D361*
X0028236Y0142226D03*
D362*
X0032436Y0142326D03*
D363*
X0032486Y0142426D03*
D364*
X0034486Y0142726D03*
X0034586Y0142826D03*
X0038986Y0149826D03*
D365*
X0023486Y0147426D03*
X0016986Y0143226D03*
X0017086Y0143026D03*
X0016886Y0143426D03*
D366*
X0040486Y0143126D03*
X0041186Y0145226D03*
X0041186Y0145326D03*
X0041186Y0145426D03*
X0040986Y0147926D03*
X0041086Y0148026D03*
D367*
X0041136Y0145126D03*
X0041136Y0145026D03*
X0041136Y0144926D03*
X0041136Y0144826D03*
X0040536Y0143226D03*
X0035036Y0158526D03*
D368*
X0029786Y0146426D03*
X0040586Y0143426D03*
X0040586Y0143326D03*
X0040686Y0143526D03*
X0040686Y0143626D03*
X0040786Y0143826D03*
X0040886Y0144126D03*
X0040986Y0144326D03*
X0040986Y0144426D03*
X0040986Y0144526D03*
X0041086Y0144626D03*
X0041086Y0144726D03*
D369*
X0040936Y0144226D03*
X0040836Y0144026D03*
X0040836Y0143926D03*
X0040736Y0143726D03*
X0041136Y0148226D03*
X0035036Y0158626D03*
D370*
X0033236Y0150926D03*
X0025636Y0144726D03*
X0014036Y0147626D03*
X0013936Y0147526D03*
X0013836Y0147326D03*
X0050136Y0149026D03*
D371*
X0046636Y0151826D03*
X0040636Y0160226D03*
X0015736Y0144726D03*
D372*
X0017086Y0144926D03*
X0039886Y0159326D03*
D373*
X0019586Y0145226D03*
D374*
X0031636Y0145526D03*
D375*
X0040086Y0159526D03*
X0047286Y0145626D03*
D376*
X0025386Y0145626D03*
D377*
X0024086Y0145726D03*
X0024086Y0145826D03*
D378*
X0028836Y0145926D03*
X0035036Y0158226D03*
X0040936Y0147826D03*
D379*
X0035036Y0158426D03*
X0029136Y0146126D03*
X0028936Y0146026D03*
D380*
X0029286Y0146326D03*
X0040886Y0147726D03*
D381*
X0051686Y0146526D03*
X0022686Y0154726D03*
D382*
X0030886Y0146526D03*
X0031386Y0146826D03*
X0031486Y0146926D03*
X0035186Y0157026D03*
D383*
X0034986Y0152026D03*
X0032786Y0150726D03*
X0041186Y0161126D03*
X0013486Y0146526D03*
X0009686Y0149226D03*
D384*
X0030986Y0146626D03*
D385*
X0031136Y0146726D03*
X0035236Y0156726D03*
D386*
X0031636Y0147026D03*
D387*
X0031736Y0147126D03*
X0035236Y0156826D03*
X0035236Y0156926D03*
D388*
X0035186Y0157126D03*
X0035186Y0157226D03*
X0031986Y0147226D03*
D389*
X0032136Y0147326D03*
X0035136Y0157326D03*
D390*
X0040886Y0147626D03*
X0040886Y0147526D03*
D391*
X0040986Y0148126D03*
X0041186Y0148326D03*
D392*
X0041236Y0148426D03*
D393*
X0041286Y0148526D03*
X0035086Y0158926D03*
D394*
X0041336Y0148626D03*
D395*
X0041336Y0148726D03*
D396*
X0041136Y0150126D03*
D397*
X0041086Y0150226D03*
D398*
X0032686Y0150326D03*
X0032686Y0150426D03*
X0032686Y0150526D03*
D399*
X0040186Y0159626D03*
X0045586Y0151726D03*
D400*
X0034886Y0152126D03*
D401*
X0040886Y0153226D03*
D402*
X0039336Y0155426D03*
D403*
X0038736Y0155726D03*
D404*
X0035536Y0155826D03*
X0035536Y0155926D03*
D405*
X0035486Y0156026D03*
D406*
X0035436Y0156126D03*
X0035436Y0156226D03*
D407*
X0035386Y0156326D03*
D408*
X0035336Y0156426D03*
D409*
X0035286Y0156526D03*
X0035286Y0156626D03*
D410*
X0035086Y0157426D03*
D411*
X0035086Y0157526D03*
X0035086Y0157626D03*
D412*
X0035086Y0157726D03*
D413*
X0035036Y0157826D03*
D414*
X0035086Y0157926D03*
D415*
X0035036Y0158026D03*
D416*
X0035036Y0158126D03*
D417*
X0034986Y0158326D03*
D418*
X0035036Y0158726D03*
D419*
X0035086Y0158826D03*
D420*
X0039586Y0159126D03*
D421*
X0039986Y0159426D03*
D422*
X0040736Y0160326D03*
D423*
X0086691Y0104819D02*
X0131966Y0058362D01*
X0117793Y0065843D02*
X0120155Y0096157D01*
X0120155Y0096945D01*
X0117399Y0096945D02*
X0117596Y0100488D01*
X0117598Y0100527D01*
X0117596Y0100567D01*
X0117591Y0100605D01*
X0117582Y0100643D01*
X0117569Y0100680D01*
X0117553Y0100716D01*
X0117533Y0100750D01*
X0117510Y0100781D01*
X0117484Y0100810D01*
X0117455Y0100837D01*
X0117423Y0100860D01*
X0117390Y0100881D01*
X0117355Y0100897D01*
X0117318Y0100911D01*
X0117280Y0100920D01*
X0117241Y0100926D01*
X0117202Y0100928D01*
X0117163Y0100926D01*
X0117124Y0100920D01*
X0117086Y0100911D01*
X0117049Y0100897D01*
X0117014Y0100881D01*
X0116981Y0100860D01*
X0116949Y0100837D01*
X0116920Y0100810D01*
X0116894Y0100781D01*
X0116871Y0100750D01*
X0116851Y0100716D01*
X0116835Y0100680D01*
X0116822Y0100643D01*
X0116813Y0100605D01*
X0116808Y0100567D01*
X0116806Y0100527D01*
X0116808Y0100488D01*
X0116809Y0100488D02*
X0117005Y0096945D01*
X0117399Y0096945D01*
X0120155Y0096945D02*
X0120153Y0097050D01*
X0120147Y0097155D01*
X0120138Y0097260D01*
X0120125Y0097365D01*
X0120108Y0097469D01*
X0120088Y0097572D01*
X0120063Y0097675D01*
X0120036Y0097776D01*
X0120004Y0097877D01*
X0119969Y0097976D01*
X0119931Y0098074D01*
X0119889Y0098171D01*
X0119843Y0098266D01*
X0119794Y0098359D01*
X0119742Y0098451D01*
X0119687Y0098540D01*
X0119629Y0098628D01*
X0119567Y0098713D01*
X0119503Y0098796D01*
X0119435Y0098877D01*
X0119365Y0098956D01*
X0119292Y0099031D01*
X0119216Y0099105D01*
X0119138Y0099175D01*
X0119057Y0099243D01*
X0118974Y0099307D01*
X0118872Y0099381D01*
X0118768Y0099452D01*
X0118661Y0099519D01*
X0118553Y0099584D01*
X0118442Y0099645D01*
X0118330Y0099702D01*
X0118216Y0099756D01*
X0118101Y0099807D01*
X0117983Y0099853D01*
X0117865Y0099897D01*
X0117745Y0099936D01*
X0117624Y0099972D01*
X0117502Y0100004D01*
X0117379Y0100032D01*
X0117255Y0100057D01*
X0117131Y0100077D01*
X0117006Y0100094D01*
X0111887Y0099701D02*
X0111887Y0100488D01*
X0111887Y0101276D01*
X0106769Y0101276D01*
X0106769Y0099701D01*
X0111887Y0099701D01*
X0106376Y0100488D02*
X0105982Y0100488D01*
X0102438Y0100094D02*
X0102321Y0100066D01*
X0102204Y0100034D01*
X0102089Y0099999D01*
X0101974Y0099960D01*
X0101861Y0099917D01*
X0101749Y0099871D01*
X0101638Y0099822D01*
X0101529Y0099769D01*
X0101422Y0099713D01*
X0101317Y0099654D01*
X0101213Y0099591D01*
X0101111Y0099526D01*
X0101012Y0099457D01*
X0100914Y0099386D01*
X0100819Y0099311D01*
X0100726Y0099234D01*
X0100636Y0099153D01*
X0100548Y0099070D01*
X0100462Y0098985D01*
X0100379Y0098896D01*
X0100299Y0098806D01*
X0100222Y0098713D01*
X0100148Y0098617D01*
X0100076Y0098520D01*
X0099683Y0097339D02*
X0101651Y0070961D01*
X0100076Y0065941D02*
X0100078Y0066029D01*
X0100084Y0066117D01*
X0100094Y0066205D01*
X0100108Y0066293D01*
X0100125Y0066379D01*
X0100147Y0066465D01*
X0100172Y0066549D01*
X0100202Y0066633D01*
X0100234Y0066715D01*
X0100271Y0066795D01*
X0100311Y0066874D01*
X0100355Y0066951D01*
X0100402Y0067026D01*
X0100452Y0067098D01*
X0100506Y0067169D01*
X0100562Y0067236D01*
X0100622Y0067302D01*
X0100684Y0067364D01*
X0100750Y0067424D01*
X0100817Y0067480D01*
X0100888Y0067534D01*
X0100960Y0067584D01*
X0101035Y0067631D01*
X0101112Y0067675D01*
X0101191Y0067715D01*
X0101271Y0067752D01*
X0101353Y0067784D01*
X0101437Y0067814D01*
X0101521Y0067839D01*
X0101607Y0067861D01*
X0101693Y0067878D01*
X0101781Y0067892D01*
X0101869Y0067902D01*
X0101957Y0067908D01*
X0102045Y0067910D01*
X0102133Y0067908D01*
X0102221Y0067902D01*
X0102309Y0067892D01*
X0102397Y0067878D01*
X0102483Y0067861D01*
X0102569Y0067839D01*
X0102653Y0067814D01*
X0102737Y0067784D01*
X0102819Y0067752D01*
X0102899Y0067715D01*
X0102978Y0067675D01*
X0103055Y0067631D01*
X0103130Y0067584D01*
X0103202Y0067534D01*
X0103273Y0067480D01*
X0103340Y0067424D01*
X0103406Y0067364D01*
X0103468Y0067302D01*
X0103528Y0067236D01*
X0103584Y0067169D01*
X0103638Y0067098D01*
X0103688Y0067026D01*
X0103735Y0066951D01*
X0103779Y0066874D01*
X0103819Y0066795D01*
X0103856Y0066715D01*
X0103888Y0066633D01*
X0103918Y0066549D01*
X0103943Y0066465D01*
X0103965Y0066379D01*
X0103982Y0066293D01*
X0103996Y0066205D01*
X0104006Y0066117D01*
X0104012Y0066029D01*
X0104014Y0065941D01*
X0104012Y0065853D01*
X0104006Y0065765D01*
X0103996Y0065677D01*
X0103982Y0065589D01*
X0103965Y0065503D01*
X0103943Y0065417D01*
X0103918Y0065333D01*
X0103888Y0065249D01*
X0103856Y0065167D01*
X0103819Y0065087D01*
X0103779Y0065008D01*
X0103735Y0064931D01*
X0103688Y0064856D01*
X0103638Y0064784D01*
X0103584Y0064713D01*
X0103528Y0064646D01*
X0103468Y0064580D01*
X0103406Y0064518D01*
X0103340Y0064458D01*
X0103273Y0064402D01*
X0103202Y0064348D01*
X0103130Y0064298D01*
X0103055Y0064251D01*
X0102978Y0064207D01*
X0102899Y0064167D01*
X0102819Y0064130D01*
X0102737Y0064098D01*
X0102653Y0064068D01*
X0102569Y0064043D01*
X0102483Y0064021D01*
X0102397Y0064004D01*
X0102309Y0063990D01*
X0102221Y0063980D01*
X0102133Y0063974D01*
X0102045Y0063972D01*
X0101957Y0063974D01*
X0101869Y0063980D01*
X0101781Y0063990D01*
X0101693Y0064004D01*
X0101607Y0064021D01*
X0101521Y0064043D01*
X0101437Y0064068D01*
X0101353Y0064098D01*
X0101271Y0064130D01*
X0101191Y0064167D01*
X0101112Y0064207D01*
X0101035Y0064251D01*
X0100960Y0064298D01*
X0100888Y0064348D01*
X0100817Y0064402D01*
X0100750Y0064458D01*
X0100684Y0064518D01*
X0100622Y0064580D01*
X0100562Y0064646D01*
X0100506Y0064713D01*
X0100452Y0064784D01*
X0100402Y0064856D01*
X0100355Y0064931D01*
X0100311Y0065008D01*
X0100271Y0065087D01*
X0100234Y0065167D01*
X0100202Y0065249D01*
X0100172Y0065333D01*
X0100147Y0065417D01*
X0100125Y0065503D01*
X0100108Y0065589D01*
X0100094Y0065677D01*
X0100084Y0065765D01*
X0100078Y0065853D01*
X0100076Y0065941D01*
X0098497Y0065941D02*
X0098499Y0066060D01*
X0098505Y0066178D01*
X0098515Y0066296D01*
X0098529Y0066414D01*
X0098546Y0066531D01*
X0098568Y0066648D01*
X0098594Y0066763D01*
X0098623Y0066878D01*
X0098656Y0066992D01*
X0098693Y0067105D01*
X0098734Y0067216D01*
X0098779Y0067326D01*
X0098827Y0067434D01*
X0098878Y0067541D01*
X0098934Y0067646D01*
X0098992Y0067749D01*
X0099054Y0067850D01*
X0099120Y0067949D01*
X0099189Y0068046D01*
X0099261Y0068140D01*
X0099336Y0068232D01*
X0099414Y0068321D01*
X0099495Y0068408D01*
X0099578Y0068491D01*
X0099665Y0068572D01*
X0099754Y0068650D01*
X0099846Y0068725D01*
X0099940Y0068797D01*
X0100037Y0068866D01*
X0100136Y0068932D01*
X0100237Y0068994D01*
X0100340Y0069052D01*
X0100445Y0069108D01*
X0100552Y0069159D01*
X0100660Y0069207D01*
X0100770Y0069252D01*
X0100881Y0069293D01*
X0100994Y0069330D01*
X0101108Y0069363D01*
X0101223Y0069392D01*
X0101338Y0069418D01*
X0101455Y0069440D01*
X0101572Y0069457D01*
X0101690Y0069471D01*
X0101808Y0069481D01*
X0101926Y0069487D01*
X0102045Y0069489D01*
X0102164Y0069487D01*
X0102282Y0069481D01*
X0102400Y0069471D01*
X0102518Y0069457D01*
X0102635Y0069440D01*
X0102752Y0069418D01*
X0102867Y0069392D01*
X0102982Y0069363D01*
X0103096Y0069330D01*
X0103209Y0069293D01*
X0103320Y0069252D01*
X0103430Y0069207D01*
X0103538Y0069159D01*
X0103645Y0069108D01*
X0103750Y0069052D01*
X0103853Y0068994D01*
X0103954Y0068932D01*
X0104053Y0068866D01*
X0104150Y0068797D01*
X0104244Y0068725D01*
X0104336Y0068650D01*
X0104425Y0068572D01*
X0104512Y0068491D01*
X0104595Y0068408D01*
X0104676Y0068321D01*
X0104754Y0068232D01*
X0104829Y0068140D01*
X0104901Y0068046D01*
X0104970Y0067949D01*
X0105036Y0067850D01*
X0105098Y0067749D01*
X0105156Y0067646D01*
X0105212Y0067541D01*
X0105263Y0067434D01*
X0105311Y0067326D01*
X0105356Y0067216D01*
X0105397Y0067105D01*
X0105434Y0066992D01*
X0105467Y0066878D01*
X0105496Y0066763D01*
X0105522Y0066648D01*
X0105544Y0066531D01*
X0105561Y0066414D01*
X0105575Y0066296D01*
X0105585Y0066178D01*
X0105591Y0066060D01*
X0105593Y0065941D01*
X0105591Y0065822D01*
X0105585Y0065704D01*
X0105575Y0065586D01*
X0105561Y0065468D01*
X0105544Y0065351D01*
X0105522Y0065234D01*
X0105496Y0065119D01*
X0105467Y0065004D01*
X0105434Y0064890D01*
X0105397Y0064777D01*
X0105356Y0064666D01*
X0105311Y0064556D01*
X0105263Y0064448D01*
X0105212Y0064341D01*
X0105156Y0064236D01*
X0105098Y0064133D01*
X0105036Y0064032D01*
X0104970Y0063933D01*
X0104901Y0063836D01*
X0104829Y0063742D01*
X0104754Y0063650D01*
X0104676Y0063561D01*
X0104595Y0063474D01*
X0104512Y0063391D01*
X0104425Y0063310D01*
X0104336Y0063232D01*
X0104244Y0063157D01*
X0104150Y0063085D01*
X0104053Y0063016D01*
X0103954Y0062950D01*
X0103853Y0062888D01*
X0103750Y0062830D01*
X0103645Y0062774D01*
X0103538Y0062723D01*
X0103430Y0062675D01*
X0103320Y0062630D01*
X0103209Y0062589D01*
X0103096Y0062552D01*
X0102982Y0062519D01*
X0102867Y0062490D01*
X0102752Y0062464D01*
X0102635Y0062442D01*
X0102518Y0062425D01*
X0102400Y0062411D01*
X0102282Y0062401D01*
X0102164Y0062395D01*
X0102045Y0062393D01*
X0101926Y0062395D01*
X0101808Y0062401D01*
X0101690Y0062411D01*
X0101572Y0062425D01*
X0101455Y0062442D01*
X0101338Y0062464D01*
X0101223Y0062490D01*
X0101108Y0062519D01*
X0100994Y0062552D01*
X0100881Y0062589D01*
X0100770Y0062630D01*
X0100660Y0062675D01*
X0100552Y0062723D01*
X0100445Y0062774D01*
X0100340Y0062830D01*
X0100237Y0062888D01*
X0100136Y0062950D01*
X0100037Y0063016D01*
X0099940Y0063085D01*
X0099846Y0063157D01*
X0099754Y0063232D01*
X0099665Y0063310D01*
X0099578Y0063391D01*
X0099495Y0063474D01*
X0099414Y0063561D01*
X0099336Y0063650D01*
X0099261Y0063742D01*
X0099189Y0063836D01*
X0099120Y0063933D01*
X0099054Y0064032D01*
X0098992Y0064133D01*
X0098934Y0064236D01*
X0098878Y0064341D01*
X0098827Y0064448D01*
X0098779Y0064556D01*
X0098734Y0064666D01*
X0098693Y0064777D01*
X0098656Y0064890D01*
X0098623Y0065004D01*
X0098594Y0065119D01*
X0098568Y0065234D01*
X0098546Y0065351D01*
X0098529Y0065468D01*
X0098515Y0065586D01*
X0098505Y0065704D01*
X0098499Y0065822D01*
X0098497Y0065941D01*
X0105982Y0064661D02*
X0116612Y0064661D01*
X0116612Y0064662D02*
X0116678Y0064664D01*
X0116744Y0064669D01*
X0116810Y0064679D01*
X0116875Y0064692D01*
X0116939Y0064708D01*
X0117002Y0064728D01*
X0117064Y0064752D01*
X0117124Y0064779D01*
X0117183Y0064809D01*
X0117240Y0064843D01*
X0117295Y0064880D01*
X0117348Y0064920D01*
X0117399Y0064962D01*
X0117447Y0065008D01*
X0117493Y0065056D01*
X0117535Y0065107D01*
X0117575Y0065160D01*
X0117612Y0065215D01*
X0117646Y0065272D01*
X0117676Y0065331D01*
X0117703Y0065391D01*
X0117727Y0065453D01*
X0117747Y0065516D01*
X0117763Y0065580D01*
X0117776Y0065645D01*
X0117786Y0065711D01*
X0117791Y0065777D01*
X0117793Y0065843D01*
X0105982Y0100488D02*
X0105625Y0100484D01*
X0105268Y0100472D01*
X0104911Y0100452D01*
X0104555Y0100425D01*
X0104199Y0100389D01*
X0103845Y0100346D01*
X0103491Y0100295D01*
X0103139Y0100236D01*
X0102788Y0100169D01*
X0102439Y0100094D01*
X0100076Y0098520D02*
X0100026Y0098445D01*
X0099978Y0098368D01*
X0099934Y0098289D01*
X0099894Y0098209D01*
X0099856Y0098127D01*
X0099822Y0098043D01*
X0099792Y0097958D01*
X0099765Y0097872D01*
X0099742Y0097785D01*
X0099723Y0097697D01*
X0099707Y0097608D01*
X0099695Y0097519D01*
X0099687Y0097429D01*
X0099683Y0097339D01*
X0096139Y0097535D02*
X0096141Y0097619D01*
X0096147Y0097702D01*
X0096157Y0097785D01*
X0096171Y0097868D01*
X0096188Y0097950D01*
X0096210Y0098031D01*
X0096235Y0098110D01*
X0096264Y0098189D01*
X0096297Y0098266D01*
X0096333Y0098341D01*
X0096373Y0098415D01*
X0096416Y0098487D01*
X0096463Y0098556D01*
X0096513Y0098623D01*
X0096566Y0098688D01*
X0096622Y0098750D01*
X0096680Y0098810D01*
X0096742Y0098867D01*
X0096806Y0098920D01*
X0096873Y0098971D01*
X0096942Y0099018D01*
X0097013Y0099063D01*
X0097086Y0099103D01*
X0097161Y0099140D01*
X0097238Y0099174D01*
X0097316Y0099204D01*
X0097395Y0099230D01*
X0097476Y0099253D01*
X0097558Y0099271D01*
X0097640Y0099286D01*
X0097723Y0099297D01*
X0097806Y0099304D01*
X0097890Y0099307D01*
X0097974Y0099306D01*
X0098057Y0099301D01*
X0098141Y0099292D01*
X0098223Y0099279D01*
X0098305Y0099263D01*
X0098386Y0099242D01*
X0098467Y0099218D01*
X0098545Y0099190D01*
X0098623Y0099158D01*
X0098699Y0099122D01*
X0098773Y0099083D01*
X0098845Y0099041D01*
X0098915Y0098995D01*
X0098983Y0098946D01*
X0099048Y0098894D01*
X0099111Y0098839D01*
X0099171Y0098781D01*
X0099229Y0098720D01*
X0099283Y0098656D01*
X0099335Y0098590D01*
X0099383Y0098522D01*
X0099428Y0098451D01*
X0099469Y0098378D01*
X0099508Y0098304D01*
X0099542Y0098228D01*
X0099573Y0098150D01*
X0099600Y0098071D01*
X0099624Y0097990D01*
X0099643Y0097909D01*
X0099659Y0097827D01*
X0099671Y0097744D01*
X0099679Y0097660D01*
X0099683Y0097577D01*
X0099683Y0097493D01*
X0099679Y0097410D01*
X0099671Y0097326D01*
X0099659Y0097243D01*
X0099643Y0097161D01*
X0099624Y0097080D01*
X0099600Y0096999D01*
X0099573Y0096920D01*
X0099542Y0096842D01*
X0099508Y0096766D01*
X0099469Y0096692D01*
X0099428Y0096619D01*
X0099383Y0096548D01*
X0099335Y0096480D01*
X0099283Y0096414D01*
X0099229Y0096350D01*
X0099171Y0096289D01*
X0099111Y0096231D01*
X0099048Y0096176D01*
X0098983Y0096124D01*
X0098915Y0096075D01*
X0098845Y0096029D01*
X0098773Y0095987D01*
X0098699Y0095948D01*
X0098623Y0095912D01*
X0098545Y0095880D01*
X0098467Y0095852D01*
X0098386Y0095828D01*
X0098305Y0095807D01*
X0098223Y0095791D01*
X0098141Y0095778D01*
X0098057Y0095769D01*
X0097974Y0095764D01*
X0097890Y0095763D01*
X0097806Y0095766D01*
X0097723Y0095773D01*
X0097640Y0095784D01*
X0097558Y0095799D01*
X0097476Y0095817D01*
X0097395Y0095840D01*
X0097316Y0095866D01*
X0097238Y0095896D01*
X0097161Y0095930D01*
X0097086Y0095967D01*
X0097013Y0096007D01*
X0096942Y0096052D01*
X0096873Y0096099D01*
X0096806Y0096150D01*
X0096742Y0096203D01*
X0096680Y0096260D01*
X0096622Y0096320D01*
X0096566Y0096382D01*
X0096513Y0096447D01*
X0096463Y0096514D01*
X0096416Y0096583D01*
X0096373Y0096655D01*
X0096333Y0096729D01*
X0096297Y0096804D01*
X0096264Y0096881D01*
X0096235Y0096960D01*
X0096210Y0097039D01*
X0096188Y0097120D01*
X0096171Y0097202D01*
X0096157Y0097285D01*
X0096147Y0097368D01*
X0096141Y0097451D01*
X0096139Y0097535D01*
X0097320Y0093500D02*
X0099584Y0093500D01*
X0097320Y0093500D02*
X0097320Y0089465D01*
X0099781Y0089465D01*
X0089840Y0057969D02*
X0133147Y0104425D01*
X0117006Y0100094D02*
X0115729Y0100232D01*
X0114450Y0100343D01*
X0113170Y0100429D01*
X0111887Y0100488D01*
D424*
X0111149Y0096699D03*
D425*
X0108492Y0087890D03*
D426*
X0116021Y0063333D03*
D427*
X0113797Y0198500D02*
X0108797Y0198500D01*
X0111297Y0201000D01*
X0113797Y0198500D01*
X0118797Y0198500D01*
X0121297Y0201000D01*
X0123797Y0198500D01*
X0118797Y0198500D01*
X0121297Y0206000D02*
X0118797Y0208500D01*
X0113797Y0208500D01*
X0111297Y0206000D01*
X0108797Y0208500D01*
X0103797Y0208500D01*
X0101297Y0206000D01*
X0098797Y0208500D01*
X0093797Y0208500D01*
X0091297Y0206000D01*
X0088797Y0208500D01*
X0083797Y0208500D01*
X0081297Y0206000D01*
X0078797Y0208500D01*
X0073797Y0208500D01*
X0071297Y0206000D01*
X0071297Y0201000D02*
X0073797Y0198500D01*
X0071297Y0198500D02*
X0071297Y0268500D01*
X0083797Y0268500D01*
X0081297Y0266000D01*
X0078797Y0268500D01*
X0081297Y0261000D02*
X0078797Y0258500D01*
X0081297Y0256000D01*
X0081297Y0251000D01*
X0078797Y0248500D01*
X0081297Y0246000D01*
X0081297Y0241000D01*
X0078797Y0238500D01*
X0081297Y0236000D01*
X0081297Y0231000D01*
X0078797Y0228500D01*
X0073797Y0228500D01*
X0071297Y0231000D01*
X0071297Y0236000D02*
X0073797Y0238500D01*
X0071297Y0241000D01*
X0071297Y0246000D02*
X0073797Y0248500D01*
X0071297Y0251000D01*
X0071297Y0256000D02*
X0073797Y0258500D01*
X0071297Y0261000D01*
X0073797Y0258500D02*
X0078797Y0258500D01*
X0081297Y0261000D02*
X0083797Y0258500D01*
X0088797Y0258500D01*
X0091297Y0261000D01*
X0093797Y0258500D01*
X0098797Y0258500D01*
X0101297Y0261000D01*
X0103797Y0258500D01*
X0108797Y0258500D01*
X0111297Y0261000D01*
X0113797Y0258500D01*
X0118797Y0258500D01*
X0121297Y0261000D01*
X0123797Y0258500D01*
X0128797Y0258500D01*
X0131297Y0261000D01*
X0133797Y0258500D01*
X0138797Y0258500D01*
X0136297Y0256000D01*
X0136297Y0251000D01*
X0138797Y0248500D01*
X0143797Y0248500D01*
X0146297Y0251000D01*
X0148797Y0248500D01*
X0153797Y0248500D01*
X0156297Y0251000D01*
X0156297Y0256000D01*
X0153797Y0258500D01*
X0148797Y0258500D01*
X0146297Y0256000D01*
X0143797Y0258500D01*
X0138797Y0258500D01*
X0141297Y0261000D01*
X0143797Y0258500D01*
X0148797Y0258500D01*
X0151297Y0261000D01*
X0153797Y0258500D01*
X0158797Y0258500D01*
X0161297Y0261000D01*
X0163797Y0258500D01*
X0168797Y0258500D01*
X0171297Y0261000D01*
X0173797Y0258500D01*
X0178797Y0258500D01*
X0181297Y0261000D01*
X0183797Y0258500D01*
X0188797Y0258500D01*
X0191297Y0261000D01*
X0193797Y0263500D01*
X0198797Y0263500D01*
X0201297Y0261000D01*
X0201297Y0268500D02*
X0201297Y0198500D01*
X0183797Y0198500D01*
X0181297Y0201000D01*
X0178797Y0198500D01*
X0173797Y0198500D01*
X0171297Y0201000D01*
X0168797Y0198500D01*
X0163797Y0198500D01*
X0161297Y0201000D01*
X0158797Y0198500D01*
X0153797Y0198500D01*
X0151297Y0201000D01*
X0148797Y0198500D01*
X0143797Y0198500D01*
X0141297Y0201000D01*
X0138797Y0198500D01*
X0133797Y0198500D01*
X0131297Y0201000D01*
X0128797Y0198500D01*
X0123797Y0198500D01*
X0128797Y0198500D02*
X0133797Y0198500D01*
X0138797Y0198500D02*
X0143797Y0198500D01*
X0141297Y0206000D02*
X0138797Y0208500D01*
X0133797Y0208500D01*
X0131297Y0206000D01*
X0128797Y0208500D01*
X0123797Y0208500D01*
X0121297Y0206000D01*
X0108797Y0198500D02*
X0103797Y0198500D01*
X0101297Y0201000D01*
X0098797Y0198500D01*
X0093797Y0198500D01*
X0091297Y0201000D01*
X0088797Y0198500D01*
X0083797Y0198500D01*
X0081297Y0201000D01*
X0078797Y0198500D01*
X0071297Y0198500D01*
X0078797Y0198500D02*
X0083797Y0198500D01*
X0088797Y0198500D02*
X0093797Y0198500D01*
X0098797Y0198500D02*
X0103797Y0198500D01*
X0101297Y0266000D02*
X0098797Y0268500D01*
X0163797Y0268500D01*
X0161297Y0266000D01*
X0158797Y0268500D01*
X0153797Y0268500D02*
X0151297Y0266000D01*
X0148797Y0268500D01*
X0143797Y0268500D02*
X0141297Y0266000D01*
X0138797Y0268500D01*
X0133797Y0268500D02*
X0131297Y0266000D01*
X0128797Y0268500D01*
X0123797Y0268500D02*
X0121297Y0266000D01*
X0118797Y0268500D01*
X0113797Y0268500D02*
X0111297Y0266000D01*
X0108797Y0268500D01*
X0103797Y0268500D02*
X0101297Y0266000D01*
X0098797Y0268500D02*
X0083797Y0268500D01*
X0088797Y0268500D02*
X0091297Y0266000D01*
X0093797Y0268500D01*
X0073797Y0268500D02*
X0071297Y0266000D01*
X0141297Y0206000D02*
X0143797Y0208500D01*
X0148797Y0208500D01*
X0151297Y0206000D01*
X0153797Y0208500D01*
X0158797Y0208500D01*
X0161297Y0206000D01*
X0163797Y0208500D01*
X0168797Y0208500D01*
X0171297Y0206000D01*
X0173797Y0208500D01*
X0178797Y0208500D01*
X0181297Y0206000D01*
X0183797Y0208500D01*
X0188797Y0208500D01*
X0191297Y0206000D01*
X0191297Y0211000D01*
X0193797Y0213500D01*
X0191297Y0216000D01*
X0191297Y0221000D01*
X0193797Y0223500D01*
X0191297Y0226000D01*
X0191297Y0231000D01*
X0193797Y0233500D01*
X0191297Y0236000D01*
X0191297Y0241000D01*
X0193797Y0243500D01*
X0191297Y0246000D01*
X0191297Y0251000D01*
X0193797Y0253500D01*
X0191297Y0256000D01*
X0191297Y0261000D01*
X0191297Y0266000D01*
X0188797Y0268500D01*
X0183797Y0268500D02*
X0181297Y0266000D01*
X0178797Y0268500D01*
X0173797Y0268500D02*
X0171297Y0266000D01*
X0168797Y0268500D01*
X0163797Y0268500D02*
X0201297Y0268500D01*
X0201297Y0256000D02*
X0198797Y0253500D01*
X0201297Y0251000D01*
X0201297Y0246000D02*
X0198797Y0243500D01*
X0201297Y0241000D01*
X0201297Y0236000D02*
X0198797Y0233500D01*
X0201297Y0231000D01*
X0201297Y0226000D02*
X0198797Y0223500D01*
X0201297Y0221000D01*
X0201297Y0216000D02*
X0198797Y0213500D01*
X0201297Y0211000D01*
X0201297Y0206000D02*
X0198797Y0203500D01*
X0193797Y0203500D01*
X0191297Y0206000D01*
X0191297Y0201000D01*
X0188797Y0198500D01*
X0183797Y0198500D02*
X0178797Y0198500D01*
X0173797Y0198500D02*
X0168797Y0198500D01*
X0163797Y0198500D02*
X0158797Y0198500D01*
X0153797Y0198500D02*
X0148797Y0198500D01*
M02*
00Y0198500D01*
X0098500Y0198500D02*
X0103500Y0198500D01*
M02*
