G75*
%MOIN*%
%OFA0B0*%
%FSLAX25Y25*%
%IPPOS*%
%LPD*%
%AMOC8*
5,1,8,0,0,1.08239X$1,22.5*
%
%ADD10C,0.00000*%
%ADD11C,0.14800*%
%ADD12R,0.05524X0.05524*%
%ADD13R,0.04737X0.06312*%
%ADD14R,0.06706X0.05918*%
%ADD15OC8,0.06800*%
%ADD16C,0.09650*%
%ADD17R,0.03400X0.08800*%
%ADD18R,0.06312X0.05131*%
%ADD19OC8,0.10249*%
%ADD20R,0.08674X0.06312*%
%ADD21R,0.06312X0.05839*%
%ADD22R,0.06312X0.08477*%
%ADD23R,0.06312X0.03556*%
%ADD24C,0.05721*%
%ADD25OC8,0.08200*%
%ADD26C,0.07400*%
%ADD27C,0.06737*%
%ADD28R,0.06700X0.08700*%
%ADD29R,0.15800X0.08700*%
%ADD30C,0.06000*%
%ADD31C,0.04800*%
D10*
X0001297Y0010767D02*
X0001000Y0385429D01*
X0001003Y0385640D01*
X0001010Y0385850D01*
X0001023Y0386061D01*
X0001041Y0386271D01*
X0001064Y0386480D01*
X0001092Y0386689D01*
X0001124Y0386897D01*
X0001162Y0387104D01*
X0001205Y0387311D01*
X0001253Y0387516D01*
X0001306Y0387720D01*
X0001364Y0387922D01*
X0001427Y0388124D01*
X0001494Y0388323D01*
X0001567Y0388521D01*
X0001644Y0388717D01*
X0001726Y0388911D01*
X0001812Y0389104D01*
X0001903Y0389294D01*
X0001999Y0389481D01*
X0002099Y0389667D01*
X0002204Y0389850D01*
X0002313Y0390030D01*
X0002426Y0390208D01*
X0002544Y0390383D01*
X0002665Y0390554D01*
X0002791Y0390723D01*
X0002921Y0390889D01*
X0003055Y0391052D01*
X0003193Y0391211D01*
X0003335Y0391367D01*
X0003480Y0391520D01*
X0003629Y0391669D01*
X0003782Y0391814D01*
X0003938Y0391956D01*
X0004097Y0392094D01*
X0004260Y0392228D01*
X0004426Y0392358D01*
X0004595Y0392484D01*
X0004766Y0392605D01*
X0004941Y0392723D01*
X0005119Y0392836D01*
X0005299Y0392945D01*
X0005482Y0393050D01*
X0005668Y0393150D01*
X0005855Y0393246D01*
X0006045Y0393337D01*
X0006238Y0393423D01*
X0006432Y0393505D01*
X0006628Y0393582D01*
X0006826Y0393655D01*
X0007025Y0393722D01*
X0007227Y0393785D01*
X0007429Y0393843D01*
X0007633Y0393896D01*
X0007838Y0393944D01*
X0008045Y0393987D01*
X0008252Y0394025D01*
X0008460Y0394057D01*
X0008669Y0394085D01*
X0008878Y0394108D01*
X0009088Y0394126D01*
X0009299Y0394139D01*
X0009509Y0394146D01*
X0009720Y0394149D01*
X0009720Y0394148D02*
X0203035Y0394148D01*
X0203226Y0394146D01*
X0203416Y0394139D01*
X0203606Y0394127D01*
X0203796Y0394111D01*
X0203986Y0394091D01*
X0204174Y0394065D01*
X0204363Y0394035D01*
X0204550Y0394001D01*
X0204737Y0393962D01*
X0204922Y0393919D01*
X0205107Y0393871D01*
X0205290Y0393819D01*
X0205472Y0393762D01*
X0205652Y0393701D01*
X0205831Y0393636D01*
X0206009Y0393566D01*
X0206184Y0393492D01*
X0206358Y0393414D01*
X0206530Y0393331D01*
X0206700Y0393245D01*
X0206867Y0393154D01*
X0207033Y0393059D01*
X0207196Y0392961D01*
X0207357Y0392858D01*
X0207515Y0392752D01*
X0207670Y0392642D01*
X0207823Y0392528D01*
X0207973Y0392411D01*
X0208120Y0392289D01*
X0208264Y0392165D01*
X0208405Y0392037D01*
X0208543Y0391905D01*
X0208678Y0391770D01*
X0208810Y0391632D01*
X0208938Y0391491D01*
X0209062Y0391347D01*
X0209184Y0391200D01*
X0209301Y0391050D01*
X0209415Y0390897D01*
X0209525Y0390742D01*
X0209631Y0390584D01*
X0209734Y0390423D01*
X0209832Y0390260D01*
X0209927Y0390094D01*
X0210018Y0389927D01*
X0210104Y0389757D01*
X0210187Y0389585D01*
X0210265Y0389411D01*
X0210339Y0389236D01*
X0210409Y0389058D01*
X0210474Y0388879D01*
X0210535Y0388699D01*
X0210592Y0388517D01*
X0210644Y0388334D01*
X0210692Y0388149D01*
X0210735Y0387964D01*
X0210774Y0387777D01*
X0210808Y0387590D01*
X0210838Y0387401D01*
X0210864Y0387213D01*
X0210884Y0387023D01*
X0210900Y0386833D01*
X0210912Y0386643D01*
X0210919Y0386453D01*
X0210921Y0386262D01*
X0211218Y0009978D01*
X0211215Y0009761D01*
X0211208Y0009544D01*
X0211194Y0009328D01*
X0211176Y0009111D01*
X0211153Y0008896D01*
X0211124Y0008681D01*
X0211090Y0008466D01*
X0211051Y0008253D01*
X0211006Y0008041D01*
X0210957Y0007829D01*
X0210903Y0007619D01*
X0210843Y0007411D01*
X0210779Y0007204D01*
X0210709Y0006998D01*
X0210635Y0006794D01*
X0210555Y0006592D01*
X0210471Y0006393D01*
X0210382Y0006195D01*
X0210288Y0005999D01*
X0210190Y0005806D01*
X0210086Y0005615D01*
X0209979Y0005427D01*
X0209867Y0005241D01*
X0209750Y0005058D01*
X0209629Y0004878D01*
X0209503Y0004701D01*
X0209374Y0004527D01*
X0209240Y0004356D01*
X0209102Y0004189D01*
X0208960Y0004024D01*
X0208814Y0003864D01*
X0208665Y0003707D01*
X0208511Y0003553D01*
X0208354Y0003404D01*
X0208194Y0003258D01*
X0208029Y0003116D01*
X0207862Y0002978D01*
X0207691Y0002844D01*
X0207517Y0002715D01*
X0207340Y0002589D01*
X0207160Y0002468D01*
X0206977Y0002351D01*
X0206791Y0002239D01*
X0206603Y0002132D01*
X0206412Y0002028D01*
X0206219Y0001930D01*
X0206023Y0001836D01*
X0205825Y0001747D01*
X0205626Y0001663D01*
X0205424Y0001583D01*
X0205220Y0001509D01*
X0205014Y0001439D01*
X0204807Y0001375D01*
X0204599Y0001315D01*
X0204389Y0001261D01*
X0204177Y0001212D01*
X0203965Y0001167D01*
X0203752Y0001128D01*
X0203537Y0001094D01*
X0203322Y0001065D01*
X0203107Y0001042D01*
X0202890Y0001024D01*
X0202674Y0001010D01*
X0202457Y0001003D01*
X0202240Y0001000D01*
X0011063Y0001000D01*
X0010827Y0001003D01*
X0010591Y0001011D01*
X0010356Y0001026D01*
X0010120Y0001046D01*
X0009886Y0001071D01*
X0009652Y0001102D01*
X0009419Y0001139D01*
X0009186Y0001182D01*
X0008955Y0001230D01*
X0008726Y0001284D01*
X0008497Y0001343D01*
X0008270Y0001408D01*
X0008045Y0001478D01*
X0007821Y0001554D01*
X0007600Y0001635D01*
X0007380Y0001721D01*
X0007162Y0001813D01*
X0006947Y0001910D01*
X0006734Y0002012D01*
X0006524Y0002119D01*
X0006316Y0002231D01*
X0006112Y0002348D01*
X0005910Y0002470D01*
X0005711Y0002597D01*
X0005515Y0002729D01*
X0005322Y0002865D01*
X0005133Y0003006D01*
X0004947Y0003152D01*
X0004765Y0003302D01*
X0004586Y0003456D01*
X0004412Y0003615D01*
X0004241Y0003778D01*
X0004074Y0003945D01*
X0003911Y0004116D01*
X0003752Y0004290D01*
X0003598Y0004469D01*
X0003448Y0004651D01*
X0003302Y0004837D01*
X0003161Y0005026D01*
X0003025Y0005219D01*
X0002893Y0005415D01*
X0002766Y0005614D01*
X0002644Y0005816D01*
X0002527Y0006020D01*
X0002415Y0006228D01*
X0002308Y0006438D01*
X0002206Y0006651D01*
X0002109Y0006866D01*
X0002017Y0007084D01*
X0001931Y0007304D01*
X0001850Y0007525D01*
X0001774Y0007749D01*
X0001704Y0007974D01*
X0001639Y0008201D01*
X0001580Y0008430D01*
X0001526Y0008659D01*
X0001478Y0008890D01*
X0001435Y0009123D01*
X0001398Y0009356D01*
X0001367Y0009590D01*
X0001342Y0009824D01*
X0001322Y0010060D01*
X0001307Y0010295D01*
X0001299Y0010531D01*
X0001296Y0010767D01*
X0024468Y0064839D02*
X0024470Y0065011D01*
X0024476Y0065182D01*
X0024487Y0065354D01*
X0024502Y0065525D01*
X0024521Y0065696D01*
X0024544Y0065866D01*
X0024571Y0066036D01*
X0024603Y0066205D01*
X0024638Y0066373D01*
X0024678Y0066540D01*
X0024722Y0066706D01*
X0024769Y0066871D01*
X0024821Y0067035D01*
X0024877Y0067197D01*
X0024937Y0067358D01*
X0025001Y0067518D01*
X0025069Y0067676D01*
X0025140Y0067832D01*
X0025215Y0067986D01*
X0025295Y0068139D01*
X0025377Y0068289D01*
X0025464Y0068438D01*
X0025554Y0068584D01*
X0025648Y0068728D01*
X0025745Y0068870D01*
X0025846Y0069009D01*
X0025950Y0069146D01*
X0026057Y0069280D01*
X0026168Y0069411D01*
X0026281Y0069540D01*
X0026398Y0069666D01*
X0026518Y0069789D01*
X0026641Y0069909D01*
X0026767Y0070026D01*
X0026896Y0070139D01*
X0027027Y0070250D01*
X0027161Y0070357D01*
X0027298Y0070461D01*
X0027437Y0070562D01*
X0027579Y0070659D01*
X0027723Y0070753D01*
X0027869Y0070843D01*
X0028018Y0070930D01*
X0028168Y0071012D01*
X0028321Y0071092D01*
X0028475Y0071167D01*
X0028631Y0071238D01*
X0028789Y0071306D01*
X0028949Y0071370D01*
X0029110Y0071430D01*
X0029272Y0071486D01*
X0029436Y0071538D01*
X0029601Y0071585D01*
X0029767Y0071629D01*
X0029934Y0071669D01*
X0030102Y0071704D01*
X0030271Y0071736D01*
X0030441Y0071763D01*
X0030611Y0071786D01*
X0030782Y0071805D01*
X0030953Y0071820D01*
X0031125Y0071831D01*
X0031296Y0071837D01*
X0031468Y0071839D01*
X0031640Y0071837D01*
X0031811Y0071831D01*
X0031983Y0071820D01*
X0032154Y0071805D01*
X0032325Y0071786D01*
X0032495Y0071763D01*
X0032665Y0071736D01*
X0032834Y0071704D01*
X0033002Y0071669D01*
X0033169Y0071629D01*
X0033335Y0071585D01*
X0033500Y0071538D01*
X0033664Y0071486D01*
X0033826Y0071430D01*
X0033987Y0071370D01*
X0034147Y0071306D01*
X0034305Y0071238D01*
X0034461Y0071167D01*
X0034615Y0071092D01*
X0034768Y0071012D01*
X0034918Y0070930D01*
X0035067Y0070843D01*
X0035213Y0070753D01*
X0035357Y0070659D01*
X0035499Y0070562D01*
X0035638Y0070461D01*
X0035775Y0070357D01*
X0035909Y0070250D01*
X0036040Y0070139D01*
X0036169Y0070026D01*
X0036295Y0069909D01*
X0036418Y0069789D01*
X0036538Y0069666D01*
X0036655Y0069540D01*
X0036768Y0069411D01*
X0036879Y0069280D01*
X0036986Y0069146D01*
X0037090Y0069009D01*
X0037191Y0068870D01*
X0037288Y0068728D01*
X0037382Y0068584D01*
X0037472Y0068438D01*
X0037559Y0068289D01*
X0037641Y0068139D01*
X0037721Y0067986D01*
X0037796Y0067832D01*
X0037867Y0067676D01*
X0037935Y0067518D01*
X0037999Y0067358D01*
X0038059Y0067197D01*
X0038115Y0067035D01*
X0038167Y0066871D01*
X0038214Y0066706D01*
X0038258Y0066540D01*
X0038298Y0066373D01*
X0038333Y0066205D01*
X0038365Y0066036D01*
X0038392Y0065866D01*
X0038415Y0065696D01*
X0038434Y0065525D01*
X0038449Y0065354D01*
X0038460Y0065182D01*
X0038466Y0065011D01*
X0038468Y0064839D01*
X0038466Y0064667D01*
X0038460Y0064496D01*
X0038449Y0064324D01*
X0038434Y0064153D01*
X0038415Y0063982D01*
X0038392Y0063812D01*
X0038365Y0063642D01*
X0038333Y0063473D01*
X0038298Y0063305D01*
X0038258Y0063138D01*
X0038214Y0062972D01*
X0038167Y0062807D01*
X0038115Y0062643D01*
X0038059Y0062481D01*
X0037999Y0062320D01*
X0037935Y0062160D01*
X0037867Y0062002D01*
X0037796Y0061846D01*
X0037721Y0061692D01*
X0037641Y0061539D01*
X0037559Y0061389D01*
X0037472Y0061240D01*
X0037382Y0061094D01*
X0037288Y0060950D01*
X0037191Y0060808D01*
X0037090Y0060669D01*
X0036986Y0060532D01*
X0036879Y0060398D01*
X0036768Y0060267D01*
X0036655Y0060138D01*
X0036538Y0060012D01*
X0036418Y0059889D01*
X0036295Y0059769D01*
X0036169Y0059652D01*
X0036040Y0059539D01*
X0035909Y0059428D01*
X0035775Y0059321D01*
X0035638Y0059217D01*
X0035499Y0059116D01*
X0035357Y0059019D01*
X0035213Y0058925D01*
X0035067Y0058835D01*
X0034918Y0058748D01*
X0034768Y0058666D01*
X0034615Y0058586D01*
X0034461Y0058511D01*
X0034305Y0058440D01*
X0034147Y0058372D01*
X0033987Y0058308D01*
X0033826Y0058248D01*
X0033664Y0058192D01*
X0033500Y0058140D01*
X0033335Y0058093D01*
X0033169Y0058049D01*
X0033002Y0058009D01*
X0032834Y0057974D01*
X0032665Y0057942D01*
X0032495Y0057915D01*
X0032325Y0057892D01*
X0032154Y0057873D01*
X0031983Y0057858D01*
X0031811Y0057847D01*
X0031640Y0057841D01*
X0031468Y0057839D01*
X0031296Y0057841D01*
X0031125Y0057847D01*
X0030953Y0057858D01*
X0030782Y0057873D01*
X0030611Y0057892D01*
X0030441Y0057915D01*
X0030271Y0057942D01*
X0030102Y0057974D01*
X0029934Y0058009D01*
X0029767Y0058049D01*
X0029601Y0058093D01*
X0029436Y0058140D01*
X0029272Y0058192D01*
X0029110Y0058248D01*
X0028949Y0058308D01*
X0028789Y0058372D01*
X0028631Y0058440D01*
X0028475Y0058511D01*
X0028321Y0058586D01*
X0028168Y0058666D01*
X0028018Y0058748D01*
X0027869Y0058835D01*
X0027723Y0058925D01*
X0027579Y0059019D01*
X0027437Y0059116D01*
X0027298Y0059217D01*
X0027161Y0059321D01*
X0027027Y0059428D01*
X0026896Y0059539D01*
X0026767Y0059652D01*
X0026641Y0059769D01*
X0026518Y0059889D01*
X0026398Y0060012D01*
X0026281Y0060138D01*
X0026168Y0060267D01*
X0026057Y0060398D01*
X0025950Y0060532D01*
X0025846Y0060669D01*
X0025745Y0060808D01*
X0025648Y0060950D01*
X0025554Y0061094D01*
X0025464Y0061240D01*
X0025377Y0061389D01*
X0025295Y0061539D01*
X0025215Y0061692D01*
X0025140Y0061846D01*
X0025069Y0062002D01*
X0025001Y0062160D01*
X0024937Y0062320D01*
X0024877Y0062481D01*
X0024821Y0062643D01*
X0024769Y0062807D01*
X0024722Y0062972D01*
X0024678Y0063138D01*
X0024638Y0063305D01*
X0024603Y0063473D01*
X0024571Y0063642D01*
X0024544Y0063812D01*
X0024521Y0063982D01*
X0024502Y0064153D01*
X0024487Y0064324D01*
X0024476Y0064496D01*
X0024470Y0064667D01*
X0024468Y0064839D01*
X0024536Y0088621D02*
X0024538Y0088793D01*
X0024544Y0088964D01*
X0024555Y0089136D01*
X0024570Y0089307D01*
X0024589Y0089478D01*
X0024612Y0089648D01*
X0024639Y0089818D01*
X0024671Y0089987D01*
X0024706Y0090155D01*
X0024746Y0090322D01*
X0024790Y0090488D01*
X0024837Y0090653D01*
X0024889Y0090817D01*
X0024945Y0090979D01*
X0025005Y0091140D01*
X0025069Y0091300D01*
X0025137Y0091458D01*
X0025208Y0091614D01*
X0025283Y0091768D01*
X0025363Y0091921D01*
X0025445Y0092071D01*
X0025532Y0092220D01*
X0025622Y0092366D01*
X0025716Y0092510D01*
X0025813Y0092652D01*
X0025914Y0092791D01*
X0026018Y0092928D01*
X0026125Y0093062D01*
X0026236Y0093193D01*
X0026349Y0093322D01*
X0026466Y0093448D01*
X0026586Y0093571D01*
X0026709Y0093691D01*
X0026835Y0093808D01*
X0026964Y0093921D01*
X0027095Y0094032D01*
X0027229Y0094139D01*
X0027366Y0094243D01*
X0027505Y0094344D01*
X0027647Y0094441D01*
X0027791Y0094535D01*
X0027937Y0094625D01*
X0028086Y0094712D01*
X0028236Y0094794D01*
X0028389Y0094874D01*
X0028543Y0094949D01*
X0028699Y0095020D01*
X0028857Y0095088D01*
X0029017Y0095152D01*
X0029178Y0095212D01*
X0029340Y0095268D01*
X0029504Y0095320D01*
X0029669Y0095367D01*
X0029835Y0095411D01*
X0030002Y0095451D01*
X0030170Y0095486D01*
X0030339Y0095518D01*
X0030509Y0095545D01*
X0030679Y0095568D01*
X0030850Y0095587D01*
X0031021Y0095602D01*
X0031193Y0095613D01*
X0031364Y0095619D01*
X0031536Y0095621D01*
X0031708Y0095619D01*
X0031879Y0095613D01*
X0032051Y0095602D01*
X0032222Y0095587D01*
X0032393Y0095568D01*
X0032563Y0095545D01*
X0032733Y0095518D01*
X0032902Y0095486D01*
X0033070Y0095451D01*
X0033237Y0095411D01*
X0033403Y0095367D01*
X0033568Y0095320D01*
X0033732Y0095268D01*
X0033894Y0095212D01*
X0034055Y0095152D01*
X0034215Y0095088D01*
X0034373Y0095020D01*
X0034529Y0094949D01*
X0034683Y0094874D01*
X0034836Y0094794D01*
X0034986Y0094712D01*
X0035135Y0094625D01*
X0035281Y0094535D01*
X0035425Y0094441D01*
X0035567Y0094344D01*
X0035706Y0094243D01*
X0035843Y0094139D01*
X0035977Y0094032D01*
X0036108Y0093921D01*
X0036237Y0093808D01*
X0036363Y0093691D01*
X0036486Y0093571D01*
X0036606Y0093448D01*
X0036723Y0093322D01*
X0036836Y0093193D01*
X0036947Y0093062D01*
X0037054Y0092928D01*
X0037158Y0092791D01*
X0037259Y0092652D01*
X0037356Y0092510D01*
X0037450Y0092366D01*
X0037540Y0092220D01*
X0037627Y0092071D01*
X0037709Y0091921D01*
X0037789Y0091768D01*
X0037864Y0091614D01*
X0037935Y0091458D01*
X0038003Y0091300D01*
X0038067Y0091140D01*
X0038127Y0090979D01*
X0038183Y0090817D01*
X0038235Y0090653D01*
X0038282Y0090488D01*
X0038326Y0090322D01*
X0038366Y0090155D01*
X0038401Y0089987D01*
X0038433Y0089818D01*
X0038460Y0089648D01*
X0038483Y0089478D01*
X0038502Y0089307D01*
X0038517Y0089136D01*
X0038528Y0088964D01*
X0038534Y0088793D01*
X0038536Y0088621D01*
X0038534Y0088449D01*
X0038528Y0088278D01*
X0038517Y0088106D01*
X0038502Y0087935D01*
X0038483Y0087764D01*
X0038460Y0087594D01*
X0038433Y0087424D01*
X0038401Y0087255D01*
X0038366Y0087087D01*
X0038326Y0086920D01*
X0038282Y0086754D01*
X0038235Y0086589D01*
X0038183Y0086425D01*
X0038127Y0086263D01*
X0038067Y0086102D01*
X0038003Y0085942D01*
X0037935Y0085784D01*
X0037864Y0085628D01*
X0037789Y0085474D01*
X0037709Y0085321D01*
X0037627Y0085171D01*
X0037540Y0085022D01*
X0037450Y0084876D01*
X0037356Y0084732D01*
X0037259Y0084590D01*
X0037158Y0084451D01*
X0037054Y0084314D01*
X0036947Y0084180D01*
X0036836Y0084049D01*
X0036723Y0083920D01*
X0036606Y0083794D01*
X0036486Y0083671D01*
X0036363Y0083551D01*
X0036237Y0083434D01*
X0036108Y0083321D01*
X0035977Y0083210D01*
X0035843Y0083103D01*
X0035706Y0082999D01*
X0035567Y0082898D01*
X0035425Y0082801D01*
X0035281Y0082707D01*
X0035135Y0082617D01*
X0034986Y0082530D01*
X0034836Y0082448D01*
X0034683Y0082368D01*
X0034529Y0082293D01*
X0034373Y0082222D01*
X0034215Y0082154D01*
X0034055Y0082090D01*
X0033894Y0082030D01*
X0033732Y0081974D01*
X0033568Y0081922D01*
X0033403Y0081875D01*
X0033237Y0081831D01*
X0033070Y0081791D01*
X0032902Y0081756D01*
X0032733Y0081724D01*
X0032563Y0081697D01*
X0032393Y0081674D01*
X0032222Y0081655D01*
X0032051Y0081640D01*
X0031879Y0081629D01*
X0031708Y0081623D01*
X0031536Y0081621D01*
X0031364Y0081623D01*
X0031193Y0081629D01*
X0031021Y0081640D01*
X0030850Y0081655D01*
X0030679Y0081674D01*
X0030509Y0081697D01*
X0030339Y0081724D01*
X0030170Y0081756D01*
X0030002Y0081791D01*
X0029835Y0081831D01*
X0029669Y0081875D01*
X0029504Y0081922D01*
X0029340Y0081974D01*
X0029178Y0082030D01*
X0029017Y0082090D01*
X0028857Y0082154D01*
X0028699Y0082222D01*
X0028543Y0082293D01*
X0028389Y0082368D01*
X0028236Y0082448D01*
X0028086Y0082530D01*
X0027937Y0082617D01*
X0027791Y0082707D01*
X0027647Y0082801D01*
X0027505Y0082898D01*
X0027366Y0082999D01*
X0027229Y0083103D01*
X0027095Y0083210D01*
X0026964Y0083321D01*
X0026835Y0083434D01*
X0026709Y0083551D01*
X0026586Y0083671D01*
X0026466Y0083794D01*
X0026349Y0083920D01*
X0026236Y0084049D01*
X0026125Y0084180D01*
X0026018Y0084314D01*
X0025914Y0084451D01*
X0025813Y0084590D01*
X0025716Y0084732D01*
X0025622Y0084876D01*
X0025532Y0085022D01*
X0025445Y0085171D01*
X0025363Y0085321D01*
X0025283Y0085474D01*
X0025208Y0085628D01*
X0025137Y0085784D01*
X0025069Y0085942D01*
X0025005Y0086102D01*
X0024945Y0086263D01*
X0024889Y0086425D01*
X0024837Y0086589D01*
X0024790Y0086754D01*
X0024746Y0086920D01*
X0024706Y0087087D01*
X0024671Y0087255D01*
X0024639Y0087424D01*
X0024612Y0087594D01*
X0024589Y0087764D01*
X0024570Y0087935D01*
X0024555Y0088106D01*
X0024544Y0088278D01*
X0024538Y0088449D01*
X0024536Y0088621D01*
X0026797Y0026000D02*
X0026799Y0026172D01*
X0026805Y0026343D01*
X0026816Y0026515D01*
X0026831Y0026686D01*
X0026850Y0026857D01*
X0026873Y0027027D01*
X0026900Y0027197D01*
X0026932Y0027366D01*
X0026967Y0027534D01*
X0027007Y0027701D01*
X0027051Y0027867D01*
X0027098Y0028032D01*
X0027150Y0028196D01*
X0027206Y0028358D01*
X0027266Y0028519D01*
X0027330Y0028679D01*
X0027398Y0028837D01*
X0027469Y0028993D01*
X0027544Y0029147D01*
X0027624Y0029300D01*
X0027706Y0029450D01*
X0027793Y0029599D01*
X0027883Y0029745D01*
X0027977Y0029889D01*
X0028074Y0030031D01*
X0028175Y0030170D01*
X0028279Y0030307D01*
X0028386Y0030441D01*
X0028497Y0030572D01*
X0028610Y0030701D01*
X0028727Y0030827D01*
X0028847Y0030950D01*
X0028970Y0031070D01*
X0029096Y0031187D01*
X0029225Y0031300D01*
X0029356Y0031411D01*
X0029490Y0031518D01*
X0029627Y0031622D01*
X0029766Y0031723D01*
X0029908Y0031820D01*
X0030052Y0031914D01*
X0030198Y0032004D01*
X0030347Y0032091D01*
X0030497Y0032173D01*
X0030650Y0032253D01*
X0030804Y0032328D01*
X0030960Y0032399D01*
X0031118Y0032467D01*
X0031278Y0032531D01*
X0031439Y0032591D01*
X0031601Y0032647D01*
X0031765Y0032699D01*
X0031930Y0032746D01*
X0032096Y0032790D01*
X0032263Y0032830D01*
X0032431Y0032865D01*
X0032600Y0032897D01*
X0032770Y0032924D01*
X0032940Y0032947D01*
X0033111Y0032966D01*
X0033282Y0032981D01*
X0033454Y0032992D01*
X0033625Y0032998D01*
X0033797Y0033000D01*
X0033969Y0032998D01*
X0034140Y0032992D01*
X0034312Y0032981D01*
X0034483Y0032966D01*
X0034654Y0032947D01*
X0034824Y0032924D01*
X0034994Y0032897D01*
X0035163Y0032865D01*
X0035331Y0032830D01*
X0035498Y0032790D01*
X0035664Y0032746D01*
X0035829Y0032699D01*
X0035993Y0032647D01*
X0036155Y0032591D01*
X0036316Y0032531D01*
X0036476Y0032467D01*
X0036634Y0032399D01*
X0036790Y0032328D01*
X0036944Y0032253D01*
X0037097Y0032173D01*
X0037247Y0032091D01*
X0037396Y0032004D01*
X0037542Y0031914D01*
X0037686Y0031820D01*
X0037828Y0031723D01*
X0037967Y0031622D01*
X0038104Y0031518D01*
X0038238Y0031411D01*
X0038369Y0031300D01*
X0038498Y0031187D01*
X0038624Y0031070D01*
X0038747Y0030950D01*
X0038867Y0030827D01*
X0038984Y0030701D01*
X0039097Y0030572D01*
X0039208Y0030441D01*
X0039315Y0030307D01*
X0039419Y0030170D01*
X0039520Y0030031D01*
X0039617Y0029889D01*
X0039711Y0029745D01*
X0039801Y0029599D01*
X0039888Y0029450D01*
X0039970Y0029300D01*
X0040050Y0029147D01*
X0040125Y0028993D01*
X0040196Y0028837D01*
X0040264Y0028679D01*
X0040328Y0028519D01*
X0040388Y0028358D01*
X0040444Y0028196D01*
X0040496Y0028032D01*
X0040543Y0027867D01*
X0040587Y0027701D01*
X0040627Y0027534D01*
X0040662Y0027366D01*
X0040694Y0027197D01*
X0040721Y0027027D01*
X0040744Y0026857D01*
X0040763Y0026686D01*
X0040778Y0026515D01*
X0040789Y0026343D01*
X0040795Y0026172D01*
X0040797Y0026000D01*
X0040795Y0025828D01*
X0040789Y0025657D01*
X0040778Y0025485D01*
X0040763Y0025314D01*
X0040744Y0025143D01*
X0040721Y0024973D01*
X0040694Y0024803D01*
X0040662Y0024634D01*
X0040627Y0024466D01*
X0040587Y0024299D01*
X0040543Y0024133D01*
X0040496Y0023968D01*
X0040444Y0023804D01*
X0040388Y0023642D01*
X0040328Y0023481D01*
X0040264Y0023321D01*
X0040196Y0023163D01*
X0040125Y0023007D01*
X0040050Y0022853D01*
X0039970Y0022700D01*
X0039888Y0022550D01*
X0039801Y0022401D01*
X0039711Y0022255D01*
X0039617Y0022111D01*
X0039520Y0021969D01*
X0039419Y0021830D01*
X0039315Y0021693D01*
X0039208Y0021559D01*
X0039097Y0021428D01*
X0038984Y0021299D01*
X0038867Y0021173D01*
X0038747Y0021050D01*
X0038624Y0020930D01*
X0038498Y0020813D01*
X0038369Y0020700D01*
X0038238Y0020589D01*
X0038104Y0020482D01*
X0037967Y0020378D01*
X0037828Y0020277D01*
X0037686Y0020180D01*
X0037542Y0020086D01*
X0037396Y0019996D01*
X0037247Y0019909D01*
X0037097Y0019827D01*
X0036944Y0019747D01*
X0036790Y0019672D01*
X0036634Y0019601D01*
X0036476Y0019533D01*
X0036316Y0019469D01*
X0036155Y0019409D01*
X0035993Y0019353D01*
X0035829Y0019301D01*
X0035664Y0019254D01*
X0035498Y0019210D01*
X0035331Y0019170D01*
X0035163Y0019135D01*
X0034994Y0019103D01*
X0034824Y0019076D01*
X0034654Y0019053D01*
X0034483Y0019034D01*
X0034312Y0019019D01*
X0034140Y0019008D01*
X0033969Y0019002D01*
X0033797Y0019000D01*
X0033625Y0019002D01*
X0033454Y0019008D01*
X0033282Y0019019D01*
X0033111Y0019034D01*
X0032940Y0019053D01*
X0032770Y0019076D01*
X0032600Y0019103D01*
X0032431Y0019135D01*
X0032263Y0019170D01*
X0032096Y0019210D01*
X0031930Y0019254D01*
X0031765Y0019301D01*
X0031601Y0019353D01*
X0031439Y0019409D01*
X0031278Y0019469D01*
X0031118Y0019533D01*
X0030960Y0019601D01*
X0030804Y0019672D01*
X0030650Y0019747D01*
X0030497Y0019827D01*
X0030347Y0019909D01*
X0030198Y0019996D01*
X0030052Y0020086D01*
X0029908Y0020180D01*
X0029766Y0020277D01*
X0029627Y0020378D01*
X0029490Y0020482D01*
X0029356Y0020589D01*
X0029225Y0020700D01*
X0029096Y0020813D01*
X0028970Y0020930D01*
X0028847Y0021050D01*
X0028727Y0021173D01*
X0028610Y0021299D01*
X0028497Y0021428D01*
X0028386Y0021559D01*
X0028279Y0021693D01*
X0028175Y0021830D01*
X0028074Y0021969D01*
X0027977Y0022111D01*
X0027883Y0022255D01*
X0027793Y0022401D01*
X0027706Y0022550D01*
X0027624Y0022700D01*
X0027544Y0022853D01*
X0027469Y0023007D01*
X0027398Y0023163D01*
X0027330Y0023321D01*
X0027266Y0023481D01*
X0027206Y0023642D01*
X0027150Y0023804D01*
X0027098Y0023968D01*
X0027051Y0024133D01*
X0027007Y0024299D01*
X0026967Y0024466D01*
X0026932Y0024634D01*
X0026900Y0024803D01*
X0026873Y0024973D01*
X0026850Y0025143D01*
X0026831Y0025314D01*
X0026816Y0025485D01*
X0026805Y0025657D01*
X0026799Y0025828D01*
X0026797Y0026000D01*
X0016041Y0308795D02*
X0016043Y0308894D01*
X0016049Y0308993D01*
X0016059Y0309092D01*
X0016073Y0309190D01*
X0016091Y0309287D01*
X0016113Y0309384D01*
X0016138Y0309480D01*
X0016168Y0309574D01*
X0016201Y0309668D01*
X0016238Y0309760D01*
X0016279Y0309850D01*
X0016323Y0309939D01*
X0016371Y0310025D01*
X0016422Y0310110D01*
X0016477Y0310193D01*
X0016535Y0310273D01*
X0016596Y0310351D01*
X0016660Y0310427D01*
X0016727Y0310500D01*
X0016797Y0310570D01*
X0016870Y0310637D01*
X0016946Y0310701D01*
X0017024Y0310762D01*
X0017104Y0310820D01*
X0017187Y0310875D01*
X0017271Y0310926D01*
X0017358Y0310974D01*
X0017447Y0311018D01*
X0017537Y0311059D01*
X0017629Y0311096D01*
X0017723Y0311129D01*
X0017817Y0311159D01*
X0017913Y0311184D01*
X0018010Y0311206D01*
X0018107Y0311224D01*
X0018205Y0311238D01*
X0018304Y0311248D01*
X0018403Y0311254D01*
X0018502Y0311256D01*
X0018601Y0311254D01*
X0018700Y0311248D01*
X0018799Y0311238D01*
X0018897Y0311224D01*
X0018994Y0311206D01*
X0019091Y0311184D01*
X0019187Y0311159D01*
X0019281Y0311129D01*
X0019375Y0311096D01*
X0019467Y0311059D01*
X0019557Y0311018D01*
X0019646Y0310974D01*
X0019732Y0310926D01*
X0019817Y0310875D01*
X0019900Y0310820D01*
X0019980Y0310762D01*
X0020058Y0310701D01*
X0020134Y0310637D01*
X0020207Y0310570D01*
X0020277Y0310500D01*
X0020344Y0310427D01*
X0020408Y0310351D01*
X0020469Y0310273D01*
X0020527Y0310193D01*
X0020582Y0310110D01*
X0020633Y0310026D01*
X0020681Y0309939D01*
X0020725Y0309850D01*
X0020766Y0309760D01*
X0020803Y0309668D01*
X0020836Y0309574D01*
X0020866Y0309480D01*
X0020891Y0309384D01*
X0020913Y0309287D01*
X0020931Y0309190D01*
X0020945Y0309092D01*
X0020955Y0308993D01*
X0020961Y0308894D01*
X0020963Y0308795D01*
X0020961Y0308696D01*
X0020955Y0308597D01*
X0020945Y0308498D01*
X0020931Y0308400D01*
X0020913Y0308303D01*
X0020891Y0308206D01*
X0020866Y0308110D01*
X0020836Y0308016D01*
X0020803Y0307922D01*
X0020766Y0307830D01*
X0020725Y0307740D01*
X0020681Y0307651D01*
X0020633Y0307565D01*
X0020582Y0307480D01*
X0020527Y0307397D01*
X0020469Y0307317D01*
X0020408Y0307239D01*
X0020344Y0307163D01*
X0020277Y0307090D01*
X0020207Y0307020D01*
X0020134Y0306953D01*
X0020058Y0306889D01*
X0019980Y0306828D01*
X0019900Y0306770D01*
X0019817Y0306715D01*
X0019733Y0306664D01*
X0019646Y0306616D01*
X0019557Y0306572D01*
X0019467Y0306531D01*
X0019375Y0306494D01*
X0019281Y0306461D01*
X0019187Y0306431D01*
X0019091Y0306406D01*
X0018994Y0306384D01*
X0018897Y0306366D01*
X0018799Y0306352D01*
X0018700Y0306342D01*
X0018601Y0306336D01*
X0018502Y0306334D01*
X0018403Y0306336D01*
X0018304Y0306342D01*
X0018205Y0306352D01*
X0018107Y0306366D01*
X0018010Y0306384D01*
X0017913Y0306406D01*
X0017817Y0306431D01*
X0017723Y0306461D01*
X0017629Y0306494D01*
X0017537Y0306531D01*
X0017447Y0306572D01*
X0017358Y0306616D01*
X0017272Y0306664D01*
X0017187Y0306715D01*
X0017104Y0306770D01*
X0017024Y0306828D01*
X0016946Y0306889D01*
X0016870Y0306953D01*
X0016797Y0307020D01*
X0016727Y0307090D01*
X0016660Y0307163D01*
X0016596Y0307239D01*
X0016535Y0307317D01*
X0016477Y0307397D01*
X0016422Y0307480D01*
X0016371Y0307564D01*
X0016323Y0307651D01*
X0016279Y0307740D01*
X0016238Y0307830D01*
X0016201Y0307922D01*
X0016168Y0308016D01*
X0016138Y0308110D01*
X0016113Y0308206D01*
X0016091Y0308303D01*
X0016073Y0308400D01*
X0016059Y0308498D01*
X0016049Y0308597D01*
X0016043Y0308696D01*
X0016041Y0308795D01*
X0016041Y0340291D02*
X0016043Y0340390D01*
X0016049Y0340489D01*
X0016059Y0340588D01*
X0016073Y0340686D01*
X0016091Y0340783D01*
X0016113Y0340880D01*
X0016138Y0340976D01*
X0016168Y0341070D01*
X0016201Y0341164D01*
X0016238Y0341256D01*
X0016279Y0341346D01*
X0016323Y0341435D01*
X0016371Y0341521D01*
X0016422Y0341606D01*
X0016477Y0341689D01*
X0016535Y0341769D01*
X0016596Y0341847D01*
X0016660Y0341923D01*
X0016727Y0341996D01*
X0016797Y0342066D01*
X0016870Y0342133D01*
X0016946Y0342197D01*
X0017024Y0342258D01*
X0017104Y0342316D01*
X0017187Y0342371D01*
X0017271Y0342422D01*
X0017358Y0342470D01*
X0017447Y0342514D01*
X0017537Y0342555D01*
X0017629Y0342592D01*
X0017723Y0342625D01*
X0017817Y0342655D01*
X0017913Y0342680D01*
X0018010Y0342702D01*
X0018107Y0342720D01*
X0018205Y0342734D01*
X0018304Y0342744D01*
X0018403Y0342750D01*
X0018502Y0342752D01*
X0018601Y0342750D01*
X0018700Y0342744D01*
X0018799Y0342734D01*
X0018897Y0342720D01*
X0018994Y0342702D01*
X0019091Y0342680D01*
X0019187Y0342655D01*
X0019281Y0342625D01*
X0019375Y0342592D01*
X0019467Y0342555D01*
X0019557Y0342514D01*
X0019646Y0342470D01*
X0019732Y0342422D01*
X0019817Y0342371D01*
X0019900Y0342316D01*
X0019980Y0342258D01*
X0020058Y0342197D01*
X0020134Y0342133D01*
X0020207Y0342066D01*
X0020277Y0341996D01*
X0020344Y0341923D01*
X0020408Y0341847D01*
X0020469Y0341769D01*
X0020527Y0341689D01*
X0020582Y0341606D01*
X0020633Y0341522D01*
X0020681Y0341435D01*
X0020725Y0341346D01*
X0020766Y0341256D01*
X0020803Y0341164D01*
X0020836Y0341070D01*
X0020866Y0340976D01*
X0020891Y0340880D01*
X0020913Y0340783D01*
X0020931Y0340686D01*
X0020945Y0340588D01*
X0020955Y0340489D01*
X0020961Y0340390D01*
X0020963Y0340291D01*
X0020961Y0340192D01*
X0020955Y0340093D01*
X0020945Y0339994D01*
X0020931Y0339896D01*
X0020913Y0339799D01*
X0020891Y0339702D01*
X0020866Y0339606D01*
X0020836Y0339512D01*
X0020803Y0339418D01*
X0020766Y0339326D01*
X0020725Y0339236D01*
X0020681Y0339147D01*
X0020633Y0339061D01*
X0020582Y0338976D01*
X0020527Y0338893D01*
X0020469Y0338813D01*
X0020408Y0338735D01*
X0020344Y0338659D01*
X0020277Y0338586D01*
X0020207Y0338516D01*
X0020134Y0338449D01*
X0020058Y0338385D01*
X0019980Y0338324D01*
X0019900Y0338266D01*
X0019817Y0338211D01*
X0019733Y0338160D01*
X0019646Y0338112D01*
X0019557Y0338068D01*
X0019467Y0338027D01*
X0019375Y0337990D01*
X0019281Y0337957D01*
X0019187Y0337927D01*
X0019091Y0337902D01*
X0018994Y0337880D01*
X0018897Y0337862D01*
X0018799Y0337848D01*
X0018700Y0337838D01*
X0018601Y0337832D01*
X0018502Y0337830D01*
X0018403Y0337832D01*
X0018304Y0337838D01*
X0018205Y0337848D01*
X0018107Y0337862D01*
X0018010Y0337880D01*
X0017913Y0337902D01*
X0017817Y0337927D01*
X0017723Y0337957D01*
X0017629Y0337990D01*
X0017537Y0338027D01*
X0017447Y0338068D01*
X0017358Y0338112D01*
X0017272Y0338160D01*
X0017187Y0338211D01*
X0017104Y0338266D01*
X0017024Y0338324D01*
X0016946Y0338385D01*
X0016870Y0338449D01*
X0016797Y0338516D01*
X0016727Y0338586D01*
X0016660Y0338659D01*
X0016596Y0338735D01*
X0016535Y0338813D01*
X0016477Y0338893D01*
X0016422Y0338976D01*
X0016371Y0339060D01*
X0016323Y0339147D01*
X0016279Y0339236D01*
X0016238Y0339326D01*
X0016201Y0339418D01*
X0016168Y0339512D01*
X0016138Y0339606D01*
X0016113Y0339702D01*
X0016091Y0339799D01*
X0016073Y0339896D01*
X0016059Y0339994D01*
X0016049Y0340093D01*
X0016043Y0340192D01*
X0016041Y0340291D01*
X0171797Y0026000D02*
X0171799Y0026172D01*
X0171805Y0026343D01*
X0171816Y0026515D01*
X0171831Y0026686D01*
X0171850Y0026857D01*
X0171873Y0027027D01*
X0171900Y0027197D01*
X0171932Y0027366D01*
X0171967Y0027534D01*
X0172007Y0027701D01*
X0172051Y0027867D01*
X0172098Y0028032D01*
X0172150Y0028196D01*
X0172206Y0028358D01*
X0172266Y0028519D01*
X0172330Y0028679D01*
X0172398Y0028837D01*
X0172469Y0028993D01*
X0172544Y0029147D01*
X0172624Y0029300D01*
X0172706Y0029450D01*
X0172793Y0029599D01*
X0172883Y0029745D01*
X0172977Y0029889D01*
X0173074Y0030031D01*
X0173175Y0030170D01*
X0173279Y0030307D01*
X0173386Y0030441D01*
X0173497Y0030572D01*
X0173610Y0030701D01*
X0173727Y0030827D01*
X0173847Y0030950D01*
X0173970Y0031070D01*
X0174096Y0031187D01*
X0174225Y0031300D01*
X0174356Y0031411D01*
X0174490Y0031518D01*
X0174627Y0031622D01*
X0174766Y0031723D01*
X0174908Y0031820D01*
X0175052Y0031914D01*
X0175198Y0032004D01*
X0175347Y0032091D01*
X0175497Y0032173D01*
X0175650Y0032253D01*
X0175804Y0032328D01*
X0175960Y0032399D01*
X0176118Y0032467D01*
X0176278Y0032531D01*
X0176439Y0032591D01*
X0176601Y0032647D01*
X0176765Y0032699D01*
X0176930Y0032746D01*
X0177096Y0032790D01*
X0177263Y0032830D01*
X0177431Y0032865D01*
X0177600Y0032897D01*
X0177770Y0032924D01*
X0177940Y0032947D01*
X0178111Y0032966D01*
X0178282Y0032981D01*
X0178454Y0032992D01*
X0178625Y0032998D01*
X0178797Y0033000D01*
X0178969Y0032998D01*
X0179140Y0032992D01*
X0179312Y0032981D01*
X0179483Y0032966D01*
X0179654Y0032947D01*
X0179824Y0032924D01*
X0179994Y0032897D01*
X0180163Y0032865D01*
X0180331Y0032830D01*
X0180498Y0032790D01*
X0180664Y0032746D01*
X0180829Y0032699D01*
X0180993Y0032647D01*
X0181155Y0032591D01*
X0181316Y0032531D01*
X0181476Y0032467D01*
X0181634Y0032399D01*
X0181790Y0032328D01*
X0181944Y0032253D01*
X0182097Y0032173D01*
X0182247Y0032091D01*
X0182396Y0032004D01*
X0182542Y0031914D01*
X0182686Y0031820D01*
X0182828Y0031723D01*
X0182967Y0031622D01*
X0183104Y0031518D01*
X0183238Y0031411D01*
X0183369Y0031300D01*
X0183498Y0031187D01*
X0183624Y0031070D01*
X0183747Y0030950D01*
X0183867Y0030827D01*
X0183984Y0030701D01*
X0184097Y0030572D01*
X0184208Y0030441D01*
X0184315Y0030307D01*
X0184419Y0030170D01*
X0184520Y0030031D01*
X0184617Y0029889D01*
X0184711Y0029745D01*
X0184801Y0029599D01*
X0184888Y0029450D01*
X0184970Y0029300D01*
X0185050Y0029147D01*
X0185125Y0028993D01*
X0185196Y0028837D01*
X0185264Y0028679D01*
X0185328Y0028519D01*
X0185388Y0028358D01*
X0185444Y0028196D01*
X0185496Y0028032D01*
X0185543Y0027867D01*
X0185587Y0027701D01*
X0185627Y0027534D01*
X0185662Y0027366D01*
X0185694Y0027197D01*
X0185721Y0027027D01*
X0185744Y0026857D01*
X0185763Y0026686D01*
X0185778Y0026515D01*
X0185789Y0026343D01*
X0185795Y0026172D01*
X0185797Y0026000D01*
X0185795Y0025828D01*
X0185789Y0025657D01*
X0185778Y0025485D01*
X0185763Y0025314D01*
X0185744Y0025143D01*
X0185721Y0024973D01*
X0185694Y0024803D01*
X0185662Y0024634D01*
X0185627Y0024466D01*
X0185587Y0024299D01*
X0185543Y0024133D01*
X0185496Y0023968D01*
X0185444Y0023804D01*
X0185388Y0023642D01*
X0185328Y0023481D01*
X0185264Y0023321D01*
X0185196Y0023163D01*
X0185125Y0023007D01*
X0185050Y0022853D01*
X0184970Y0022700D01*
X0184888Y0022550D01*
X0184801Y0022401D01*
X0184711Y0022255D01*
X0184617Y0022111D01*
X0184520Y0021969D01*
X0184419Y0021830D01*
X0184315Y0021693D01*
X0184208Y0021559D01*
X0184097Y0021428D01*
X0183984Y0021299D01*
X0183867Y0021173D01*
X0183747Y0021050D01*
X0183624Y0020930D01*
X0183498Y0020813D01*
X0183369Y0020700D01*
X0183238Y0020589D01*
X0183104Y0020482D01*
X0182967Y0020378D01*
X0182828Y0020277D01*
X0182686Y0020180D01*
X0182542Y0020086D01*
X0182396Y0019996D01*
X0182247Y0019909D01*
X0182097Y0019827D01*
X0181944Y0019747D01*
X0181790Y0019672D01*
X0181634Y0019601D01*
X0181476Y0019533D01*
X0181316Y0019469D01*
X0181155Y0019409D01*
X0180993Y0019353D01*
X0180829Y0019301D01*
X0180664Y0019254D01*
X0180498Y0019210D01*
X0180331Y0019170D01*
X0180163Y0019135D01*
X0179994Y0019103D01*
X0179824Y0019076D01*
X0179654Y0019053D01*
X0179483Y0019034D01*
X0179312Y0019019D01*
X0179140Y0019008D01*
X0178969Y0019002D01*
X0178797Y0019000D01*
X0178625Y0019002D01*
X0178454Y0019008D01*
X0178282Y0019019D01*
X0178111Y0019034D01*
X0177940Y0019053D01*
X0177770Y0019076D01*
X0177600Y0019103D01*
X0177431Y0019135D01*
X0177263Y0019170D01*
X0177096Y0019210D01*
X0176930Y0019254D01*
X0176765Y0019301D01*
X0176601Y0019353D01*
X0176439Y0019409D01*
X0176278Y0019469D01*
X0176118Y0019533D01*
X0175960Y0019601D01*
X0175804Y0019672D01*
X0175650Y0019747D01*
X0175497Y0019827D01*
X0175347Y0019909D01*
X0175198Y0019996D01*
X0175052Y0020086D01*
X0174908Y0020180D01*
X0174766Y0020277D01*
X0174627Y0020378D01*
X0174490Y0020482D01*
X0174356Y0020589D01*
X0174225Y0020700D01*
X0174096Y0020813D01*
X0173970Y0020930D01*
X0173847Y0021050D01*
X0173727Y0021173D01*
X0173610Y0021299D01*
X0173497Y0021428D01*
X0173386Y0021559D01*
X0173279Y0021693D01*
X0173175Y0021830D01*
X0173074Y0021969D01*
X0172977Y0022111D01*
X0172883Y0022255D01*
X0172793Y0022401D01*
X0172706Y0022550D01*
X0172624Y0022700D01*
X0172544Y0022853D01*
X0172469Y0023007D01*
X0172398Y0023163D01*
X0172330Y0023321D01*
X0172266Y0023481D01*
X0172206Y0023642D01*
X0172150Y0023804D01*
X0172098Y0023968D01*
X0172051Y0024133D01*
X0172007Y0024299D01*
X0171967Y0024466D01*
X0171932Y0024634D01*
X0171900Y0024803D01*
X0171873Y0024973D01*
X0171850Y0025143D01*
X0171831Y0025314D01*
X0171816Y0025485D01*
X0171805Y0025657D01*
X0171799Y0025828D01*
X0171797Y0026000D01*
X0176134Y0065023D02*
X0176136Y0065195D01*
X0176142Y0065366D01*
X0176153Y0065538D01*
X0176168Y0065709D01*
X0176187Y0065880D01*
X0176210Y0066050D01*
X0176237Y0066220D01*
X0176269Y0066389D01*
X0176304Y0066557D01*
X0176344Y0066724D01*
X0176388Y0066890D01*
X0176435Y0067055D01*
X0176487Y0067219D01*
X0176543Y0067381D01*
X0176603Y0067542D01*
X0176667Y0067702D01*
X0176735Y0067860D01*
X0176806Y0068016D01*
X0176881Y0068170D01*
X0176961Y0068323D01*
X0177043Y0068473D01*
X0177130Y0068622D01*
X0177220Y0068768D01*
X0177314Y0068912D01*
X0177411Y0069054D01*
X0177512Y0069193D01*
X0177616Y0069330D01*
X0177723Y0069464D01*
X0177834Y0069595D01*
X0177947Y0069724D01*
X0178064Y0069850D01*
X0178184Y0069973D01*
X0178307Y0070093D01*
X0178433Y0070210D01*
X0178562Y0070323D01*
X0178693Y0070434D01*
X0178827Y0070541D01*
X0178964Y0070645D01*
X0179103Y0070746D01*
X0179245Y0070843D01*
X0179389Y0070937D01*
X0179535Y0071027D01*
X0179684Y0071114D01*
X0179834Y0071196D01*
X0179987Y0071276D01*
X0180141Y0071351D01*
X0180297Y0071422D01*
X0180455Y0071490D01*
X0180615Y0071554D01*
X0180776Y0071614D01*
X0180938Y0071670D01*
X0181102Y0071722D01*
X0181267Y0071769D01*
X0181433Y0071813D01*
X0181600Y0071853D01*
X0181768Y0071888D01*
X0181937Y0071920D01*
X0182107Y0071947D01*
X0182277Y0071970D01*
X0182448Y0071989D01*
X0182619Y0072004D01*
X0182791Y0072015D01*
X0182962Y0072021D01*
X0183134Y0072023D01*
X0183306Y0072021D01*
X0183477Y0072015D01*
X0183649Y0072004D01*
X0183820Y0071989D01*
X0183991Y0071970D01*
X0184161Y0071947D01*
X0184331Y0071920D01*
X0184500Y0071888D01*
X0184668Y0071853D01*
X0184835Y0071813D01*
X0185001Y0071769D01*
X0185166Y0071722D01*
X0185330Y0071670D01*
X0185492Y0071614D01*
X0185653Y0071554D01*
X0185813Y0071490D01*
X0185971Y0071422D01*
X0186127Y0071351D01*
X0186281Y0071276D01*
X0186434Y0071196D01*
X0186584Y0071114D01*
X0186733Y0071027D01*
X0186879Y0070937D01*
X0187023Y0070843D01*
X0187165Y0070746D01*
X0187304Y0070645D01*
X0187441Y0070541D01*
X0187575Y0070434D01*
X0187706Y0070323D01*
X0187835Y0070210D01*
X0187961Y0070093D01*
X0188084Y0069973D01*
X0188204Y0069850D01*
X0188321Y0069724D01*
X0188434Y0069595D01*
X0188545Y0069464D01*
X0188652Y0069330D01*
X0188756Y0069193D01*
X0188857Y0069054D01*
X0188954Y0068912D01*
X0189048Y0068768D01*
X0189138Y0068622D01*
X0189225Y0068473D01*
X0189307Y0068323D01*
X0189387Y0068170D01*
X0189462Y0068016D01*
X0189533Y0067860D01*
X0189601Y0067702D01*
X0189665Y0067542D01*
X0189725Y0067381D01*
X0189781Y0067219D01*
X0189833Y0067055D01*
X0189880Y0066890D01*
X0189924Y0066724D01*
X0189964Y0066557D01*
X0189999Y0066389D01*
X0190031Y0066220D01*
X0190058Y0066050D01*
X0190081Y0065880D01*
X0190100Y0065709D01*
X0190115Y0065538D01*
X0190126Y0065366D01*
X0190132Y0065195D01*
X0190134Y0065023D01*
X0190132Y0064851D01*
X0190126Y0064680D01*
X0190115Y0064508D01*
X0190100Y0064337D01*
X0190081Y0064166D01*
X0190058Y0063996D01*
X0190031Y0063826D01*
X0189999Y0063657D01*
X0189964Y0063489D01*
X0189924Y0063322D01*
X0189880Y0063156D01*
X0189833Y0062991D01*
X0189781Y0062827D01*
X0189725Y0062665D01*
X0189665Y0062504D01*
X0189601Y0062344D01*
X0189533Y0062186D01*
X0189462Y0062030D01*
X0189387Y0061876D01*
X0189307Y0061723D01*
X0189225Y0061573D01*
X0189138Y0061424D01*
X0189048Y0061278D01*
X0188954Y0061134D01*
X0188857Y0060992D01*
X0188756Y0060853D01*
X0188652Y0060716D01*
X0188545Y0060582D01*
X0188434Y0060451D01*
X0188321Y0060322D01*
X0188204Y0060196D01*
X0188084Y0060073D01*
X0187961Y0059953D01*
X0187835Y0059836D01*
X0187706Y0059723D01*
X0187575Y0059612D01*
X0187441Y0059505D01*
X0187304Y0059401D01*
X0187165Y0059300D01*
X0187023Y0059203D01*
X0186879Y0059109D01*
X0186733Y0059019D01*
X0186584Y0058932D01*
X0186434Y0058850D01*
X0186281Y0058770D01*
X0186127Y0058695D01*
X0185971Y0058624D01*
X0185813Y0058556D01*
X0185653Y0058492D01*
X0185492Y0058432D01*
X0185330Y0058376D01*
X0185166Y0058324D01*
X0185001Y0058277D01*
X0184835Y0058233D01*
X0184668Y0058193D01*
X0184500Y0058158D01*
X0184331Y0058126D01*
X0184161Y0058099D01*
X0183991Y0058076D01*
X0183820Y0058057D01*
X0183649Y0058042D01*
X0183477Y0058031D01*
X0183306Y0058025D01*
X0183134Y0058023D01*
X0182962Y0058025D01*
X0182791Y0058031D01*
X0182619Y0058042D01*
X0182448Y0058057D01*
X0182277Y0058076D01*
X0182107Y0058099D01*
X0181937Y0058126D01*
X0181768Y0058158D01*
X0181600Y0058193D01*
X0181433Y0058233D01*
X0181267Y0058277D01*
X0181102Y0058324D01*
X0180938Y0058376D01*
X0180776Y0058432D01*
X0180615Y0058492D01*
X0180455Y0058556D01*
X0180297Y0058624D01*
X0180141Y0058695D01*
X0179987Y0058770D01*
X0179834Y0058850D01*
X0179684Y0058932D01*
X0179535Y0059019D01*
X0179389Y0059109D01*
X0179245Y0059203D01*
X0179103Y0059300D01*
X0178964Y0059401D01*
X0178827Y0059505D01*
X0178693Y0059612D01*
X0178562Y0059723D01*
X0178433Y0059836D01*
X0178307Y0059953D01*
X0178184Y0060073D01*
X0178064Y0060196D01*
X0177947Y0060322D01*
X0177834Y0060451D01*
X0177723Y0060582D01*
X0177616Y0060716D01*
X0177512Y0060853D01*
X0177411Y0060992D01*
X0177314Y0061134D01*
X0177220Y0061278D01*
X0177130Y0061424D01*
X0177043Y0061573D01*
X0176961Y0061723D01*
X0176881Y0061876D01*
X0176806Y0062030D01*
X0176735Y0062186D01*
X0176667Y0062344D01*
X0176603Y0062504D01*
X0176543Y0062665D01*
X0176487Y0062827D01*
X0176435Y0062991D01*
X0176388Y0063156D01*
X0176344Y0063322D01*
X0176304Y0063489D01*
X0176269Y0063657D01*
X0176237Y0063826D01*
X0176210Y0063996D01*
X0176187Y0064166D01*
X0176168Y0064337D01*
X0176153Y0064508D01*
X0176142Y0064680D01*
X0176136Y0064851D01*
X0176134Y0065023D01*
X0176344Y0089198D02*
X0176346Y0089370D01*
X0176352Y0089541D01*
X0176363Y0089713D01*
X0176378Y0089884D01*
X0176397Y0090055D01*
X0176420Y0090225D01*
X0176447Y0090395D01*
X0176479Y0090564D01*
X0176514Y0090732D01*
X0176554Y0090899D01*
X0176598Y0091065D01*
X0176645Y0091230D01*
X0176697Y0091394D01*
X0176753Y0091556D01*
X0176813Y0091717D01*
X0176877Y0091877D01*
X0176945Y0092035D01*
X0177016Y0092191D01*
X0177091Y0092345D01*
X0177171Y0092498D01*
X0177253Y0092648D01*
X0177340Y0092797D01*
X0177430Y0092943D01*
X0177524Y0093087D01*
X0177621Y0093229D01*
X0177722Y0093368D01*
X0177826Y0093505D01*
X0177933Y0093639D01*
X0178044Y0093770D01*
X0178157Y0093899D01*
X0178274Y0094025D01*
X0178394Y0094148D01*
X0178517Y0094268D01*
X0178643Y0094385D01*
X0178772Y0094498D01*
X0178903Y0094609D01*
X0179037Y0094716D01*
X0179174Y0094820D01*
X0179313Y0094921D01*
X0179455Y0095018D01*
X0179599Y0095112D01*
X0179745Y0095202D01*
X0179894Y0095289D01*
X0180044Y0095371D01*
X0180197Y0095451D01*
X0180351Y0095526D01*
X0180507Y0095597D01*
X0180665Y0095665D01*
X0180825Y0095729D01*
X0180986Y0095789D01*
X0181148Y0095845D01*
X0181312Y0095897D01*
X0181477Y0095944D01*
X0181643Y0095988D01*
X0181810Y0096028D01*
X0181978Y0096063D01*
X0182147Y0096095D01*
X0182317Y0096122D01*
X0182487Y0096145D01*
X0182658Y0096164D01*
X0182829Y0096179D01*
X0183001Y0096190D01*
X0183172Y0096196D01*
X0183344Y0096198D01*
X0183516Y0096196D01*
X0183687Y0096190D01*
X0183859Y0096179D01*
X0184030Y0096164D01*
X0184201Y0096145D01*
X0184371Y0096122D01*
X0184541Y0096095D01*
X0184710Y0096063D01*
X0184878Y0096028D01*
X0185045Y0095988D01*
X0185211Y0095944D01*
X0185376Y0095897D01*
X0185540Y0095845D01*
X0185702Y0095789D01*
X0185863Y0095729D01*
X0186023Y0095665D01*
X0186181Y0095597D01*
X0186337Y0095526D01*
X0186491Y0095451D01*
X0186644Y0095371D01*
X0186794Y0095289D01*
X0186943Y0095202D01*
X0187089Y0095112D01*
X0187233Y0095018D01*
X0187375Y0094921D01*
X0187514Y0094820D01*
X0187651Y0094716D01*
X0187785Y0094609D01*
X0187916Y0094498D01*
X0188045Y0094385D01*
X0188171Y0094268D01*
X0188294Y0094148D01*
X0188414Y0094025D01*
X0188531Y0093899D01*
X0188644Y0093770D01*
X0188755Y0093639D01*
X0188862Y0093505D01*
X0188966Y0093368D01*
X0189067Y0093229D01*
X0189164Y0093087D01*
X0189258Y0092943D01*
X0189348Y0092797D01*
X0189435Y0092648D01*
X0189517Y0092498D01*
X0189597Y0092345D01*
X0189672Y0092191D01*
X0189743Y0092035D01*
X0189811Y0091877D01*
X0189875Y0091717D01*
X0189935Y0091556D01*
X0189991Y0091394D01*
X0190043Y0091230D01*
X0190090Y0091065D01*
X0190134Y0090899D01*
X0190174Y0090732D01*
X0190209Y0090564D01*
X0190241Y0090395D01*
X0190268Y0090225D01*
X0190291Y0090055D01*
X0190310Y0089884D01*
X0190325Y0089713D01*
X0190336Y0089541D01*
X0190342Y0089370D01*
X0190344Y0089198D01*
X0190342Y0089026D01*
X0190336Y0088855D01*
X0190325Y0088683D01*
X0190310Y0088512D01*
X0190291Y0088341D01*
X0190268Y0088171D01*
X0190241Y0088001D01*
X0190209Y0087832D01*
X0190174Y0087664D01*
X0190134Y0087497D01*
X0190090Y0087331D01*
X0190043Y0087166D01*
X0189991Y0087002D01*
X0189935Y0086840D01*
X0189875Y0086679D01*
X0189811Y0086519D01*
X0189743Y0086361D01*
X0189672Y0086205D01*
X0189597Y0086051D01*
X0189517Y0085898D01*
X0189435Y0085748D01*
X0189348Y0085599D01*
X0189258Y0085453D01*
X0189164Y0085309D01*
X0189067Y0085167D01*
X0188966Y0085028D01*
X0188862Y0084891D01*
X0188755Y0084757D01*
X0188644Y0084626D01*
X0188531Y0084497D01*
X0188414Y0084371D01*
X0188294Y0084248D01*
X0188171Y0084128D01*
X0188045Y0084011D01*
X0187916Y0083898D01*
X0187785Y0083787D01*
X0187651Y0083680D01*
X0187514Y0083576D01*
X0187375Y0083475D01*
X0187233Y0083378D01*
X0187089Y0083284D01*
X0186943Y0083194D01*
X0186794Y0083107D01*
X0186644Y0083025D01*
X0186491Y0082945D01*
X0186337Y0082870D01*
X0186181Y0082799D01*
X0186023Y0082731D01*
X0185863Y0082667D01*
X0185702Y0082607D01*
X0185540Y0082551D01*
X0185376Y0082499D01*
X0185211Y0082452D01*
X0185045Y0082408D01*
X0184878Y0082368D01*
X0184710Y0082333D01*
X0184541Y0082301D01*
X0184371Y0082274D01*
X0184201Y0082251D01*
X0184030Y0082232D01*
X0183859Y0082217D01*
X0183687Y0082206D01*
X0183516Y0082200D01*
X0183344Y0082198D01*
X0183172Y0082200D01*
X0183001Y0082206D01*
X0182829Y0082217D01*
X0182658Y0082232D01*
X0182487Y0082251D01*
X0182317Y0082274D01*
X0182147Y0082301D01*
X0181978Y0082333D01*
X0181810Y0082368D01*
X0181643Y0082408D01*
X0181477Y0082452D01*
X0181312Y0082499D01*
X0181148Y0082551D01*
X0180986Y0082607D01*
X0180825Y0082667D01*
X0180665Y0082731D01*
X0180507Y0082799D01*
X0180351Y0082870D01*
X0180197Y0082945D01*
X0180044Y0083025D01*
X0179894Y0083107D01*
X0179745Y0083194D01*
X0179599Y0083284D01*
X0179455Y0083378D01*
X0179313Y0083475D01*
X0179174Y0083576D01*
X0179037Y0083680D01*
X0178903Y0083787D01*
X0178772Y0083898D01*
X0178643Y0084011D01*
X0178517Y0084128D01*
X0178394Y0084248D01*
X0178274Y0084371D01*
X0178157Y0084497D01*
X0178044Y0084626D01*
X0177933Y0084757D01*
X0177826Y0084891D01*
X0177722Y0085028D01*
X0177621Y0085167D01*
X0177524Y0085309D01*
X0177430Y0085453D01*
X0177340Y0085599D01*
X0177253Y0085748D01*
X0177171Y0085898D01*
X0177091Y0086051D01*
X0177016Y0086205D01*
X0176945Y0086361D01*
X0176877Y0086519D01*
X0176813Y0086679D01*
X0176753Y0086840D01*
X0176697Y0087002D01*
X0176645Y0087166D01*
X0176598Y0087331D01*
X0176554Y0087497D01*
X0176514Y0087664D01*
X0176479Y0087832D01*
X0176447Y0088001D01*
X0176420Y0088171D01*
X0176397Y0088341D01*
X0176378Y0088512D01*
X0176363Y0088683D01*
X0176352Y0088855D01*
X0176346Y0089026D01*
X0176344Y0089198D01*
D11*
X0183344Y0089198D03*
X0183134Y0065023D03*
X0178797Y0026000D03*
X0033797Y0026000D03*
X0031468Y0064839D03*
X0031536Y0088621D03*
D12*
X0193500Y0376769D03*
X0193500Y0385037D03*
X0201000Y0385037D03*
X0201000Y0376769D03*
D13*
X0183797Y0300331D03*
X0187537Y0291669D03*
X0180057Y0291669D03*
X0155037Y0291669D03*
X0151297Y0300331D03*
X0147557Y0291669D03*
D14*
X0146297Y0312260D03*
X0146297Y0319740D03*
X0156297Y0319740D03*
X0156297Y0312260D03*
X0176297Y0312260D03*
X0176297Y0319740D03*
X0186297Y0319740D03*
X0186297Y0312260D03*
X0141297Y0229740D03*
X0141297Y0222260D03*
X0093797Y0224760D03*
X0093797Y0232240D03*
D15*
X0097400Y0388303D03*
X0079600Y0388303D03*
X0057400Y0388303D03*
X0039600Y0388303D03*
X0119600Y0388303D03*
X0137400Y0388303D03*
X0159600Y0388303D03*
X0177400Y0388303D03*
D16*
X0182300Y0378503D03*
X0154700Y0378503D03*
X0142300Y0378503D03*
X0114700Y0378503D03*
X0102300Y0378503D03*
X0074700Y0378503D03*
X0062300Y0378503D03*
X0034700Y0378503D03*
D17*
X0032356Y0272953D03*
X0037356Y0272953D03*
X0042356Y0272953D03*
X0047356Y0272953D03*
X0052356Y0272953D03*
X0052356Y0248753D03*
X0047356Y0248753D03*
X0042356Y0248753D03*
X0037356Y0248753D03*
X0032356Y0248753D03*
X0027356Y0248753D03*
X0022356Y0248753D03*
X0017356Y0248753D03*
X0017356Y0272953D03*
X0022356Y0272953D03*
X0027356Y0272953D03*
D18*
X0166297Y0312063D03*
X0166297Y0319937D03*
D19*
X0143797Y0036000D03*
X0143797Y0016000D03*
X0128797Y0016000D03*
X0128797Y0036000D03*
X0113797Y0036000D03*
X0113797Y0016000D03*
X0098797Y0016000D03*
X0098797Y0036000D03*
X0083797Y0036000D03*
X0083797Y0016000D03*
X0068797Y0016000D03*
X0068797Y0036000D03*
D20*
X0020076Y0289898D03*
X0020076Y0352102D03*
D21*
X0057872Y0352339D03*
D22*
X0057872Y0293343D03*
D23*
X0061297Y0312339D03*
X0061297Y0316669D03*
X0061297Y0321000D03*
X0061297Y0325331D03*
X0061297Y0329661D03*
X0061297Y0333992D03*
X0061297Y0338323D03*
X0061297Y0342654D03*
X0061297Y0346984D03*
D24*
X0018502Y0340291D03*
X0018502Y0308795D03*
D25*
X0023797Y0226000D03*
X0023797Y0216000D03*
X0033797Y0216000D03*
X0033797Y0226000D03*
X0043797Y0226000D03*
X0043797Y0216000D03*
D26*
X0043797Y0196000D03*
X0053797Y0196000D03*
X0033797Y0196000D03*
X0023797Y0196000D03*
X0096297Y0356000D03*
X0106297Y0356000D03*
X0116297Y0356000D03*
X0126297Y0356000D03*
D27*
X0126297Y0263500D03*
X0136297Y0263500D03*
X0141297Y0253500D03*
X0146297Y0263500D03*
X0151297Y0253500D03*
X0156297Y0263500D03*
X0166297Y0263500D03*
X0176297Y0263500D03*
X0186297Y0263500D03*
X0196297Y0258500D03*
X0196297Y0248500D03*
X0196297Y0238500D03*
X0196297Y0228500D03*
X0196297Y0218500D03*
X0196297Y0208500D03*
X0186297Y0203500D03*
X0176297Y0203500D03*
X0166297Y0203500D03*
X0156297Y0203500D03*
X0146297Y0203500D03*
X0136297Y0203500D03*
X0126297Y0203500D03*
X0116297Y0203500D03*
X0106297Y0203500D03*
X0096297Y0203500D03*
X0086297Y0203500D03*
X0076297Y0203500D03*
X0076297Y0233500D03*
X0076297Y0243500D03*
X0076297Y0253500D03*
X0076297Y0263500D03*
X0086297Y0263500D03*
X0096297Y0263500D03*
X0106297Y0263500D03*
X0116297Y0263500D03*
D28*
X0116397Y0223600D03*
X0107397Y0223600D03*
X0125397Y0223600D03*
D29*
X0116297Y0248400D03*
D30*
X0118797Y0293300D02*
X0118797Y0298500D01*
X0108797Y0298500D02*
X0108797Y0293300D01*
X0108797Y0328500D02*
X0108797Y0333700D01*
X0118797Y0333700D02*
X0118797Y0328500D01*
X0128797Y0328500D02*
X0128797Y0333700D01*
X0128797Y0298500D02*
X0128797Y0293300D01*
D31*
X0140497Y0315400D03*
X0153697Y0326200D03*
X0162097Y0307000D03*
X0181297Y0307000D03*
X0184897Y0283000D03*
X0177697Y0248200D03*
X0147697Y0223000D03*
X0091297Y0238600D03*
X0087697Y0229000D03*
X0062497Y0193000D03*
X0061297Y0278200D03*
X0057697Y0285400D03*
X0050497Y0299800D03*
X0034897Y0284200D03*
X0068497Y0285400D03*
X0068497Y0295000D03*
X0091297Y0351400D03*
X0128497Y0341800D03*
X0196897Y0370600D03*
X0202897Y0370600D03*
M02*
00Y0340600D03*
X0182200Y0344200D03*
X0200200Y0362200D03*
M02*
