%
M48
M72
T01C0.02400
T02C0.03200
T03C0.03937
T04C0.04000
T05C0.04921
T06C0.05900
T07C0.06299
T08C0.14000
%
T01
X209044Y195433
X189044Y195433
X106429Y206000
X112679Y286000
X110179Y202250
X112679Y296000
X161429Y219750
X161429Y323500
X132679Y227250
X136429Y277250
X177679Y227250
X180179Y299750
X162679Y253500
X166429Y278500
X118929Y238500
X121429Y301000
X180179Y329750
X177679Y294750
X140179Y194750
X141429Y206000
X145179Y202250
X153929Y211000
X196429Y227250
X133929Y219750
X133929Y194750
X125179Y242250
X65179Y281000
X148929Y193500
X66429Y169750
X130179Y198500
X117679Y211000
X181429Y173500
X177679Y356000
X180179Y181000
X177679Y349750
X148929Y187250
X143929Y166000
X163929Y184750
X222679Y347250
X222679Y298500
X91429Y356000
X37679Y199750
X82679Y328500
X87679Y202250
X58929Y191000
X96429Y316000
X82679Y338500
X92679Y183500
X65179Y197250
X73929Y198500
X73929Y173500
X75179Y269750
X95179Y321000
X91429Y198500
X80179Y212250
X80179Y277250
X166429Y193500
X162679Y189750
T02
X131673Y297460
X141673Y297460
X141673Y327460
X131673Y327460
X151673Y297460
X151673Y327460
T03
X124363Y346332
X134363Y346332
X144363Y346332
X154363Y346332
T04
X191973Y275172
X191973Y257372
X217573Y275172
X217573Y257372
X49993Y231591
X59993Y231591
X69993Y231591
X161579Y385900
X143779Y385900
X121579Y385900
X103779Y385900
X81579Y385900
X63779Y385900
X201579Y385900
X183779Y385900
X69795Y265352
X69795Y255352
X59795Y265352
X59795Y255352
X49795Y265352
X49795Y255352
T05
X45914Y308505
X45914Y340001
T06
X166479Y376100
X138879Y376100
X126479Y376100
X98879Y376100
X86479Y376100
X58879Y376100
X206479Y376100
X178879Y376100
T07
X95179Y36000
X95179Y16000
X110179Y16000
X110179Y36000
X125179Y36000
X125179Y16000
X140179Y16000
X140179Y36000
X155179Y36000
X155179Y16000
X170179Y16000
X170179Y36000
T08
X57850Y64839
X57919Y88621
X209726Y89198
X209516Y65023
X60179Y26000
X205179Y26000
M30
