%
M48
M72
T01C0.02400
T02C0.03200
T03C0.03937
T04C0.04000
T05C0.04921
T06C0.05900
T07C0.06299
T08C0.14000
%
T01
X214016Y197507
X194016Y197507
X116402Y206000
X197652Y291625
X187652Y262875
X142652Y250375
X142027Y196625
X116402Y196625
X172027Y287875
X170777Y213500
X108902Y307875
X132027Y317250
X151402Y206000
X162027Y317250
X102652Y237875
X108902Y294750
X155152Y228500
X164527Y242250
X182027Y253500
X197652Y297250
X155152Y240375
X164527Y281000
X123902Y238500
X125777Y284750
X182027Y347250
X182652Y296000
X215777Y321000
X73902Y191000
X145777Y184750
X145777Y206000
X212652Y337875
X206402Y331625
X198902Y218500
X213902Y208500
X206402Y238500
X213277Y227250
X71402Y249750
X138277Y204125
X138277Y184750
X154527Y188500
X128902Y313500
X129527Y242250
X133902Y200375
X123902Y210375
X167027Y202875
X158902Y169750
X80152Y171000
X178902Y173500
X202652Y356625
X151402Y184750
X175777Y194125
X169527Y354750
X100777Y342875
X41402Y196625
X86402Y329750
X75152Y212250
X86402Y338500
X95152Y185375
X65152Y212250
X88902Y198500
X88902Y176000
X186402Y351000
X185777Y321625
X86402Y321000
X70152Y212250
X98277Y325375
X112652Y277250
X102652Y199125
X154527Y194125
X178902Y190375
X138277Y246625
X133902Y238500
T02
X136645Y297460
X146645Y297460
X146645Y327460
X136645Y327460
X156645Y297460
X156645Y327460
T03
X128365Y358904
X138365Y358904
X148365Y358904
X158365Y358904
T04
X190039Y274827
X190039Y257027
X215639Y274827
X215639Y257027
X49965Y231591
X59965Y231591
X69965Y231591
X79965Y231591
X168388Y397857
X150588Y397857
X128388Y397857
X110588Y397857
X88388Y397857
X70588Y397857
X208388Y397857
X190588Y397857
X69795Y270332
X69795Y260332
X59795Y270332
X59795Y260332
X49795Y270332
X49795Y260332
T05
X49735Y309944
X49735Y341440
T06
X173288Y388057
X145688Y388057
X133288Y388057
X105688Y388057
X93288Y388057
X65688Y388057
X213288Y388057
X185688Y388057
T07
X100152Y36000
X100152Y16000
X115152Y16000
X115152Y36000
X130152Y36000
X130152Y16000
X145152Y16000
X145152Y36000
X160152Y36000
X160152Y16000
X175152Y16000
X175152Y36000
T08
X62822Y64839
X62891Y88621
X214699Y89198
X214489Y65023
X65152Y26000
X210152Y26000
M30
