%
M48
M72
T01C0.02400
T02C0.03200
T03C0.03937
T04C0.04000
T05C0.04921
T06C0.05900
T07C0.06299
T08C0.14000
%
T01
X181364Y194433
X161364Y194433
X78750Y205000
X85000Y285000
X82500Y201250
X85000Y295000
X133750Y218750
X133750Y322500
X105000Y226250
X108750Y276250
X150000Y226250
X152500Y298750
X135000Y252500
X138750Y277500
X91250Y237500
X93750Y300000
X152500Y328750
X150000Y293750
X112500Y193750
X113750Y205000
X117500Y201250
X126250Y210000
X168750Y226250
X106250Y218750
X106250Y193750
X97500Y241250
X37500Y280000
X121250Y192500
X38750Y168750
X102500Y197500
X90000Y210000
X153750Y172500
X150000Y355000
X152500Y180000
X150000Y348750
X121250Y186250
X116250Y165000
X136250Y183750
X195000Y346250
X195000Y297500
X63750Y355000
X10000Y198750
X55000Y327500
X60000Y201250
X31250Y190000
X68750Y315000
X55000Y337500
X65000Y182500
X37500Y196250
X46250Y197500
X46250Y172500
X47500Y268750
X67500Y320000
X63750Y197500
X52500Y211250
X52500Y276250
X138750Y192500
X135000Y188750
T02
X103993Y296460
X113993Y296460
X113993Y326460
X103993Y326460
X123993Y296460
X123993Y326460
T03
X96684Y345332
X106684Y345332
X116684Y345332
X126684Y345332
T04
X164294Y274172
X164294Y256372
X189894Y274172
X189894Y256372
X22313Y230591
X32313Y230591
X42313Y230591
X133900Y384900
X116100Y384900
X93900Y384900
X76100Y384900
X53900Y384900
X36100Y384900
X173900Y384900
X156100Y384900
X42116Y264352
X42116Y254352
X32116Y264352
X32116Y254352
X22116Y264352
X22116Y254352
T05
X18235Y307505
X18235Y339001
T06
X138800Y375100
X111200Y375100
X98800Y375100
X71200Y375100
X58800Y375100
X31200Y375100
X178800Y375100
X151200Y375100
T07
X67500Y35000
X67500Y15000
X82500Y15000
X82500Y35000
X97500Y35000
X97500Y15000
X112500Y15000
X112500Y35000
X127500Y35000
X127500Y15000
X142500Y15000
X142500Y35000
T08
X30171Y63839
X30239Y87621
X182047Y88198
X181837Y64023
X32500Y25000
X177500Y25000
M30
