G75*
%MOIN*%
%OFA0B0*%
%FSLAX25Y25*%
%IPPOS*%
%LPD*%
%AMOC8*
5,1,8,0,0,1.08239X$1,22.5*
%
%ADD10C,0.00000*%
%ADD11R,0.06400X0.06400*%
%ADD12OC8,0.06400*%
%ADD13C,0.06000*%
%ADD14C,0.04400*%
%ADD15OC8,0.06000*%
%ADD16C,0.08850*%
%ADD17OC8,0.07400*%
%ADD18OC8,0.09449*%
%ADD19C,0.05937*%
%ADD20C,0.01600*%
%ADD21C,0.04000*%
D10*
X0032652Y0010767D02*
X0032652Y0395526D01*
X0032651Y0395526D02*
X0032654Y0395737D01*
X0032661Y0395947D01*
X0032674Y0396158D01*
X0032692Y0396368D01*
X0032715Y0396577D01*
X0032743Y0396786D01*
X0032775Y0396994D01*
X0032813Y0397201D01*
X0032856Y0397408D01*
X0032904Y0397613D01*
X0032957Y0397817D01*
X0033015Y0398019D01*
X0033078Y0398221D01*
X0033145Y0398420D01*
X0033218Y0398618D01*
X0033295Y0398814D01*
X0033377Y0399008D01*
X0033463Y0399201D01*
X0033554Y0399391D01*
X0033650Y0399578D01*
X0033750Y0399764D01*
X0033855Y0399947D01*
X0033964Y0400127D01*
X0034077Y0400305D01*
X0034195Y0400480D01*
X0034316Y0400651D01*
X0034442Y0400820D01*
X0034572Y0400986D01*
X0034706Y0401149D01*
X0034844Y0401308D01*
X0034986Y0401464D01*
X0035131Y0401617D01*
X0035280Y0401766D01*
X0035433Y0401911D01*
X0035589Y0402053D01*
X0035748Y0402191D01*
X0035911Y0402325D01*
X0036077Y0402455D01*
X0036246Y0402581D01*
X0036417Y0402702D01*
X0036592Y0402820D01*
X0036770Y0402933D01*
X0036950Y0403042D01*
X0037133Y0403147D01*
X0037319Y0403247D01*
X0037506Y0403343D01*
X0037696Y0403434D01*
X0037889Y0403520D01*
X0038083Y0403602D01*
X0038279Y0403679D01*
X0038477Y0403752D01*
X0038676Y0403819D01*
X0038878Y0403882D01*
X0039080Y0403940D01*
X0039284Y0403993D01*
X0039489Y0404041D01*
X0039696Y0404084D01*
X0039903Y0404122D01*
X0040111Y0404154D01*
X0040320Y0404182D01*
X0040529Y0404205D01*
X0040739Y0404223D01*
X0040950Y0404236D01*
X0041160Y0404243D01*
X0041371Y0404246D01*
X0041371Y0404245D02*
X0234687Y0404245D01*
X0234878Y0404243D01*
X0235068Y0404236D01*
X0235258Y0404224D01*
X0235448Y0404208D01*
X0235638Y0404188D01*
X0235826Y0404162D01*
X0236015Y0404132D01*
X0236202Y0404098D01*
X0236389Y0404059D01*
X0236574Y0404016D01*
X0236759Y0403968D01*
X0236942Y0403916D01*
X0237124Y0403859D01*
X0237304Y0403798D01*
X0237483Y0403733D01*
X0237661Y0403663D01*
X0237836Y0403589D01*
X0238010Y0403511D01*
X0238182Y0403428D01*
X0238352Y0403342D01*
X0238519Y0403251D01*
X0238685Y0403156D01*
X0238848Y0403058D01*
X0239009Y0402955D01*
X0239167Y0402849D01*
X0239322Y0402739D01*
X0239475Y0402625D01*
X0239625Y0402508D01*
X0239772Y0402386D01*
X0239916Y0402262D01*
X0240057Y0402134D01*
X0240195Y0402002D01*
X0240330Y0401867D01*
X0240462Y0401729D01*
X0240590Y0401588D01*
X0240714Y0401444D01*
X0240836Y0401297D01*
X0240953Y0401147D01*
X0241067Y0400994D01*
X0241177Y0400839D01*
X0241283Y0400681D01*
X0241386Y0400520D01*
X0241484Y0400357D01*
X0241579Y0400191D01*
X0241670Y0400024D01*
X0241756Y0399854D01*
X0241839Y0399682D01*
X0241917Y0399508D01*
X0241991Y0399333D01*
X0242061Y0399155D01*
X0242126Y0398976D01*
X0242187Y0398796D01*
X0242244Y0398614D01*
X0242296Y0398431D01*
X0242344Y0398246D01*
X0242387Y0398061D01*
X0242426Y0397874D01*
X0242460Y0397687D01*
X0242490Y0397498D01*
X0242516Y0397310D01*
X0242536Y0397120D01*
X0242552Y0396930D01*
X0242564Y0396740D01*
X0242571Y0396550D01*
X0242573Y0396359D01*
X0242573Y0009978D01*
X0242570Y0009761D01*
X0242563Y0009544D01*
X0242549Y0009328D01*
X0242531Y0009111D01*
X0242508Y0008896D01*
X0242479Y0008681D01*
X0242445Y0008466D01*
X0242406Y0008253D01*
X0242361Y0008041D01*
X0242312Y0007829D01*
X0242258Y0007619D01*
X0242198Y0007411D01*
X0242134Y0007204D01*
X0242064Y0006998D01*
X0241990Y0006794D01*
X0241910Y0006592D01*
X0241826Y0006393D01*
X0241737Y0006195D01*
X0241643Y0005999D01*
X0241545Y0005806D01*
X0241441Y0005615D01*
X0241334Y0005427D01*
X0241222Y0005241D01*
X0241105Y0005058D01*
X0240984Y0004878D01*
X0240858Y0004701D01*
X0240729Y0004527D01*
X0240595Y0004356D01*
X0240457Y0004189D01*
X0240315Y0004024D01*
X0240169Y0003864D01*
X0240020Y0003707D01*
X0239866Y0003553D01*
X0239709Y0003404D01*
X0239549Y0003258D01*
X0239384Y0003116D01*
X0239217Y0002978D01*
X0239046Y0002844D01*
X0238872Y0002715D01*
X0238695Y0002589D01*
X0238515Y0002468D01*
X0238332Y0002351D01*
X0238146Y0002239D01*
X0237958Y0002132D01*
X0237767Y0002028D01*
X0237574Y0001930D01*
X0237378Y0001836D01*
X0237180Y0001747D01*
X0236981Y0001663D01*
X0236779Y0001583D01*
X0236575Y0001509D01*
X0236369Y0001439D01*
X0236162Y0001375D01*
X0235954Y0001315D01*
X0235744Y0001261D01*
X0235532Y0001212D01*
X0235320Y0001167D01*
X0235107Y0001128D01*
X0234892Y0001094D01*
X0234677Y0001065D01*
X0234462Y0001042D01*
X0234245Y0001024D01*
X0234029Y0001010D01*
X0233812Y0001003D01*
X0233595Y0001000D01*
X0042418Y0001000D01*
X0042182Y0001003D01*
X0041946Y0001011D01*
X0041711Y0001026D01*
X0041475Y0001046D01*
X0041241Y0001071D01*
X0041007Y0001102D01*
X0040774Y0001139D01*
X0040541Y0001182D01*
X0040310Y0001230D01*
X0040081Y0001284D01*
X0039852Y0001343D01*
X0039625Y0001408D01*
X0039400Y0001478D01*
X0039176Y0001554D01*
X0038955Y0001635D01*
X0038735Y0001721D01*
X0038517Y0001813D01*
X0038302Y0001910D01*
X0038089Y0002012D01*
X0037879Y0002119D01*
X0037671Y0002231D01*
X0037467Y0002348D01*
X0037265Y0002470D01*
X0037066Y0002597D01*
X0036870Y0002729D01*
X0036677Y0002865D01*
X0036488Y0003006D01*
X0036302Y0003152D01*
X0036120Y0003302D01*
X0035941Y0003456D01*
X0035767Y0003615D01*
X0035596Y0003778D01*
X0035429Y0003945D01*
X0035266Y0004116D01*
X0035107Y0004290D01*
X0034953Y0004469D01*
X0034803Y0004651D01*
X0034657Y0004837D01*
X0034516Y0005026D01*
X0034380Y0005219D01*
X0034248Y0005415D01*
X0034121Y0005614D01*
X0033999Y0005816D01*
X0033882Y0006020D01*
X0033770Y0006228D01*
X0033663Y0006438D01*
X0033561Y0006651D01*
X0033464Y0006866D01*
X0033372Y0007084D01*
X0033286Y0007304D01*
X0033205Y0007525D01*
X0033129Y0007749D01*
X0033059Y0007974D01*
X0032994Y0008201D01*
X0032935Y0008430D01*
X0032881Y0008659D01*
X0032833Y0008890D01*
X0032790Y0009123D01*
X0032753Y0009356D01*
X0032722Y0009590D01*
X0032697Y0009824D01*
X0032677Y0010060D01*
X0032662Y0010295D01*
X0032654Y0010531D01*
X0032651Y0010767D01*
X0058152Y0026000D02*
X0058154Y0026172D01*
X0058160Y0026343D01*
X0058171Y0026515D01*
X0058186Y0026686D01*
X0058205Y0026857D01*
X0058228Y0027027D01*
X0058255Y0027197D01*
X0058287Y0027366D01*
X0058322Y0027534D01*
X0058362Y0027701D01*
X0058406Y0027867D01*
X0058453Y0028032D01*
X0058505Y0028196D01*
X0058561Y0028358D01*
X0058621Y0028519D01*
X0058685Y0028679D01*
X0058753Y0028837D01*
X0058824Y0028993D01*
X0058899Y0029147D01*
X0058979Y0029300D01*
X0059061Y0029450D01*
X0059148Y0029599D01*
X0059238Y0029745D01*
X0059332Y0029889D01*
X0059429Y0030031D01*
X0059530Y0030170D01*
X0059634Y0030307D01*
X0059741Y0030441D01*
X0059852Y0030572D01*
X0059965Y0030701D01*
X0060082Y0030827D01*
X0060202Y0030950D01*
X0060325Y0031070D01*
X0060451Y0031187D01*
X0060580Y0031300D01*
X0060711Y0031411D01*
X0060845Y0031518D01*
X0060982Y0031622D01*
X0061121Y0031723D01*
X0061263Y0031820D01*
X0061407Y0031914D01*
X0061553Y0032004D01*
X0061702Y0032091D01*
X0061852Y0032173D01*
X0062005Y0032253D01*
X0062159Y0032328D01*
X0062315Y0032399D01*
X0062473Y0032467D01*
X0062633Y0032531D01*
X0062794Y0032591D01*
X0062956Y0032647D01*
X0063120Y0032699D01*
X0063285Y0032746D01*
X0063451Y0032790D01*
X0063618Y0032830D01*
X0063786Y0032865D01*
X0063955Y0032897D01*
X0064125Y0032924D01*
X0064295Y0032947D01*
X0064466Y0032966D01*
X0064637Y0032981D01*
X0064809Y0032992D01*
X0064980Y0032998D01*
X0065152Y0033000D01*
X0065324Y0032998D01*
X0065495Y0032992D01*
X0065667Y0032981D01*
X0065838Y0032966D01*
X0066009Y0032947D01*
X0066179Y0032924D01*
X0066349Y0032897D01*
X0066518Y0032865D01*
X0066686Y0032830D01*
X0066853Y0032790D01*
X0067019Y0032746D01*
X0067184Y0032699D01*
X0067348Y0032647D01*
X0067510Y0032591D01*
X0067671Y0032531D01*
X0067831Y0032467D01*
X0067989Y0032399D01*
X0068145Y0032328D01*
X0068299Y0032253D01*
X0068452Y0032173D01*
X0068602Y0032091D01*
X0068751Y0032004D01*
X0068897Y0031914D01*
X0069041Y0031820D01*
X0069183Y0031723D01*
X0069322Y0031622D01*
X0069459Y0031518D01*
X0069593Y0031411D01*
X0069724Y0031300D01*
X0069853Y0031187D01*
X0069979Y0031070D01*
X0070102Y0030950D01*
X0070222Y0030827D01*
X0070339Y0030701D01*
X0070452Y0030572D01*
X0070563Y0030441D01*
X0070670Y0030307D01*
X0070774Y0030170D01*
X0070875Y0030031D01*
X0070972Y0029889D01*
X0071066Y0029745D01*
X0071156Y0029599D01*
X0071243Y0029450D01*
X0071325Y0029300D01*
X0071405Y0029147D01*
X0071480Y0028993D01*
X0071551Y0028837D01*
X0071619Y0028679D01*
X0071683Y0028519D01*
X0071743Y0028358D01*
X0071799Y0028196D01*
X0071851Y0028032D01*
X0071898Y0027867D01*
X0071942Y0027701D01*
X0071982Y0027534D01*
X0072017Y0027366D01*
X0072049Y0027197D01*
X0072076Y0027027D01*
X0072099Y0026857D01*
X0072118Y0026686D01*
X0072133Y0026515D01*
X0072144Y0026343D01*
X0072150Y0026172D01*
X0072152Y0026000D01*
X0072150Y0025828D01*
X0072144Y0025657D01*
X0072133Y0025485D01*
X0072118Y0025314D01*
X0072099Y0025143D01*
X0072076Y0024973D01*
X0072049Y0024803D01*
X0072017Y0024634D01*
X0071982Y0024466D01*
X0071942Y0024299D01*
X0071898Y0024133D01*
X0071851Y0023968D01*
X0071799Y0023804D01*
X0071743Y0023642D01*
X0071683Y0023481D01*
X0071619Y0023321D01*
X0071551Y0023163D01*
X0071480Y0023007D01*
X0071405Y0022853D01*
X0071325Y0022700D01*
X0071243Y0022550D01*
X0071156Y0022401D01*
X0071066Y0022255D01*
X0070972Y0022111D01*
X0070875Y0021969D01*
X0070774Y0021830D01*
X0070670Y0021693D01*
X0070563Y0021559D01*
X0070452Y0021428D01*
X0070339Y0021299D01*
X0070222Y0021173D01*
X0070102Y0021050D01*
X0069979Y0020930D01*
X0069853Y0020813D01*
X0069724Y0020700D01*
X0069593Y0020589D01*
X0069459Y0020482D01*
X0069322Y0020378D01*
X0069183Y0020277D01*
X0069041Y0020180D01*
X0068897Y0020086D01*
X0068751Y0019996D01*
X0068602Y0019909D01*
X0068452Y0019827D01*
X0068299Y0019747D01*
X0068145Y0019672D01*
X0067989Y0019601D01*
X0067831Y0019533D01*
X0067671Y0019469D01*
X0067510Y0019409D01*
X0067348Y0019353D01*
X0067184Y0019301D01*
X0067019Y0019254D01*
X0066853Y0019210D01*
X0066686Y0019170D01*
X0066518Y0019135D01*
X0066349Y0019103D01*
X0066179Y0019076D01*
X0066009Y0019053D01*
X0065838Y0019034D01*
X0065667Y0019019D01*
X0065495Y0019008D01*
X0065324Y0019002D01*
X0065152Y0019000D01*
X0064980Y0019002D01*
X0064809Y0019008D01*
X0064637Y0019019D01*
X0064466Y0019034D01*
X0064295Y0019053D01*
X0064125Y0019076D01*
X0063955Y0019103D01*
X0063786Y0019135D01*
X0063618Y0019170D01*
X0063451Y0019210D01*
X0063285Y0019254D01*
X0063120Y0019301D01*
X0062956Y0019353D01*
X0062794Y0019409D01*
X0062633Y0019469D01*
X0062473Y0019533D01*
X0062315Y0019601D01*
X0062159Y0019672D01*
X0062005Y0019747D01*
X0061852Y0019827D01*
X0061702Y0019909D01*
X0061553Y0019996D01*
X0061407Y0020086D01*
X0061263Y0020180D01*
X0061121Y0020277D01*
X0060982Y0020378D01*
X0060845Y0020482D01*
X0060711Y0020589D01*
X0060580Y0020700D01*
X0060451Y0020813D01*
X0060325Y0020930D01*
X0060202Y0021050D01*
X0060082Y0021173D01*
X0059965Y0021299D01*
X0059852Y0021428D01*
X0059741Y0021559D01*
X0059634Y0021693D01*
X0059530Y0021830D01*
X0059429Y0021969D01*
X0059332Y0022111D01*
X0059238Y0022255D01*
X0059148Y0022401D01*
X0059061Y0022550D01*
X0058979Y0022700D01*
X0058899Y0022853D01*
X0058824Y0023007D01*
X0058753Y0023163D01*
X0058685Y0023321D01*
X0058621Y0023481D01*
X0058561Y0023642D01*
X0058505Y0023804D01*
X0058453Y0023968D01*
X0058406Y0024133D01*
X0058362Y0024299D01*
X0058322Y0024466D01*
X0058287Y0024634D01*
X0058255Y0024803D01*
X0058228Y0024973D01*
X0058205Y0025143D01*
X0058186Y0025314D01*
X0058171Y0025485D01*
X0058160Y0025657D01*
X0058154Y0025828D01*
X0058152Y0026000D01*
X0055822Y0064839D02*
X0055824Y0065011D01*
X0055830Y0065182D01*
X0055841Y0065354D01*
X0055856Y0065525D01*
X0055875Y0065696D01*
X0055898Y0065866D01*
X0055925Y0066036D01*
X0055957Y0066205D01*
X0055992Y0066373D01*
X0056032Y0066540D01*
X0056076Y0066706D01*
X0056123Y0066871D01*
X0056175Y0067035D01*
X0056231Y0067197D01*
X0056291Y0067358D01*
X0056355Y0067518D01*
X0056423Y0067676D01*
X0056494Y0067832D01*
X0056569Y0067986D01*
X0056649Y0068139D01*
X0056731Y0068289D01*
X0056818Y0068438D01*
X0056908Y0068584D01*
X0057002Y0068728D01*
X0057099Y0068870D01*
X0057200Y0069009D01*
X0057304Y0069146D01*
X0057411Y0069280D01*
X0057522Y0069411D01*
X0057635Y0069540D01*
X0057752Y0069666D01*
X0057872Y0069789D01*
X0057995Y0069909D01*
X0058121Y0070026D01*
X0058250Y0070139D01*
X0058381Y0070250D01*
X0058515Y0070357D01*
X0058652Y0070461D01*
X0058791Y0070562D01*
X0058933Y0070659D01*
X0059077Y0070753D01*
X0059223Y0070843D01*
X0059372Y0070930D01*
X0059522Y0071012D01*
X0059675Y0071092D01*
X0059829Y0071167D01*
X0059985Y0071238D01*
X0060143Y0071306D01*
X0060303Y0071370D01*
X0060464Y0071430D01*
X0060626Y0071486D01*
X0060790Y0071538D01*
X0060955Y0071585D01*
X0061121Y0071629D01*
X0061288Y0071669D01*
X0061456Y0071704D01*
X0061625Y0071736D01*
X0061795Y0071763D01*
X0061965Y0071786D01*
X0062136Y0071805D01*
X0062307Y0071820D01*
X0062479Y0071831D01*
X0062650Y0071837D01*
X0062822Y0071839D01*
X0062994Y0071837D01*
X0063165Y0071831D01*
X0063337Y0071820D01*
X0063508Y0071805D01*
X0063679Y0071786D01*
X0063849Y0071763D01*
X0064019Y0071736D01*
X0064188Y0071704D01*
X0064356Y0071669D01*
X0064523Y0071629D01*
X0064689Y0071585D01*
X0064854Y0071538D01*
X0065018Y0071486D01*
X0065180Y0071430D01*
X0065341Y0071370D01*
X0065501Y0071306D01*
X0065659Y0071238D01*
X0065815Y0071167D01*
X0065969Y0071092D01*
X0066122Y0071012D01*
X0066272Y0070930D01*
X0066421Y0070843D01*
X0066567Y0070753D01*
X0066711Y0070659D01*
X0066853Y0070562D01*
X0066992Y0070461D01*
X0067129Y0070357D01*
X0067263Y0070250D01*
X0067394Y0070139D01*
X0067523Y0070026D01*
X0067649Y0069909D01*
X0067772Y0069789D01*
X0067892Y0069666D01*
X0068009Y0069540D01*
X0068122Y0069411D01*
X0068233Y0069280D01*
X0068340Y0069146D01*
X0068444Y0069009D01*
X0068545Y0068870D01*
X0068642Y0068728D01*
X0068736Y0068584D01*
X0068826Y0068438D01*
X0068913Y0068289D01*
X0068995Y0068139D01*
X0069075Y0067986D01*
X0069150Y0067832D01*
X0069221Y0067676D01*
X0069289Y0067518D01*
X0069353Y0067358D01*
X0069413Y0067197D01*
X0069469Y0067035D01*
X0069521Y0066871D01*
X0069568Y0066706D01*
X0069612Y0066540D01*
X0069652Y0066373D01*
X0069687Y0066205D01*
X0069719Y0066036D01*
X0069746Y0065866D01*
X0069769Y0065696D01*
X0069788Y0065525D01*
X0069803Y0065354D01*
X0069814Y0065182D01*
X0069820Y0065011D01*
X0069822Y0064839D01*
X0069820Y0064667D01*
X0069814Y0064496D01*
X0069803Y0064324D01*
X0069788Y0064153D01*
X0069769Y0063982D01*
X0069746Y0063812D01*
X0069719Y0063642D01*
X0069687Y0063473D01*
X0069652Y0063305D01*
X0069612Y0063138D01*
X0069568Y0062972D01*
X0069521Y0062807D01*
X0069469Y0062643D01*
X0069413Y0062481D01*
X0069353Y0062320D01*
X0069289Y0062160D01*
X0069221Y0062002D01*
X0069150Y0061846D01*
X0069075Y0061692D01*
X0068995Y0061539D01*
X0068913Y0061389D01*
X0068826Y0061240D01*
X0068736Y0061094D01*
X0068642Y0060950D01*
X0068545Y0060808D01*
X0068444Y0060669D01*
X0068340Y0060532D01*
X0068233Y0060398D01*
X0068122Y0060267D01*
X0068009Y0060138D01*
X0067892Y0060012D01*
X0067772Y0059889D01*
X0067649Y0059769D01*
X0067523Y0059652D01*
X0067394Y0059539D01*
X0067263Y0059428D01*
X0067129Y0059321D01*
X0066992Y0059217D01*
X0066853Y0059116D01*
X0066711Y0059019D01*
X0066567Y0058925D01*
X0066421Y0058835D01*
X0066272Y0058748D01*
X0066122Y0058666D01*
X0065969Y0058586D01*
X0065815Y0058511D01*
X0065659Y0058440D01*
X0065501Y0058372D01*
X0065341Y0058308D01*
X0065180Y0058248D01*
X0065018Y0058192D01*
X0064854Y0058140D01*
X0064689Y0058093D01*
X0064523Y0058049D01*
X0064356Y0058009D01*
X0064188Y0057974D01*
X0064019Y0057942D01*
X0063849Y0057915D01*
X0063679Y0057892D01*
X0063508Y0057873D01*
X0063337Y0057858D01*
X0063165Y0057847D01*
X0062994Y0057841D01*
X0062822Y0057839D01*
X0062650Y0057841D01*
X0062479Y0057847D01*
X0062307Y0057858D01*
X0062136Y0057873D01*
X0061965Y0057892D01*
X0061795Y0057915D01*
X0061625Y0057942D01*
X0061456Y0057974D01*
X0061288Y0058009D01*
X0061121Y0058049D01*
X0060955Y0058093D01*
X0060790Y0058140D01*
X0060626Y0058192D01*
X0060464Y0058248D01*
X0060303Y0058308D01*
X0060143Y0058372D01*
X0059985Y0058440D01*
X0059829Y0058511D01*
X0059675Y0058586D01*
X0059522Y0058666D01*
X0059372Y0058748D01*
X0059223Y0058835D01*
X0059077Y0058925D01*
X0058933Y0059019D01*
X0058791Y0059116D01*
X0058652Y0059217D01*
X0058515Y0059321D01*
X0058381Y0059428D01*
X0058250Y0059539D01*
X0058121Y0059652D01*
X0057995Y0059769D01*
X0057872Y0059889D01*
X0057752Y0060012D01*
X0057635Y0060138D01*
X0057522Y0060267D01*
X0057411Y0060398D01*
X0057304Y0060532D01*
X0057200Y0060669D01*
X0057099Y0060808D01*
X0057002Y0060950D01*
X0056908Y0061094D01*
X0056818Y0061240D01*
X0056731Y0061389D01*
X0056649Y0061539D01*
X0056569Y0061692D01*
X0056494Y0061846D01*
X0056423Y0062002D01*
X0056355Y0062160D01*
X0056291Y0062320D01*
X0056231Y0062481D01*
X0056175Y0062643D01*
X0056123Y0062807D01*
X0056076Y0062972D01*
X0056032Y0063138D01*
X0055992Y0063305D01*
X0055957Y0063473D01*
X0055925Y0063642D01*
X0055898Y0063812D01*
X0055875Y0063982D01*
X0055856Y0064153D01*
X0055841Y0064324D01*
X0055830Y0064496D01*
X0055824Y0064667D01*
X0055822Y0064839D01*
X0055891Y0088621D02*
X0055893Y0088793D01*
X0055899Y0088964D01*
X0055910Y0089136D01*
X0055925Y0089307D01*
X0055944Y0089478D01*
X0055967Y0089648D01*
X0055994Y0089818D01*
X0056026Y0089987D01*
X0056061Y0090155D01*
X0056101Y0090322D01*
X0056145Y0090488D01*
X0056192Y0090653D01*
X0056244Y0090817D01*
X0056300Y0090979D01*
X0056360Y0091140D01*
X0056424Y0091300D01*
X0056492Y0091458D01*
X0056563Y0091614D01*
X0056638Y0091768D01*
X0056718Y0091921D01*
X0056800Y0092071D01*
X0056887Y0092220D01*
X0056977Y0092366D01*
X0057071Y0092510D01*
X0057168Y0092652D01*
X0057269Y0092791D01*
X0057373Y0092928D01*
X0057480Y0093062D01*
X0057591Y0093193D01*
X0057704Y0093322D01*
X0057821Y0093448D01*
X0057941Y0093571D01*
X0058064Y0093691D01*
X0058190Y0093808D01*
X0058319Y0093921D01*
X0058450Y0094032D01*
X0058584Y0094139D01*
X0058721Y0094243D01*
X0058860Y0094344D01*
X0059002Y0094441D01*
X0059146Y0094535D01*
X0059292Y0094625D01*
X0059441Y0094712D01*
X0059591Y0094794D01*
X0059744Y0094874D01*
X0059898Y0094949D01*
X0060054Y0095020D01*
X0060212Y0095088D01*
X0060372Y0095152D01*
X0060533Y0095212D01*
X0060695Y0095268D01*
X0060859Y0095320D01*
X0061024Y0095367D01*
X0061190Y0095411D01*
X0061357Y0095451D01*
X0061525Y0095486D01*
X0061694Y0095518D01*
X0061864Y0095545D01*
X0062034Y0095568D01*
X0062205Y0095587D01*
X0062376Y0095602D01*
X0062548Y0095613D01*
X0062719Y0095619D01*
X0062891Y0095621D01*
X0063063Y0095619D01*
X0063234Y0095613D01*
X0063406Y0095602D01*
X0063577Y0095587D01*
X0063748Y0095568D01*
X0063918Y0095545D01*
X0064088Y0095518D01*
X0064257Y0095486D01*
X0064425Y0095451D01*
X0064592Y0095411D01*
X0064758Y0095367D01*
X0064923Y0095320D01*
X0065087Y0095268D01*
X0065249Y0095212D01*
X0065410Y0095152D01*
X0065570Y0095088D01*
X0065728Y0095020D01*
X0065884Y0094949D01*
X0066038Y0094874D01*
X0066191Y0094794D01*
X0066341Y0094712D01*
X0066490Y0094625D01*
X0066636Y0094535D01*
X0066780Y0094441D01*
X0066922Y0094344D01*
X0067061Y0094243D01*
X0067198Y0094139D01*
X0067332Y0094032D01*
X0067463Y0093921D01*
X0067592Y0093808D01*
X0067718Y0093691D01*
X0067841Y0093571D01*
X0067961Y0093448D01*
X0068078Y0093322D01*
X0068191Y0093193D01*
X0068302Y0093062D01*
X0068409Y0092928D01*
X0068513Y0092791D01*
X0068614Y0092652D01*
X0068711Y0092510D01*
X0068805Y0092366D01*
X0068895Y0092220D01*
X0068982Y0092071D01*
X0069064Y0091921D01*
X0069144Y0091768D01*
X0069219Y0091614D01*
X0069290Y0091458D01*
X0069358Y0091300D01*
X0069422Y0091140D01*
X0069482Y0090979D01*
X0069538Y0090817D01*
X0069590Y0090653D01*
X0069637Y0090488D01*
X0069681Y0090322D01*
X0069721Y0090155D01*
X0069756Y0089987D01*
X0069788Y0089818D01*
X0069815Y0089648D01*
X0069838Y0089478D01*
X0069857Y0089307D01*
X0069872Y0089136D01*
X0069883Y0088964D01*
X0069889Y0088793D01*
X0069891Y0088621D01*
X0069889Y0088449D01*
X0069883Y0088278D01*
X0069872Y0088106D01*
X0069857Y0087935D01*
X0069838Y0087764D01*
X0069815Y0087594D01*
X0069788Y0087424D01*
X0069756Y0087255D01*
X0069721Y0087087D01*
X0069681Y0086920D01*
X0069637Y0086754D01*
X0069590Y0086589D01*
X0069538Y0086425D01*
X0069482Y0086263D01*
X0069422Y0086102D01*
X0069358Y0085942D01*
X0069290Y0085784D01*
X0069219Y0085628D01*
X0069144Y0085474D01*
X0069064Y0085321D01*
X0068982Y0085171D01*
X0068895Y0085022D01*
X0068805Y0084876D01*
X0068711Y0084732D01*
X0068614Y0084590D01*
X0068513Y0084451D01*
X0068409Y0084314D01*
X0068302Y0084180D01*
X0068191Y0084049D01*
X0068078Y0083920D01*
X0067961Y0083794D01*
X0067841Y0083671D01*
X0067718Y0083551D01*
X0067592Y0083434D01*
X0067463Y0083321D01*
X0067332Y0083210D01*
X0067198Y0083103D01*
X0067061Y0082999D01*
X0066922Y0082898D01*
X0066780Y0082801D01*
X0066636Y0082707D01*
X0066490Y0082617D01*
X0066341Y0082530D01*
X0066191Y0082448D01*
X0066038Y0082368D01*
X0065884Y0082293D01*
X0065728Y0082222D01*
X0065570Y0082154D01*
X0065410Y0082090D01*
X0065249Y0082030D01*
X0065087Y0081974D01*
X0064923Y0081922D01*
X0064758Y0081875D01*
X0064592Y0081831D01*
X0064425Y0081791D01*
X0064257Y0081756D01*
X0064088Y0081724D01*
X0063918Y0081697D01*
X0063748Y0081674D01*
X0063577Y0081655D01*
X0063406Y0081640D01*
X0063234Y0081629D01*
X0063063Y0081623D01*
X0062891Y0081621D01*
X0062719Y0081623D01*
X0062548Y0081629D01*
X0062376Y0081640D01*
X0062205Y0081655D01*
X0062034Y0081674D01*
X0061864Y0081697D01*
X0061694Y0081724D01*
X0061525Y0081756D01*
X0061357Y0081791D01*
X0061190Y0081831D01*
X0061024Y0081875D01*
X0060859Y0081922D01*
X0060695Y0081974D01*
X0060533Y0082030D01*
X0060372Y0082090D01*
X0060212Y0082154D01*
X0060054Y0082222D01*
X0059898Y0082293D01*
X0059744Y0082368D01*
X0059591Y0082448D01*
X0059441Y0082530D01*
X0059292Y0082617D01*
X0059146Y0082707D01*
X0059002Y0082801D01*
X0058860Y0082898D01*
X0058721Y0082999D01*
X0058584Y0083103D01*
X0058450Y0083210D01*
X0058319Y0083321D01*
X0058190Y0083434D01*
X0058064Y0083551D01*
X0057941Y0083671D01*
X0057821Y0083794D01*
X0057704Y0083920D01*
X0057591Y0084049D01*
X0057480Y0084180D01*
X0057373Y0084314D01*
X0057269Y0084451D01*
X0057168Y0084590D01*
X0057071Y0084732D01*
X0056977Y0084876D01*
X0056887Y0085022D01*
X0056800Y0085171D01*
X0056718Y0085321D01*
X0056638Y0085474D01*
X0056563Y0085628D01*
X0056492Y0085784D01*
X0056424Y0085942D01*
X0056360Y0086102D01*
X0056300Y0086263D01*
X0056244Y0086425D01*
X0056192Y0086589D01*
X0056145Y0086754D01*
X0056101Y0086920D01*
X0056061Y0087087D01*
X0056026Y0087255D01*
X0055994Y0087424D01*
X0055967Y0087594D01*
X0055944Y0087764D01*
X0055925Y0087935D01*
X0055910Y0088106D01*
X0055899Y0088278D01*
X0055893Y0088449D01*
X0055891Y0088621D01*
X0047274Y0309944D02*
X0047276Y0310043D01*
X0047282Y0310142D01*
X0047292Y0310241D01*
X0047306Y0310339D01*
X0047324Y0310436D01*
X0047346Y0310533D01*
X0047371Y0310629D01*
X0047401Y0310723D01*
X0047434Y0310817D01*
X0047471Y0310909D01*
X0047512Y0310999D01*
X0047556Y0311088D01*
X0047604Y0311174D01*
X0047655Y0311259D01*
X0047710Y0311342D01*
X0047768Y0311422D01*
X0047829Y0311500D01*
X0047893Y0311576D01*
X0047960Y0311649D01*
X0048030Y0311719D01*
X0048103Y0311786D01*
X0048179Y0311850D01*
X0048257Y0311911D01*
X0048337Y0311969D01*
X0048420Y0312024D01*
X0048504Y0312075D01*
X0048591Y0312123D01*
X0048680Y0312167D01*
X0048770Y0312208D01*
X0048862Y0312245D01*
X0048956Y0312278D01*
X0049050Y0312308D01*
X0049146Y0312333D01*
X0049243Y0312355D01*
X0049340Y0312373D01*
X0049438Y0312387D01*
X0049537Y0312397D01*
X0049636Y0312403D01*
X0049735Y0312405D01*
X0049834Y0312403D01*
X0049933Y0312397D01*
X0050032Y0312387D01*
X0050130Y0312373D01*
X0050227Y0312355D01*
X0050324Y0312333D01*
X0050420Y0312308D01*
X0050514Y0312278D01*
X0050608Y0312245D01*
X0050700Y0312208D01*
X0050790Y0312167D01*
X0050879Y0312123D01*
X0050965Y0312075D01*
X0051050Y0312024D01*
X0051133Y0311969D01*
X0051213Y0311911D01*
X0051291Y0311850D01*
X0051367Y0311786D01*
X0051440Y0311719D01*
X0051510Y0311649D01*
X0051577Y0311576D01*
X0051641Y0311500D01*
X0051702Y0311422D01*
X0051760Y0311342D01*
X0051815Y0311259D01*
X0051866Y0311175D01*
X0051914Y0311088D01*
X0051958Y0310999D01*
X0051999Y0310909D01*
X0052036Y0310817D01*
X0052069Y0310723D01*
X0052099Y0310629D01*
X0052124Y0310533D01*
X0052146Y0310436D01*
X0052164Y0310339D01*
X0052178Y0310241D01*
X0052188Y0310142D01*
X0052194Y0310043D01*
X0052196Y0309944D01*
X0052194Y0309845D01*
X0052188Y0309746D01*
X0052178Y0309647D01*
X0052164Y0309549D01*
X0052146Y0309452D01*
X0052124Y0309355D01*
X0052099Y0309259D01*
X0052069Y0309165D01*
X0052036Y0309071D01*
X0051999Y0308979D01*
X0051958Y0308889D01*
X0051914Y0308800D01*
X0051866Y0308714D01*
X0051815Y0308629D01*
X0051760Y0308546D01*
X0051702Y0308466D01*
X0051641Y0308388D01*
X0051577Y0308312D01*
X0051510Y0308239D01*
X0051440Y0308169D01*
X0051367Y0308102D01*
X0051291Y0308038D01*
X0051213Y0307977D01*
X0051133Y0307919D01*
X0051050Y0307864D01*
X0050966Y0307813D01*
X0050879Y0307765D01*
X0050790Y0307721D01*
X0050700Y0307680D01*
X0050608Y0307643D01*
X0050514Y0307610D01*
X0050420Y0307580D01*
X0050324Y0307555D01*
X0050227Y0307533D01*
X0050130Y0307515D01*
X0050032Y0307501D01*
X0049933Y0307491D01*
X0049834Y0307485D01*
X0049735Y0307483D01*
X0049636Y0307485D01*
X0049537Y0307491D01*
X0049438Y0307501D01*
X0049340Y0307515D01*
X0049243Y0307533D01*
X0049146Y0307555D01*
X0049050Y0307580D01*
X0048956Y0307610D01*
X0048862Y0307643D01*
X0048770Y0307680D01*
X0048680Y0307721D01*
X0048591Y0307765D01*
X0048505Y0307813D01*
X0048420Y0307864D01*
X0048337Y0307919D01*
X0048257Y0307977D01*
X0048179Y0308038D01*
X0048103Y0308102D01*
X0048030Y0308169D01*
X0047960Y0308239D01*
X0047893Y0308312D01*
X0047829Y0308388D01*
X0047768Y0308466D01*
X0047710Y0308546D01*
X0047655Y0308629D01*
X0047604Y0308713D01*
X0047556Y0308800D01*
X0047512Y0308889D01*
X0047471Y0308979D01*
X0047434Y0309071D01*
X0047401Y0309165D01*
X0047371Y0309259D01*
X0047346Y0309355D01*
X0047324Y0309452D01*
X0047306Y0309549D01*
X0047292Y0309647D01*
X0047282Y0309746D01*
X0047276Y0309845D01*
X0047274Y0309944D01*
X0047274Y0341440D02*
X0047276Y0341539D01*
X0047282Y0341638D01*
X0047292Y0341737D01*
X0047306Y0341835D01*
X0047324Y0341932D01*
X0047346Y0342029D01*
X0047371Y0342125D01*
X0047401Y0342219D01*
X0047434Y0342313D01*
X0047471Y0342405D01*
X0047512Y0342495D01*
X0047556Y0342584D01*
X0047604Y0342670D01*
X0047655Y0342755D01*
X0047710Y0342838D01*
X0047768Y0342918D01*
X0047829Y0342996D01*
X0047893Y0343072D01*
X0047960Y0343145D01*
X0048030Y0343215D01*
X0048103Y0343282D01*
X0048179Y0343346D01*
X0048257Y0343407D01*
X0048337Y0343465D01*
X0048420Y0343520D01*
X0048504Y0343571D01*
X0048591Y0343619D01*
X0048680Y0343663D01*
X0048770Y0343704D01*
X0048862Y0343741D01*
X0048956Y0343774D01*
X0049050Y0343804D01*
X0049146Y0343829D01*
X0049243Y0343851D01*
X0049340Y0343869D01*
X0049438Y0343883D01*
X0049537Y0343893D01*
X0049636Y0343899D01*
X0049735Y0343901D01*
X0049834Y0343899D01*
X0049933Y0343893D01*
X0050032Y0343883D01*
X0050130Y0343869D01*
X0050227Y0343851D01*
X0050324Y0343829D01*
X0050420Y0343804D01*
X0050514Y0343774D01*
X0050608Y0343741D01*
X0050700Y0343704D01*
X0050790Y0343663D01*
X0050879Y0343619D01*
X0050965Y0343571D01*
X0051050Y0343520D01*
X0051133Y0343465D01*
X0051213Y0343407D01*
X0051291Y0343346D01*
X0051367Y0343282D01*
X0051440Y0343215D01*
X0051510Y0343145D01*
X0051577Y0343072D01*
X0051641Y0342996D01*
X0051702Y0342918D01*
X0051760Y0342838D01*
X0051815Y0342755D01*
X0051866Y0342671D01*
X0051914Y0342584D01*
X0051958Y0342495D01*
X0051999Y0342405D01*
X0052036Y0342313D01*
X0052069Y0342219D01*
X0052099Y0342125D01*
X0052124Y0342029D01*
X0052146Y0341932D01*
X0052164Y0341835D01*
X0052178Y0341737D01*
X0052188Y0341638D01*
X0052194Y0341539D01*
X0052196Y0341440D01*
X0052194Y0341341D01*
X0052188Y0341242D01*
X0052178Y0341143D01*
X0052164Y0341045D01*
X0052146Y0340948D01*
X0052124Y0340851D01*
X0052099Y0340755D01*
X0052069Y0340661D01*
X0052036Y0340567D01*
X0051999Y0340475D01*
X0051958Y0340385D01*
X0051914Y0340296D01*
X0051866Y0340210D01*
X0051815Y0340125D01*
X0051760Y0340042D01*
X0051702Y0339962D01*
X0051641Y0339884D01*
X0051577Y0339808D01*
X0051510Y0339735D01*
X0051440Y0339665D01*
X0051367Y0339598D01*
X0051291Y0339534D01*
X0051213Y0339473D01*
X0051133Y0339415D01*
X0051050Y0339360D01*
X0050966Y0339309D01*
X0050879Y0339261D01*
X0050790Y0339217D01*
X0050700Y0339176D01*
X0050608Y0339139D01*
X0050514Y0339106D01*
X0050420Y0339076D01*
X0050324Y0339051D01*
X0050227Y0339029D01*
X0050130Y0339011D01*
X0050032Y0338997D01*
X0049933Y0338987D01*
X0049834Y0338981D01*
X0049735Y0338979D01*
X0049636Y0338981D01*
X0049537Y0338987D01*
X0049438Y0338997D01*
X0049340Y0339011D01*
X0049243Y0339029D01*
X0049146Y0339051D01*
X0049050Y0339076D01*
X0048956Y0339106D01*
X0048862Y0339139D01*
X0048770Y0339176D01*
X0048680Y0339217D01*
X0048591Y0339261D01*
X0048505Y0339309D01*
X0048420Y0339360D01*
X0048337Y0339415D01*
X0048257Y0339473D01*
X0048179Y0339534D01*
X0048103Y0339598D01*
X0048030Y0339665D01*
X0047960Y0339735D01*
X0047893Y0339808D01*
X0047829Y0339884D01*
X0047768Y0339962D01*
X0047710Y0340042D01*
X0047655Y0340125D01*
X0047604Y0340209D01*
X0047556Y0340296D01*
X0047512Y0340385D01*
X0047471Y0340475D01*
X0047434Y0340567D01*
X0047401Y0340661D01*
X0047371Y0340755D01*
X0047346Y0340851D01*
X0047324Y0340948D01*
X0047306Y0341045D01*
X0047292Y0341143D01*
X0047282Y0341242D01*
X0047276Y0341341D01*
X0047274Y0341440D01*
X0207699Y0089198D02*
X0207701Y0089370D01*
X0207707Y0089541D01*
X0207718Y0089713D01*
X0207733Y0089884D01*
X0207752Y0090055D01*
X0207775Y0090225D01*
X0207802Y0090395D01*
X0207834Y0090564D01*
X0207869Y0090732D01*
X0207909Y0090899D01*
X0207953Y0091065D01*
X0208000Y0091230D01*
X0208052Y0091394D01*
X0208108Y0091556D01*
X0208168Y0091717D01*
X0208232Y0091877D01*
X0208300Y0092035D01*
X0208371Y0092191D01*
X0208446Y0092345D01*
X0208526Y0092498D01*
X0208608Y0092648D01*
X0208695Y0092797D01*
X0208785Y0092943D01*
X0208879Y0093087D01*
X0208976Y0093229D01*
X0209077Y0093368D01*
X0209181Y0093505D01*
X0209288Y0093639D01*
X0209399Y0093770D01*
X0209512Y0093899D01*
X0209629Y0094025D01*
X0209749Y0094148D01*
X0209872Y0094268D01*
X0209998Y0094385D01*
X0210127Y0094498D01*
X0210258Y0094609D01*
X0210392Y0094716D01*
X0210529Y0094820D01*
X0210668Y0094921D01*
X0210810Y0095018D01*
X0210954Y0095112D01*
X0211100Y0095202D01*
X0211249Y0095289D01*
X0211399Y0095371D01*
X0211552Y0095451D01*
X0211706Y0095526D01*
X0211862Y0095597D01*
X0212020Y0095665D01*
X0212180Y0095729D01*
X0212341Y0095789D01*
X0212503Y0095845D01*
X0212667Y0095897D01*
X0212832Y0095944D01*
X0212998Y0095988D01*
X0213165Y0096028D01*
X0213333Y0096063D01*
X0213502Y0096095D01*
X0213672Y0096122D01*
X0213842Y0096145D01*
X0214013Y0096164D01*
X0214184Y0096179D01*
X0214356Y0096190D01*
X0214527Y0096196D01*
X0214699Y0096198D01*
X0214871Y0096196D01*
X0215042Y0096190D01*
X0215214Y0096179D01*
X0215385Y0096164D01*
X0215556Y0096145D01*
X0215726Y0096122D01*
X0215896Y0096095D01*
X0216065Y0096063D01*
X0216233Y0096028D01*
X0216400Y0095988D01*
X0216566Y0095944D01*
X0216731Y0095897D01*
X0216895Y0095845D01*
X0217057Y0095789D01*
X0217218Y0095729D01*
X0217378Y0095665D01*
X0217536Y0095597D01*
X0217692Y0095526D01*
X0217846Y0095451D01*
X0217999Y0095371D01*
X0218149Y0095289D01*
X0218298Y0095202D01*
X0218444Y0095112D01*
X0218588Y0095018D01*
X0218730Y0094921D01*
X0218869Y0094820D01*
X0219006Y0094716D01*
X0219140Y0094609D01*
X0219271Y0094498D01*
X0219400Y0094385D01*
X0219526Y0094268D01*
X0219649Y0094148D01*
X0219769Y0094025D01*
X0219886Y0093899D01*
X0219999Y0093770D01*
X0220110Y0093639D01*
X0220217Y0093505D01*
X0220321Y0093368D01*
X0220422Y0093229D01*
X0220519Y0093087D01*
X0220613Y0092943D01*
X0220703Y0092797D01*
X0220790Y0092648D01*
X0220872Y0092498D01*
X0220952Y0092345D01*
X0221027Y0092191D01*
X0221098Y0092035D01*
X0221166Y0091877D01*
X0221230Y0091717D01*
X0221290Y0091556D01*
X0221346Y0091394D01*
X0221398Y0091230D01*
X0221445Y0091065D01*
X0221489Y0090899D01*
X0221529Y0090732D01*
X0221564Y0090564D01*
X0221596Y0090395D01*
X0221623Y0090225D01*
X0221646Y0090055D01*
X0221665Y0089884D01*
X0221680Y0089713D01*
X0221691Y0089541D01*
X0221697Y0089370D01*
X0221699Y0089198D01*
X0221697Y0089026D01*
X0221691Y0088855D01*
X0221680Y0088683D01*
X0221665Y0088512D01*
X0221646Y0088341D01*
X0221623Y0088171D01*
X0221596Y0088001D01*
X0221564Y0087832D01*
X0221529Y0087664D01*
X0221489Y0087497D01*
X0221445Y0087331D01*
X0221398Y0087166D01*
X0221346Y0087002D01*
X0221290Y0086840D01*
X0221230Y0086679D01*
X0221166Y0086519D01*
X0221098Y0086361D01*
X0221027Y0086205D01*
X0220952Y0086051D01*
X0220872Y0085898D01*
X0220790Y0085748D01*
X0220703Y0085599D01*
X0220613Y0085453D01*
X0220519Y0085309D01*
X0220422Y0085167D01*
X0220321Y0085028D01*
X0220217Y0084891D01*
X0220110Y0084757D01*
X0219999Y0084626D01*
X0219886Y0084497D01*
X0219769Y0084371D01*
X0219649Y0084248D01*
X0219526Y0084128D01*
X0219400Y0084011D01*
X0219271Y0083898D01*
X0219140Y0083787D01*
X0219006Y0083680D01*
X0218869Y0083576D01*
X0218730Y0083475D01*
X0218588Y0083378D01*
X0218444Y0083284D01*
X0218298Y0083194D01*
X0218149Y0083107D01*
X0217999Y0083025D01*
X0217846Y0082945D01*
X0217692Y0082870D01*
X0217536Y0082799D01*
X0217378Y0082731D01*
X0217218Y0082667D01*
X0217057Y0082607D01*
X0216895Y0082551D01*
X0216731Y0082499D01*
X0216566Y0082452D01*
X0216400Y0082408D01*
X0216233Y0082368D01*
X0216065Y0082333D01*
X0215896Y0082301D01*
X0215726Y0082274D01*
X0215556Y0082251D01*
X0215385Y0082232D01*
X0215214Y0082217D01*
X0215042Y0082206D01*
X0214871Y0082200D01*
X0214699Y0082198D01*
X0214527Y0082200D01*
X0214356Y0082206D01*
X0214184Y0082217D01*
X0214013Y0082232D01*
X0213842Y0082251D01*
X0213672Y0082274D01*
X0213502Y0082301D01*
X0213333Y0082333D01*
X0213165Y0082368D01*
X0212998Y0082408D01*
X0212832Y0082452D01*
X0212667Y0082499D01*
X0212503Y0082551D01*
X0212341Y0082607D01*
X0212180Y0082667D01*
X0212020Y0082731D01*
X0211862Y0082799D01*
X0211706Y0082870D01*
X0211552Y0082945D01*
X0211399Y0083025D01*
X0211249Y0083107D01*
X0211100Y0083194D01*
X0210954Y0083284D01*
X0210810Y0083378D01*
X0210668Y0083475D01*
X0210529Y0083576D01*
X0210392Y0083680D01*
X0210258Y0083787D01*
X0210127Y0083898D01*
X0209998Y0084011D01*
X0209872Y0084128D01*
X0209749Y0084248D01*
X0209629Y0084371D01*
X0209512Y0084497D01*
X0209399Y0084626D01*
X0209288Y0084757D01*
X0209181Y0084891D01*
X0209077Y0085028D01*
X0208976Y0085167D01*
X0208879Y0085309D01*
X0208785Y0085453D01*
X0208695Y0085599D01*
X0208608Y0085748D01*
X0208526Y0085898D01*
X0208446Y0086051D01*
X0208371Y0086205D01*
X0208300Y0086361D01*
X0208232Y0086519D01*
X0208168Y0086679D01*
X0208108Y0086840D01*
X0208052Y0087002D01*
X0208000Y0087166D01*
X0207953Y0087331D01*
X0207909Y0087497D01*
X0207869Y0087664D01*
X0207834Y0087832D01*
X0207802Y0088001D01*
X0207775Y0088171D01*
X0207752Y0088341D01*
X0207733Y0088512D01*
X0207718Y0088683D01*
X0207707Y0088855D01*
X0207701Y0089026D01*
X0207699Y0089198D01*
X0207489Y0065023D02*
X0207491Y0065195D01*
X0207497Y0065366D01*
X0207508Y0065538D01*
X0207523Y0065709D01*
X0207542Y0065880D01*
X0207565Y0066050D01*
X0207592Y0066220D01*
X0207624Y0066389D01*
X0207659Y0066557D01*
X0207699Y0066724D01*
X0207743Y0066890D01*
X0207790Y0067055D01*
X0207842Y0067219D01*
X0207898Y0067381D01*
X0207958Y0067542D01*
X0208022Y0067702D01*
X0208090Y0067860D01*
X0208161Y0068016D01*
X0208236Y0068170D01*
X0208316Y0068323D01*
X0208398Y0068473D01*
X0208485Y0068622D01*
X0208575Y0068768D01*
X0208669Y0068912D01*
X0208766Y0069054D01*
X0208867Y0069193D01*
X0208971Y0069330D01*
X0209078Y0069464D01*
X0209189Y0069595D01*
X0209302Y0069724D01*
X0209419Y0069850D01*
X0209539Y0069973D01*
X0209662Y0070093D01*
X0209788Y0070210D01*
X0209917Y0070323D01*
X0210048Y0070434D01*
X0210182Y0070541D01*
X0210319Y0070645D01*
X0210458Y0070746D01*
X0210600Y0070843D01*
X0210744Y0070937D01*
X0210890Y0071027D01*
X0211039Y0071114D01*
X0211189Y0071196D01*
X0211342Y0071276D01*
X0211496Y0071351D01*
X0211652Y0071422D01*
X0211810Y0071490D01*
X0211970Y0071554D01*
X0212131Y0071614D01*
X0212293Y0071670D01*
X0212457Y0071722D01*
X0212622Y0071769D01*
X0212788Y0071813D01*
X0212955Y0071853D01*
X0213123Y0071888D01*
X0213292Y0071920D01*
X0213462Y0071947D01*
X0213632Y0071970D01*
X0213803Y0071989D01*
X0213974Y0072004D01*
X0214146Y0072015D01*
X0214317Y0072021D01*
X0214489Y0072023D01*
X0214661Y0072021D01*
X0214832Y0072015D01*
X0215004Y0072004D01*
X0215175Y0071989D01*
X0215346Y0071970D01*
X0215516Y0071947D01*
X0215686Y0071920D01*
X0215855Y0071888D01*
X0216023Y0071853D01*
X0216190Y0071813D01*
X0216356Y0071769D01*
X0216521Y0071722D01*
X0216685Y0071670D01*
X0216847Y0071614D01*
X0217008Y0071554D01*
X0217168Y0071490D01*
X0217326Y0071422D01*
X0217482Y0071351D01*
X0217636Y0071276D01*
X0217789Y0071196D01*
X0217939Y0071114D01*
X0218088Y0071027D01*
X0218234Y0070937D01*
X0218378Y0070843D01*
X0218520Y0070746D01*
X0218659Y0070645D01*
X0218796Y0070541D01*
X0218930Y0070434D01*
X0219061Y0070323D01*
X0219190Y0070210D01*
X0219316Y0070093D01*
X0219439Y0069973D01*
X0219559Y0069850D01*
X0219676Y0069724D01*
X0219789Y0069595D01*
X0219900Y0069464D01*
X0220007Y0069330D01*
X0220111Y0069193D01*
X0220212Y0069054D01*
X0220309Y0068912D01*
X0220403Y0068768D01*
X0220493Y0068622D01*
X0220580Y0068473D01*
X0220662Y0068323D01*
X0220742Y0068170D01*
X0220817Y0068016D01*
X0220888Y0067860D01*
X0220956Y0067702D01*
X0221020Y0067542D01*
X0221080Y0067381D01*
X0221136Y0067219D01*
X0221188Y0067055D01*
X0221235Y0066890D01*
X0221279Y0066724D01*
X0221319Y0066557D01*
X0221354Y0066389D01*
X0221386Y0066220D01*
X0221413Y0066050D01*
X0221436Y0065880D01*
X0221455Y0065709D01*
X0221470Y0065538D01*
X0221481Y0065366D01*
X0221487Y0065195D01*
X0221489Y0065023D01*
X0221487Y0064851D01*
X0221481Y0064680D01*
X0221470Y0064508D01*
X0221455Y0064337D01*
X0221436Y0064166D01*
X0221413Y0063996D01*
X0221386Y0063826D01*
X0221354Y0063657D01*
X0221319Y0063489D01*
X0221279Y0063322D01*
X0221235Y0063156D01*
X0221188Y0062991D01*
X0221136Y0062827D01*
X0221080Y0062665D01*
X0221020Y0062504D01*
X0220956Y0062344D01*
X0220888Y0062186D01*
X0220817Y0062030D01*
X0220742Y0061876D01*
X0220662Y0061723D01*
X0220580Y0061573D01*
X0220493Y0061424D01*
X0220403Y0061278D01*
X0220309Y0061134D01*
X0220212Y0060992D01*
X0220111Y0060853D01*
X0220007Y0060716D01*
X0219900Y0060582D01*
X0219789Y0060451D01*
X0219676Y0060322D01*
X0219559Y0060196D01*
X0219439Y0060073D01*
X0219316Y0059953D01*
X0219190Y0059836D01*
X0219061Y0059723D01*
X0218930Y0059612D01*
X0218796Y0059505D01*
X0218659Y0059401D01*
X0218520Y0059300D01*
X0218378Y0059203D01*
X0218234Y0059109D01*
X0218088Y0059019D01*
X0217939Y0058932D01*
X0217789Y0058850D01*
X0217636Y0058770D01*
X0217482Y0058695D01*
X0217326Y0058624D01*
X0217168Y0058556D01*
X0217008Y0058492D01*
X0216847Y0058432D01*
X0216685Y0058376D01*
X0216521Y0058324D01*
X0216356Y0058277D01*
X0216190Y0058233D01*
X0216023Y0058193D01*
X0215855Y0058158D01*
X0215686Y0058126D01*
X0215516Y0058099D01*
X0215346Y0058076D01*
X0215175Y0058057D01*
X0215004Y0058042D01*
X0214832Y0058031D01*
X0214661Y0058025D01*
X0214489Y0058023D01*
X0214317Y0058025D01*
X0214146Y0058031D01*
X0213974Y0058042D01*
X0213803Y0058057D01*
X0213632Y0058076D01*
X0213462Y0058099D01*
X0213292Y0058126D01*
X0213123Y0058158D01*
X0212955Y0058193D01*
X0212788Y0058233D01*
X0212622Y0058277D01*
X0212457Y0058324D01*
X0212293Y0058376D01*
X0212131Y0058432D01*
X0211970Y0058492D01*
X0211810Y0058556D01*
X0211652Y0058624D01*
X0211496Y0058695D01*
X0211342Y0058770D01*
X0211189Y0058850D01*
X0211039Y0058932D01*
X0210890Y0059019D01*
X0210744Y0059109D01*
X0210600Y0059203D01*
X0210458Y0059300D01*
X0210319Y0059401D01*
X0210182Y0059505D01*
X0210048Y0059612D01*
X0209917Y0059723D01*
X0209788Y0059836D01*
X0209662Y0059953D01*
X0209539Y0060073D01*
X0209419Y0060196D01*
X0209302Y0060322D01*
X0209189Y0060451D01*
X0209078Y0060582D01*
X0208971Y0060716D01*
X0208867Y0060853D01*
X0208766Y0060992D01*
X0208669Y0061134D01*
X0208575Y0061278D01*
X0208485Y0061424D01*
X0208398Y0061573D01*
X0208316Y0061723D01*
X0208236Y0061876D01*
X0208161Y0062030D01*
X0208090Y0062186D01*
X0208022Y0062344D01*
X0207958Y0062504D01*
X0207898Y0062665D01*
X0207842Y0062827D01*
X0207790Y0062991D01*
X0207743Y0063156D01*
X0207699Y0063322D01*
X0207659Y0063489D01*
X0207624Y0063657D01*
X0207592Y0063826D01*
X0207565Y0063996D01*
X0207542Y0064166D01*
X0207523Y0064337D01*
X0207508Y0064508D01*
X0207497Y0064680D01*
X0207491Y0064851D01*
X0207489Y0065023D01*
X0203152Y0026000D02*
X0203154Y0026172D01*
X0203160Y0026343D01*
X0203171Y0026515D01*
X0203186Y0026686D01*
X0203205Y0026857D01*
X0203228Y0027027D01*
X0203255Y0027197D01*
X0203287Y0027366D01*
X0203322Y0027534D01*
X0203362Y0027701D01*
X0203406Y0027867D01*
X0203453Y0028032D01*
X0203505Y0028196D01*
X0203561Y0028358D01*
X0203621Y0028519D01*
X0203685Y0028679D01*
X0203753Y0028837D01*
X0203824Y0028993D01*
X0203899Y0029147D01*
X0203979Y0029300D01*
X0204061Y0029450D01*
X0204148Y0029599D01*
X0204238Y0029745D01*
X0204332Y0029889D01*
X0204429Y0030031D01*
X0204530Y0030170D01*
X0204634Y0030307D01*
X0204741Y0030441D01*
X0204852Y0030572D01*
X0204965Y0030701D01*
X0205082Y0030827D01*
X0205202Y0030950D01*
X0205325Y0031070D01*
X0205451Y0031187D01*
X0205580Y0031300D01*
X0205711Y0031411D01*
X0205845Y0031518D01*
X0205982Y0031622D01*
X0206121Y0031723D01*
X0206263Y0031820D01*
X0206407Y0031914D01*
X0206553Y0032004D01*
X0206702Y0032091D01*
X0206852Y0032173D01*
X0207005Y0032253D01*
X0207159Y0032328D01*
X0207315Y0032399D01*
X0207473Y0032467D01*
X0207633Y0032531D01*
X0207794Y0032591D01*
X0207956Y0032647D01*
X0208120Y0032699D01*
X0208285Y0032746D01*
X0208451Y0032790D01*
X0208618Y0032830D01*
X0208786Y0032865D01*
X0208955Y0032897D01*
X0209125Y0032924D01*
X0209295Y0032947D01*
X0209466Y0032966D01*
X0209637Y0032981D01*
X0209809Y0032992D01*
X0209980Y0032998D01*
X0210152Y0033000D01*
X0210324Y0032998D01*
X0210495Y0032992D01*
X0210667Y0032981D01*
X0210838Y0032966D01*
X0211009Y0032947D01*
X0211179Y0032924D01*
X0211349Y0032897D01*
X0211518Y0032865D01*
X0211686Y0032830D01*
X0211853Y0032790D01*
X0212019Y0032746D01*
X0212184Y0032699D01*
X0212348Y0032647D01*
X0212510Y0032591D01*
X0212671Y0032531D01*
X0212831Y0032467D01*
X0212989Y0032399D01*
X0213145Y0032328D01*
X0213299Y0032253D01*
X0213452Y0032173D01*
X0213602Y0032091D01*
X0213751Y0032004D01*
X0213897Y0031914D01*
X0214041Y0031820D01*
X0214183Y0031723D01*
X0214322Y0031622D01*
X0214459Y0031518D01*
X0214593Y0031411D01*
X0214724Y0031300D01*
X0214853Y0031187D01*
X0214979Y0031070D01*
X0215102Y0030950D01*
X0215222Y0030827D01*
X0215339Y0030701D01*
X0215452Y0030572D01*
X0215563Y0030441D01*
X0215670Y0030307D01*
X0215774Y0030170D01*
X0215875Y0030031D01*
X0215972Y0029889D01*
X0216066Y0029745D01*
X0216156Y0029599D01*
X0216243Y0029450D01*
X0216325Y0029300D01*
X0216405Y0029147D01*
X0216480Y0028993D01*
X0216551Y0028837D01*
X0216619Y0028679D01*
X0216683Y0028519D01*
X0216743Y0028358D01*
X0216799Y0028196D01*
X0216851Y0028032D01*
X0216898Y0027867D01*
X0216942Y0027701D01*
X0216982Y0027534D01*
X0217017Y0027366D01*
X0217049Y0027197D01*
X0217076Y0027027D01*
X0217099Y0026857D01*
X0217118Y0026686D01*
X0217133Y0026515D01*
X0217144Y0026343D01*
X0217150Y0026172D01*
X0217152Y0026000D01*
X0217150Y0025828D01*
X0217144Y0025657D01*
X0217133Y0025485D01*
X0217118Y0025314D01*
X0217099Y0025143D01*
X0217076Y0024973D01*
X0217049Y0024803D01*
X0217017Y0024634D01*
X0216982Y0024466D01*
X0216942Y0024299D01*
X0216898Y0024133D01*
X0216851Y0023968D01*
X0216799Y0023804D01*
X0216743Y0023642D01*
X0216683Y0023481D01*
X0216619Y0023321D01*
X0216551Y0023163D01*
X0216480Y0023007D01*
X0216405Y0022853D01*
X0216325Y0022700D01*
X0216243Y0022550D01*
X0216156Y0022401D01*
X0216066Y0022255D01*
X0215972Y0022111D01*
X0215875Y0021969D01*
X0215774Y0021830D01*
X0215670Y0021693D01*
X0215563Y0021559D01*
X0215452Y0021428D01*
X0215339Y0021299D01*
X0215222Y0021173D01*
X0215102Y0021050D01*
X0214979Y0020930D01*
X0214853Y0020813D01*
X0214724Y0020700D01*
X0214593Y0020589D01*
X0214459Y0020482D01*
X0214322Y0020378D01*
X0214183Y0020277D01*
X0214041Y0020180D01*
X0213897Y0020086D01*
X0213751Y0019996D01*
X0213602Y0019909D01*
X0213452Y0019827D01*
X0213299Y0019747D01*
X0213145Y0019672D01*
X0212989Y0019601D01*
X0212831Y0019533D01*
X0212671Y0019469D01*
X0212510Y0019409D01*
X0212348Y0019353D01*
X0212184Y0019301D01*
X0212019Y0019254D01*
X0211853Y0019210D01*
X0211686Y0019170D01*
X0211518Y0019135D01*
X0211349Y0019103D01*
X0211179Y0019076D01*
X0211009Y0019053D01*
X0210838Y0019034D01*
X0210667Y0019019D01*
X0210495Y0019008D01*
X0210324Y0019002D01*
X0210152Y0019000D01*
X0209980Y0019002D01*
X0209809Y0019008D01*
X0209637Y0019019D01*
X0209466Y0019034D01*
X0209295Y0019053D01*
X0209125Y0019076D01*
X0208955Y0019103D01*
X0208786Y0019135D01*
X0208618Y0019170D01*
X0208451Y0019210D01*
X0208285Y0019254D01*
X0208120Y0019301D01*
X0207956Y0019353D01*
X0207794Y0019409D01*
X0207633Y0019469D01*
X0207473Y0019533D01*
X0207315Y0019601D01*
X0207159Y0019672D01*
X0207005Y0019747D01*
X0206852Y0019827D01*
X0206702Y0019909D01*
X0206553Y0019996D01*
X0206407Y0020086D01*
X0206263Y0020180D01*
X0206121Y0020277D01*
X0205982Y0020378D01*
X0205845Y0020482D01*
X0205711Y0020589D01*
X0205580Y0020700D01*
X0205451Y0020813D01*
X0205325Y0020930D01*
X0205202Y0021050D01*
X0205082Y0021173D01*
X0204965Y0021299D01*
X0204852Y0021428D01*
X0204741Y0021559D01*
X0204634Y0021693D01*
X0204530Y0021830D01*
X0204429Y0021969D01*
X0204332Y0022111D01*
X0204238Y0022255D01*
X0204148Y0022401D01*
X0204061Y0022550D01*
X0203979Y0022700D01*
X0203899Y0022853D01*
X0203824Y0023007D01*
X0203753Y0023163D01*
X0203685Y0023321D01*
X0203621Y0023481D01*
X0203561Y0023642D01*
X0203505Y0023804D01*
X0203453Y0023968D01*
X0203406Y0024133D01*
X0203362Y0024299D01*
X0203322Y0024466D01*
X0203287Y0024634D01*
X0203255Y0024803D01*
X0203228Y0024973D01*
X0203205Y0025143D01*
X0203186Y0025314D01*
X0203171Y0025485D01*
X0203160Y0025657D01*
X0203154Y0025828D01*
X0203152Y0026000D01*
D11*
X0136645Y0297460D03*
D12*
X0146645Y0297460D03*
X0156645Y0297460D03*
X0156645Y0327460D03*
X0146645Y0327460D03*
X0136645Y0327460D03*
D13*
X0187039Y0274827D02*
X0193039Y0274827D01*
X0193039Y0257027D02*
X0187039Y0257027D01*
X0212639Y0257027D02*
X0218639Y0257027D01*
X0218639Y0274827D02*
X0212639Y0274827D01*
X0079965Y0234591D02*
X0079965Y0228591D01*
X0069965Y0228591D02*
X0069965Y0234591D01*
X0059965Y0234591D02*
X0059965Y0228591D01*
X0049965Y0228591D02*
X0049965Y0234591D01*
D14*
X0194016Y0199707D02*
X0194016Y0195307D01*
X0214016Y0195307D02*
X0214016Y0199707D01*
D15*
X0208388Y0397857D03*
X0190588Y0397857D03*
X0168388Y0397857D03*
X0150588Y0397857D03*
X0128388Y0397857D03*
X0110588Y0397857D03*
X0088388Y0397857D03*
X0070588Y0397857D03*
D16*
X0065688Y0388057D03*
X0093288Y0388057D03*
X0105688Y0388057D03*
X0133288Y0388057D03*
X0145688Y0388057D03*
X0173288Y0388057D03*
X0185688Y0388057D03*
X0213288Y0388057D03*
D17*
X0069795Y0270332D03*
X0069795Y0260332D03*
X0059795Y0260332D03*
X0059795Y0270332D03*
X0049795Y0270332D03*
X0049795Y0260332D03*
D18*
X0100152Y0036000D03*
X0100152Y0016000D03*
X0115152Y0016000D03*
X0115152Y0036000D03*
X0130152Y0036000D03*
X0130152Y0016000D03*
X0145152Y0016000D03*
X0145152Y0036000D03*
X0160152Y0036000D03*
X0160152Y0016000D03*
X0175152Y0016000D03*
X0175152Y0036000D03*
D19*
X0158365Y0355935D02*
X0158365Y0361872D01*
X0148365Y0361872D02*
X0148365Y0355935D01*
X0138365Y0355935D02*
X0138365Y0361872D01*
X0128365Y0361872D02*
X0128365Y0355935D01*
D20*
X0128277Y0358500D02*
X0128365Y0358904D01*
X0128277Y0358500D02*
X0128277Y0313500D01*
X0128902Y0313500D01*
X0128277Y0313500D02*
X0128277Y0287875D01*
X0130152Y0286000D01*
X0130152Y0242250D01*
X0129527Y0242250D01*
X0130152Y0242250D02*
X0130152Y0212875D01*
X0138277Y0204750D01*
X0138277Y0204125D01*
X0138277Y0184750D01*
X0145777Y0184750D02*
X0146402Y0185375D01*
X0146402Y0206000D01*
X0145777Y0206000D01*
X0146402Y0206000D02*
X0146402Y0297250D01*
X0146645Y0297460D01*
X0147027Y0297875D01*
X0147027Y0317875D01*
X0156402Y0327250D01*
X0156645Y0327460D01*
X0156402Y0327875D01*
X0138902Y0345375D01*
X0138902Y0358500D01*
X0138365Y0358904D01*
X0138902Y0359125D01*
X0138902Y0367875D01*
X0139839Y0368812D01*
X0139527Y0369125D01*
X0139527Y0397250D01*
X0128902Y0397250D01*
X0128388Y0397857D01*
X0120152Y0387875D02*
X0110777Y0397250D01*
X0110588Y0397857D01*
X0120152Y0387875D02*
X0120152Y0181000D01*
X0147652Y0181000D01*
X0151402Y0184750D01*
X0154527Y0188500D02*
X0155152Y0187875D01*
X0155152Y0041000D01*
X0160152Y0036000D01*
X0168277Y0027875D02*
X0168277Y0198500D01*
X0170777Y0201000D01*
X0170777Y0213500D01*
X0170777Y0286625D01*
X0172027Y0287875D01*
X0164527Y0281000D02*
X0164527Y0249750D01*
X0155152Y0240375D01*
X0164527Y0237875D02*
X0155152Y0228500D01*
X0163277Y0232875D02*
X0168277Y0237875D01*
X0168277Y0339125D01*
X0148902Y0358500D01*
X0148365Y0358904D01*
X0139839Y0368812D02*
X0152964Y0381937D01*
X0153277Y0381625D01*
X0192652Y0381625D01*
X0208277Y0397250D01*
X0208388Y0397857D01*
X0202652Y0356625D02*
X0202652Y0197250D01*
X0178902Y0173500D01*
X0175152Y0181000D02*
X0189527Y0195375D01*
X0189527Y0256625D01*
X0190039Y0257027D01*
X0187652Y0262875D02*
X0197652Y0272875D01*
X0197652Y0291625D01*
X0197652Y0297250D02*
X0182027Y0281625D01*
X0182027Y0253500D01*
X0179527Y0250375D02*
X0178277Y0251625D01*
X0178277Y0351625D01*
X0171402Y0358500D01*
X0158902Y0358500D01*
X0158365Y0358904D01*
X0169527Y0354750D02*
X0175777Y0348500D01*
X0175777Y0194125D01*
X0179527Y0191000D02*
X0179527Y0250375D01*
X0164527Y0242250D02*
X0164527Y0237875D01*
X0163277Y0232875D02*
X0163277Y0202875D01*
X0154527Y0194125D01*
X0158902Y0194750D02*
X0158902Y0169750D01*
X0175152Y0181000D02*
X0175152Y0036000D01*
X0168277Y0027875D02*
X0138277Y0027875D01*
X0130152Y0036000D01*
X0127652Y0042875D02*
X0145152Y0042875D01*
X0145152Y0036000D01*
X0127652Y0042875D02*
X0123277Y0038500D01*
X0123277Y0029125D01*
X0097652Y0029125D01*
X0093277Y0033500D01*
X0093277Y0038500D01*
X0098902Y0044125D01*
X0098902Y0297875D01*
X0108902Y0307875D01*
X0112652Y0311000D02*
X0112652Y0277250D01*
X0112652Y0209125D01*
X0102652Y0199125D01*
X0101402Y0191000D02*
X0101402Y0037250D01*
X0100152Y0036000D01*
X0115152Y0036000D02*
X0116402Y0037250D01*
X0116402Y0196625D01*
X0116402Y0206000D02*
X0101402Y0191000D01*
X0095152Y0185375D02*
X0092652Y0187875D01*
X0092652Y0329125D01*
X0084839Y0336938D01*
X0086402Y0338500D01*
X0084839Y0336938D02*
X0070152Y0322250D01*
X0070152Y0270375D01*
X0069795Y0270332D01*
X0069795Y0260332D02*
X0070152Y0259750D01*
X0071402Y0258500D01*
X0071402Y0249750D01*
X0065152Y0254750D02*
X0065152Y0212250D01*
X0070152Y0212250D02*
X0070152Y0184750D01*
X0075777Y0184750D01*
X0085152Y0194125D01*
X0085152Y0319750D01*
X0086402Y0321000D01*
X0086402Y0329750D02*
X0075152Y0318500D01*
X0075152Y0212250D01*
X0079527Y0196625D02*
X0079527Y0231000D01*
X0079965Y0231591D01*
X0065152Y0254750D02*
X0060152Y0259750D01*
X0059795Y0260332D01*
X0059795Y0270332D02*
X0059527Y0270375D01*
X0053902Y0276000D01*
X0043902Y0276000D01*
X0043902Y0201625D01*
X0078277Y0167250D01*
X0088277Y0167250D01*
X0088277Y0176000D01*
X0088902Y0176000D01*
X0088902Y0198500D01*
X0079527Y0196625D02*
X0073902Y0191000D01*
X0060152Y0191000D02*
X0080152Y0171000D01*
X0060152Y0191000D02*
X0060152Y0231000D01*
X0059965Y0231591D01*
X0041402Y0196625D02*
X0041402Y0277250D01*
X0057027Y0292875D01*
X0057027Y0342875D01*
X0100777Y0342875D01*
X0098277Y0325375D02*
X0112652Y0311000D01*
X0108902Y0294750D02*
X0108902Y0244125D01*
X0102652Y0237875D01*
X0123902Y0238500D02*
X0125777Y0240375D01*
X0125777Y0284750D01*
X0136645Y0297460D02*
X0136402Y0297875D01*
X0136402Y0312875D01*
X0132027Y0317250D01*
X0162027Y0296000D02*
X0151402Y0285375D01*
X0151402Y0206000D01*
X0158902Y0194750D02*
X0167027Y0202875D01*
X0179527Y0191000D02*
X0178902Y0190375D01*
X0194016Y0197507D02*
X0194527Y0197875D01*
X0198902Y0202250D01*
X0198902Y0218500D01*
X0213902Y0231000D02*
X0206402Y0238500D01*
X0213902Y0231000D02*
X0213902Y0227250D01*
X0213277Y0227250D01*
X0213902Y0227250D02*
X0213902Y0208500D01*
X0213902Y0197875D01*
X0214016Y0197507D01*
X0215639Y0257027D02*
X0215777Y0257250D01*
X0223277Y0264750D01*
X0223277Y0313500D01*
X0215777Y0321000D01*
X0206402Y0331625D02*
X0212652Y0337875D01*
X0186402Y0351000D02*
X0185777Y0350375D01*
X0185777Y0321625D01*
X0182027Y0296625D02*
X0182652Y0296000D01*
X0182027Y0296625D02*
X0182027Y0347250D01*
X0162027Y0317250D02*
X0162027Y0296000D01*
X0142652Y0250375D02*
X0142027Y0249750D01*
X0142027Y0196625D01*
X0133902Y0200375D02*
X0123902Y0210375D01*
X0133902Y0238500D02*
X0133902Y0242250D01*
X0138277Y0246625D01*
X0152964Y0381937D02*
X0168277Y0397250D01*
X0168388Y0397857D01*
D21*
X0169527Y0354750D03*
X0182027Y0347250D03*
X0186402Y0351000D03*
X0202652Y0356625D03*
X0212652Y0337875D03*
X0206402Y0331625D03*
X0215777Y0321000D03*
X0197652Y0297250D03*
X0197652Y0291625D03*
X0182652Y0296000D03*
X0172027Y0287875D03*
X0164527Y0281000D03*
X0182027Y0253500D03*
X0187652Y0262875D03*
X0206402Y0238500D03*
X0213277Y0227250D03*
X0213902Y0208500D03*
X0198902Y0218500D03*
X0178902Y0190375D03*
X0175777Y0194125D03*
X0167027Y0202875D03*
X0170777Y0213500D03*
X0155152Y0228500D03*
X0155152Y0240375D03*
X0164527Y0242250D03*
X0151402Y0206000D03*
X0145777Y0206000D03*
X0138277Y0204125D03*
X0133902Y0200375D03*
X0142027Y0196625D03*
X0145777Y0184750D03*
X0151402Y0184750D03*
X0154527Y0188500D03*
X0154527Y0194125D03*
X0158902Y0169750D03*
X0178902Y0173500D03*
X0138277Y0184750D03*
X0123902Y0210375D03*
X0116402Y0206000D03*
X0116402Y0196625D03*
X0102652Y0199125D03*
X0095152Y0185375D03*
X0088902Y0176000D03*
X0080152Y0171000D03*
X0073902Y0191000D03*
X0075152Y0212250D03*
X0070152Y0212250D03*
X0065152Y0212250D03*
X0071402Y0249750D03*
X0088902Y0198500D03*
X0102652Y0237875D03*
X0123902Y0238500D03*
X0129527Y0242250D03*
X0133902Y0238500D03*
X0138277Y0246625D03*
X0142652Y0250375D03*
X0125777Y0284750D03*
X0112652Y0277250D03*
X0108902Y0294750D03*
X0108902Y0307875D03*
X0098277Y0325375D03*
X0100777Y0342875D03*
X0086402Y0338500D03*
X0086402Y0329750D03*
X0086402Y0321000D03*
X0128902Y0313500D03*
X0132027Y0317250D03*
X0162027Y0317250D03*
X0185777Y0321625D03*
X0041402Y0196625D03*
M02*
